<svg width="82.000000" height="85.000000" viewBox="0 0 82 85" fill="none" xmlns="http://www.w3.org/2000/svg" xmlns:xlink="http://www.w3.org/1999/xlink">
	<desc>
			Created with Pixso.
	</desc>
	<defs/>
	<path id="Rectangle 6" d="M10.69 0.91L56.01 0.91C60.88 0.91 64.82 4.92 64.82 9.86L64.82 62.28C64.82 67.22 60.88 71.23 56.01 71.23L10.69 71.23C5.83 71.23 1.88 67.22 1.88 62.28L1.88 9.86C1.88 4.92 5.83 0.91 10.69 0.91Z" fill="#FFFFFF" fill-opacity="1.000000" fill-rule="evenodd"/>
	<path id="Rectangle 6 (Border)" d="M60.12 -0.21C58.86 -0.74 57.49 -1 56.01 -1L10.69 -1C9.22 -1 7.85 -0.74 6.59 -0.21C5.33 0.32 4.17 1.12 3.13 2.18C2.08 3.24 1.3 4.41 0.78 5.69C0.26 6.97 0 8.36 0 9.86L0 62.28C0 63.78 0.26 65.17 0.78 66.45C1.3 67.73 2.08 68.9 3.13 69.96C4.17 71.02 5.33 71.82 6.59 72.35C7.85 72.88 9.22 73.15 10.69 73.15L56.01 73.15C57.49 73.15 58.86 72.88 60.12 72.35C61.38 71.82 62.53 71.02 63.58 69.96C64.62 68.9 65.41 67.73 65.93 66.45C66.45 65.17 66.71 63.78 66.71 62.28L66.71 9.86C66.71 8.36 66.45 6.97 65.93 5.69C65.4 4.41 64.62 3.24 63.58 2.18C62.53 1.12 61.38 0.32 60.12 -0.21ZM10.69 2.83L56.01 2.83C56.97 2.83 57.85 3 58.67 3.35C59.48 3.69 60.23 4.2 60.91 4.89C61.58 5.58 62.09 6.33 62.43 7.16C62.77 7.99 62.93 8.89 62.93 9.86L62.93 62.28C62.93 63.25 62.77 64.15 62.43 64.98C62.09 65.81 61.58 66.56 60.91 67.25C60.23 67.94 59.48 68.45 58.67 68.79C57.85 69.14 56.97 69.31 56.01 69.31L10.69 69.31C9.74 69.31 8.85 69.14 8.04 68.79C7.22 68.45 6.48 67.94 5.8 67.25C5.12 66.56 4.62 65.81 4.28 64.98C3.94 64.15 3.77 63.25 3.77 62.28L3.77 9.86C3.77 8.89 3.94 7.99 4.28 7.16C4.62 6.33 5.12 5.58 5.8 4.89C6.48 4.2 7.22 3.69 8.04 3.35C8.85 3 9.74 2.83 10.69 2.83Z" fill="#8400FF" fill-opacity="1.000000" fill-rule="evenodd"/>
	<path id="Rectangle 7" d="M19.51 11.14L47.2 11.14C51.37 11.14 54.75 14.57 54.75 18.81L54.75 20.09C54.75 24.33 51.37 27.76 47.2 27.76L19.51 27.76C15.34 27.76 11.95 24.33 11.95 20.09L11.95 18.81C11.95 14.57 15.34 11.14 19.51 11.14Z" fill="#F0E1FF" fill-opacity="1.000000" fill-rule="evenodd"/>
	<path id="Rectangle 8" d="M19.51 35.43L25.8 35.43C29.97 35.43 33.35 38.87 33.35 43.1L33.35 44.38C33.35 48.62 29.97 52.05 25.8 52.05L19.51 52.05C15.34 52.05 11.95 48.62 11.95 44.38L11.95 43.1C11.95 38.87 15.34 35.43 19.51 35.43Z" fill="#F0E1FF" fill-opacity="1.000000" fill-rule="evenodd"/>
	<path id="Union" d="M50.08 48.17L49.72 74.74C49.68 77.69 52.8 79.58 55.34 78.14L63.4 73.56L67.53 80.83C68.57 82.66 70.88 83.29 72.69 82.23C74.49 81.17 75.11 78.83 74.07 76.99L69.99 69.82L78.17 65.17C80.71 63.73 80.76 60.04 78.26 58.53L55.79 44.93C53.29 43.41 50.12 45.22 50.08 48.17Z" fill="#FFFFFF" fill-opacity="1.000000" fill-rule="evenodd"/>
	<path id="Union (Border)" d="M48.94 45.25C48.46 46.07 48.21 47.03 48.19 48.14L47.83 74.71C47.81 75.82 48.04 76.79 48.5 77.63C48.96 78.46 49.66 79.17 50.59 79.73C51.53 80.3 52.47 80.59 53.41 80.6C54.36 80.62 55.31 80.35 56.26 79.81L62.69 76.16L65.89 81.79C66.28 82.48 66.76 83.04 67.34 83.49C67.91 83.94 68.58 84.26 69.33 84.47C70.09 84.67 70.82 84.73 71.54 84.63C72.25 84.54 72.95 84.29 73.63 83.89C74.31 83.5 74.87 83.01 75.3 82.42C75.74 81.84 76.07 81.17 76.27 80.4C76.47 79.63 76.52 78.89 76.43 78.16C76.34 77.43 76.09 76.72 75.7 76.03L72.58 70.54L79.09 66.85C80.05 66.3 80.76 65.62 81.25 64.8C81.73 63.98 81.98 63.01 81.99 61.9C82.01 60.8 81.79 59.82 81.33 58.99C80.87 58.15 80.17 57.45 79.23 56.88L56.75 43.28C55.82 42.71 54.88 42.42 53.93 42.41C52.99 42.4 52.04 42.66 51.09 43.2C50.14 43.74 49.42 44.42 48.94 45.25ZM51.61 74.76L51.97 48.19C51.97 47.83 52.06 47.5 52.22 47.23C52.38 46.95 52.62 46.73 52.93 46.55C53.25 46.37 53.57 46.28 53.88 46.28C54.2 46.29 54.51 46.38 54.82 46.57L77.3 60.18C77.61 60.37 77.84 60.6 78 60.88C78.15 61.16 78.22 61.48 78.22 61.85C78.21 62.22 78.13 62.54 77.97 62.82C77.81 63.09 77.57 63.32 77.25 63.5L67.4 69.09L72.43 77.95C72.56 78.18 72.64 78.42 72.67 78.66C72.71 78.9 72.69 79.15 72.62 79.41C72.55 79.66 72.45 79.89 72.3 80.08C72.15 80.28 71.97 80.44 71.74 80.57C71.52 80.7 71.28 80.79 71.04 80.82C70.81 80.85 70.56 80.83 70.31 80.76C70.06 80.69 69.83 80.59 69.64 80.44C69.45 80.29 69.29 80.1 69.16 79.87L64.1 70.97L54.41 76.46C54.1 76.64 53.78 76.73 53.47 76.73C53.15 76.72 52.84 76.63 52.53 76.44C52.21 76.25 51.98 76.01 51.83 75.74C51.67 75.46 51.6 75.13 51.61 74.76Z" fill="#000000" fill-opacity="1.000000" fill-rule="evenodd"/>
</svg>
