<svg width="99.000000" height="93.000000" viewBox="0 0 99 93" fill="none" xmlns="http://www.w3.org/2000/svg" xmlns:xlink="http://www.w3.org/1999/xlink">
	<desc>
			Created with Pixso.
	</desc>
	<defs/>
	<path id="Rectangle 11" d="M10.72 38.79L55.29 13.34C57.46 12.1 60.06 11.83 62.45 12.59L79.55 18.04C83.89 19.42 86.47 23.84 85.51 28.25L81.73 45.61C81.21 48.04 79.66 50.13 77.49 51.37L32.92 76.82C28.68 79.24 23.24 77.8 20.79 73.6L7.47 50.78C5.02 46.58 6.47 41.21 10.72 38.79Z" fill="#FFFFFF" fill-opacity="1.000000" fill-rule="evenodd"/>
	<path id="Rectangle 11 (Border)" d="M56.29 10.51C55.56 10.74 54.86 11.05 54.18 11.44L9.61 36.89C8.9 37.29 8.25 37.76 7.66 38.29C7.17 38.74 6.71 39.23 6.3 39.77C5.89 40.31 5.53 40.88 5.23 41.48C4.9 42.13 4.63 42.83 4.44 43.55C4.24 44.28 4.12 45.01 4.07 45.74C4.03 46.41 4.06 47.08 4.14 47.75C4.22 48.42 4.37 49.07 4.57 49.7C4.81 50.46 5.14 51.18 5.55 51.88L18.87 74.7C19.28 75.4 19.75 76.04 20.29 76.62C20.74 77.11 21.24 77.56 21.79 77.97C22.33 78.38 22.91 78.73 23.51 79.03C24.18 79.36 24.88 79.62 25.61 79.81C26.34 80.01 27.08 80.13 27.82 80.17C28.5 80.21 29.17 80.19 29.85 80.11C30.53 80.02 31.19 79.88 31.83 79.68C32.59 79.44 33.33 79.12 34.03 78.72L78.6 53.28C79.28 52.89 79.9 52.44 80.48 51.93C81.05 51.43 81.56 50.86 82.02 50.23C82.49 49.6 82.87 48.94 83.19 48.25C83.5 47.56 83.74 46.83 83.9 46.08L87.68 28.71C87.84 27.98 87.92 27.25 87.93 26.52C87.94 25.89 87.89 25.26 87.79 24.63C87.68 24 87.52 23.39 87.31 22.79C87.09 22.14 86.79 21.52 86.44 20.91C86.09 20.31 85.68 19.74 85.23 19.22C84.81 18.75 84.36 18.3 83.85 17.9C83.36 17.5 82.83 17.14 82.28 16.83C81.63 16.47 80.95 16.18 80.23 15.95L63.13 10.5C62.39 10.26 61.63 10.11 60.87 10.03C60.1 9.95 59.33 9.95 58.55 10.03C57.77 10.12 57.02 10.27 56.29 10.51ZM11.83 40.69L56.4 15.25C56.8 15.01 57.23 14.83 57.66 14.69C58.1 14.54 58.55 14.45 59.02 14.4C59.49 14.35 59.95 14.35 60.41 14.4C60.87 14.44 61.32 14.54 61.77 14.68L78.87 20.13C79.32 20.27 79.75 20.46 80.15 20.69C80.46 20.87 80.76 21.07 81.04 21.3C81.33 21.53 81.6 21.79 81.85 22.07C82.13 22.39 82.38 22.73 82.6 23.11C82.81 23.48 82.99 23.87 83.13 24.27C83.25 24.62 83.34 24.97 83.4 25.34C83.46 25.7 83.49 26.05 83.49 26.41C83.49 26.87 83.44 27.33 83.34 27.78L79.56 45.15C79.46 45.61 79.32 46.04 79.13 46.46C78.94 46.87 78.71 47.27 78.43 47.65C78.16 48.02 77.85 48.36 77.51 48.67C77.16 48.97 76.79 49.24 76.38 49.47L31.81 74.92C31.37 75.17 30.9 75.37 30.42 75.52C30.06 75.62 29.69 75.7 29.31 75.75C28.91 75.8 28.52 75.81 28.13 75.79C27.67 75.77 27.21 75.69 26.76 75.57C26.3 75.45 25.87 75.29 25.46 75.08C25.11 74.91 24.78 74.7 24.46 74.47C24.16 74.24 23.88 73.99 23.62 73.71C23.27 73.35 22.97 72.95 22.71 72.5L9.39 49.69C9.13 49.24 8.93 48.78 8.78 48.31C8.67 47.95 8.59 47.58 8.55 47.21C8.5 46.82 8.48 46.43 8.51 46.05C8.53 45.59 8.6 45.14 8.73 44.69C8.85 44.24 9.01 43.81 9.22 43.4C9.4 43.06 9.61 42.73 9.85 42.42C10.08 42.12 10.33 41.84 10.61 41.58C10.97 41.24 11.38 40.94 11.83 40.69Z" fill="#8400FF" fill-opacity="1.000000" fill-rule="evenodd"/>
	<path id="Oval 1" d="M65.2 27.81C65.2 25.38 67.19 23.42 69.64 23.42C72.09 23.42 74.08 25.38 74.08 27.81C74.08 30.23 72.09 32.2 69.64 32.2C67.19 32.2 65.2 30.23 65.2 27.81Z" fill="#F0E1FF" fill-opacity="1.000000" fill-rule="evenodd"/>
	<path id="Line 1 (Border)" d="M49.36 33.3L31.6 63.72L27.75 61.53L45.51 31.1L49.36 33.3Z" fill="#8400FF" fill-opacity="1.000000" fill-rule="evenodd"/>
	<path id="Oval 2" d="M25.23 40.98C25.23 38.56 27.22 36.59 29.67 36.59C32.13 36.59 34.11 38.56 34.11 40.98C34.11 43.41 32.13 45.37 29.67 45.37C27.22 45.37 25.23 43.41 25.23 40.98Z" fill="#8400FF" fill-opacity="1.000000" fill-rule="evenodd"/>
	<path id="Oval 3" d="M42.99 54.16C42.99 51.73 44.98 49.77 47.44 49.77C49.89 49.77 51.88 51.73 51.88 54.16C51.88 56.58 49.89 58.55 47.44 58.55C44.98 58.55 42.99 56.58 42.99 54.16Z" fill="#8400FF" fill-opacity="1.000000" fill-rule="evenodd"/>
	<path id="Line 2 (Border)" d="M4.34 17.26L11.51 22.44L8.88 25.99L1.72 20.8L4.34 17.26Z" fill="#000000" fill-opacity="1.000000" fill-rule="evenodd"/>
	<path id="Line 5 (Border)" d="M75.28 72.55L67 69.38L68.61 65.28L76.89 68.46L75.28 72.55Z" fill="#000000" fill-opacity="1.000000" fill-rule="evenodd"/>
	<path id="Line 3 (Border)" d="M22.94 5.29L25.23 13.77L20.94 14.91L18.65 6.42L22.94 5.29Z" fill="#000000" fill-opacity="1.000000" fill-rule="evenodd"/>
	<path id="Line 6 (Border)" d="M60.45 88.87L56.01 81.27L59.85 79.07L64.3 86.68L60.45 88.87Z" fill="#000000" fill-opacity="1.000000" fill-rule="evenodd"/>
	<path id="Line 4 (Border)" d="M43 6.42L40.7 14.91L36.41 13.77L38.71 5.29L43 6.42Z" fill="#000000" fill-opacity="1.000000" fill-rule="evenodd"/>
	<path id="Line 7 (Border)" d="M40.77 92.91L40.77 84.13L45.21 84.13L45.21 92.91L40.77 92.91Z" fill="#000000" fill-opacity="1.000000" fill-rule="evenodd"/>
</svg>
