<svg width="93.000000" height="97.000000" viewBox="0 0 93 97" fill="none" xmlns="http://www.w3.org/2000/svg" xmlns:xlink="http://www.w3.org/1999/xlink">
	<desc>
			Created with Pixso.
	</desc>
	<defs/>
	<path id="Rectangle 12 (Border)" d="M54.49 38.79C54.79 37.46 54.94 36.1 54.94 34.71L54.94 27.91C54.94 26.52 54.79 25.16 54.49 23.83C54.25 22.74 53.9 21.67 53.46 20.63C53.01 19.57 52.47 18.57 51.85 17.63C51.15 16.57 50.34 15.59 49.42 14.68C48.51 13.77 47.52 12.97 46.46 12.27C45.51 11.65 44.5 11.12 43.44 10.67C42.39 10.23 41.31 9.89 40.21 9.64C38.88 9.35 37.51 9.2 36.11 9.2C34.71 9.2 33.34 9.35 32 9.64C30.91 9.89 29.83 10.23 28.78 10.67C27.71 11.12 26.71 11.65 25.76 12.27C24.7 12.97 23.71 13.77 22.79 14.68C21.87 15.59 21.07 16.57 20.37 17.63C19.74 18.57 19.21 19.57 18.76 20.63C18.31 21.67 17.97 22.74 17.72 23.83C17.42 25.16 17.28 26.52 17.28 27.91L17.28 34.71C17.28 36.1 17.42 37.46 17.72 38.79C17.97 39.88 18.31 40.95 18.76 41.99C19.21 43.05 19.74 44.05 20.37 44.99C21.07 46.05 21.87 47.03 22.79 47.94C23.71 48.85 24.7 49.65 25.76 50.35C26.71 50.97 27.71 51.5 28.78 51.95C29.83 52.39 30.91 52.73 32 52.98C33.34 53.27 34.71 53.42 36.11 53.42C37.51 53.42 38.88 53.27 40.21 52.98C41.31 52.73 42.39 52.39 43.44 51.95C44.5 51.5 45.51 50.97 46.46 50.35C47.52 49.65 48.51 48.85 49.42 47.94C50.34 47.03 51.15 46.05 51.85 44.99C52.47 44.05 53.01 43.05 53.46 41.99C53.9 40.95 54.25 39.88 54.49 38.79ZM51.52 27.91L51.52 34.71C51.52 35.87 51.39 37.01 51.14 38.11C50.94 38.98 50.66 39.84 50.31 40.67C49.94 41.52 49.51 42.33 49.01 43.09C48.43 43.97 47.76 44.78 47 45.54C46.24 46.29 45.42 46.95 44.54 47.53C43.78 48.03 42.96 48.46 42.1 48.82C41.26 49.17 40.41 49.45 39.53 49.64C38.42 49.89 37.28 50.02 36.11 50.02C34.94 50.02 33.8 49.89 32.68 49.64C31.81 49.45 30.95 49.17 30.11 48.82C29.25 48.46 28.44 48.03 27.67 47.53C26.79 46.95 25.97 46.29 25.21 45.54C24.45 44.78 23.78 43.97 23.21 43.09C22.71 42.33 22.27 41.52 21.91 40.67C21.55 39.84 21.28 38.98 21.08 38.11C20.83 37.01 20.7 35.87 20.7 34.71L20.7 27.91C20.7 26.75 20.83 25.61 21.08 24.51C21.28 23.64 21.55 22.79 21.91 21.95C22.27 21.1 22.71 20.29 23.21 19.53C23.78 18.65 24.45 17.84 25.21 17.09C25.97 16.33 26.79 15.67 27.67 15.09C28.44 14.6 29.25 14.17 30.11 13.8C30.95 13.45 31.81 13.18 32.68 12.98C33.8 12.73 34.94 12.6 36.11 12.6C37.28 12.6 38.42 12.73 39.53 12.98C40.41 13.18 41.26 13.45 42.1 13.8C42.96 14.17 43.78 14.6 44.54 15.09C45.42 15.67 46.24 16.33 47 17.09C47.76 17.84 48.43 18.65 49.01 19.53C49.51 20.29 49.94 21.1 50.31 21.95C50.66 22.79 50.94 23.64 51.14 24.51C51.39 25.61 51.52 26.75 51.52 27.91Z" fill="#8400FF" fill-opacity="1.000000" fill-rule="evenodd"/>
	<path id="Vector 1" d="M45.04 20.08C48.66 21.95 49.88 24.23 52.56 26.98C53 27.44 53.61 27.68 54.24 27.68C55.59 27.68 56.68 26.59 56.68 25.25L56.68 14.3C56.68 13.04 56.35 11.78 55.59 10.77C54.99 9.96 54.48 9.43 54.02 8.95C52.21 7.1 49.91 5.57 47.31 5.57L46.64 5.57C45.37 5.57 44.13 5.2 43.02 4.59C25.04 -5.45 15.26 5.56 12.78 19.09C11.98 23.42 16.26 26.55 20.53 25.37L40.81 19.77C42.22 19.38 43.74 19.41 45.04 20.08Z" fill="#F0E1FF" fill-opacity="1.000000" fill-rule="evenodd"/>
	<path id="Vector 1 (Border)" d="M49.3 25.92C50.14 26.89 50.81 27.64 51.33 28.17C51.5 28.34 51.68 28.5 51.87 28.63C52.12 28.81 52.39 28.96 52.68 29.07C52.89 29.16 53.11 29.23 53.32 29.28C53.62 29.34 53.93 29.38 54.24 29.38C54.54 29.38 54.83 29.35 55.12 29.29C55.37 29.23 55.62 29.15 55.86 29.05C56.1 28.95 56.32 28.83 56.54 28.69C56.76 28.54 56.98 28.37 57.18 28.17C57.37 27.97 57.55 27.76 57.7 27.53C57.84 27.32 57.96 27.1 58.07 26.86C58.17 26.62 58.25 26.38 58.3 26.13C58.36 25.84 58.39 25.55 58.39 25.26L58.39 14.3C58.39 13.48 58.28 12.7 58.06 11.96C57.85 11.25 57.55 10.59 57.14 10C56.67 9.37 55.92 8.46 55.25 7.77C54.13 6.62 52.97 5.72 51.78 5.07C50.41 4.32 49.02 3.92 47.62 3.87L46.64 3.87C45.8 3.82 44.67 3.56 43.86 3.1C39.32 0.57 35.08 -0.79 31.14 -0.98C28.73 -1.1 26.48 -0.78 24.39 -0.02C23.27 0.39 22.19 0.92 21.16 1.57C18.51 3.26 16.3 5.7 14.52 8.89C12.92 11.77 11.78 15.07 11.09 18.79C10.93 19.67 10.92 20.52 11.07 21.34C11.15 21.8 11.29 22.25 11.46 22.7C11.64 23.13 11.85 23.54 12.1 23.92C12.53 24.56 13.06 25.13 13.7 25.63C14.06 25.92 14.45 26.17 14.86 26.38C15.54 26.75 16.28 27.01 17.07 27.16C17.61 27.27 18.16 27.32 18.7 27.32C19.46 27.32 20.22 27.22 20.98 27.01L41.27 21.41C41.82 21.26 42.35 21.2 42.87 21.23C43.38 21.26 43.84 21.38 44.25 21.59C45.29 22.13 46.23 22.77 47.06 23.53C47.59 24.01 48.33 24.81 49.3 25.92ZM53.89 25.88C53.42 25.4 52.69 24.62 51.89 23.7C51.37 23.1 50.97 22.65 50.7 22.35C50.24 21.85 49.79 21.41 49.37 21.02C48.39 20.16 47.03 19.19 45.83 18.57C45.65 18.48 45.46 18.39 45.27 18.32C44.59 18.04 43.85 17.88 43.07 17.83C42.18 17.78 41.27 17.88 40.35 18.13L20.07 23.73C19.57 23.87 19.07 23.93 18.57 23.92C18.29 23.91 18.02 23.88 17.74 23.83C17.21 23.72 16.73 23.54 16.3 23.29C16.13 23.19 15.97 23.08 15.81 22.96C15.41 22.65 15.1 22.29 14.86 21.88C14.78 21.74 14.71 21.59 14.64 21.43C14.58 21.29 14.53 21.14 14.5 20.99C14.37 20.48 14.36 19.96 14.46 19.4C15.08 16.04 16.1 13.09 17.52 10.53C19.01 7.85 20.84 5.82 23.01 4.44C23.74 3.97 24.5 3.59 25.29 3.28C27.03 2.61 28.93 2.32 30.98 2.42C34.38 2.58 38.11 3.8 42.18 6.07C43.26 6.67 44.37 7.04 45.5 7.19C45.88 7.24 46.26 7.27 46.64 7.27L47.31 7.27C48.23 7.27 49.17 7.53 50.14 8.06C51.02 8.54 51.91 9.23 52.79 10.14C53.36 10.72 53.83 11.27 54.22 11.78C54.68 12.44 54.97 13.33 54.97 14.3L54.97 25.26C54.93 25.34 54.83 25.69 54.76 25.77C54.67 25.8 54.34 25.98 54.24 25.98C54.1 25.98 53.99 25.94 53.89 25.88Z" fill="#8400FF" fill-opacity="1.000000" fill-rule="evenodd"/>
	<path id="Oval 4" d="M68.76 82.53C67.58 78.72 65.92 75.16 63.85 71.95C59.19 64.7 52.8 59.69 45.77 57.13C38.23 54.35 30.45 54.54 23.43 57.12C15.88 59.89 9.69 65.2 5.35 71.95C3.21 75.27 1.58 78.84 0.44 82.53C-1.77 89.72 4.57 95.94 12.14 95.94L34.6 95.94L57.06 95.94C64.63 95.94 70.97 89.71 68.76 82.53Z" fill="#FFFFFF" fill-opacity="1.000000" fill-rule="evenodd"/>
	<path id="Oval 4 (Border)" d="M61.35 71.91C63.14 75.12 64.59 78.7 65.61 82.53C67.53 89.74 62.03 96 55.47 96L35.99 96L16.52 96C9.96 96 4.46 89.75 6.38 82.53C7.37 78.82 8.78 75.24 10.64 71.9C14.4 65.13 19.76 59.79 26.31 57.01C32.4 54.42 39.14 54.23 45.68 57.01C51.77 59.59 57.31 64.62 61.35 71.91ZM58.85 73.74C56.31 69.17 53.23 65.59 49.62 63C48.07 61.89 46.41 60.96 44.66 60.22C41.75 58.98 38.84 58.37 35.93 58.37C33.07 58.38 30.2 59 27.34 60.22C25.54 60.98 23.85 61.93 22.26 63.08C18.69 65.66 15.65 69.21 13.14 73.74C12.77 74.41 12.42 75.08 12.08 75.77C10.9 78.21 9.95 80.8 9.22 83.53C8.93 84.61 8.88 85.63 9.04 86.6C9.23 87.69 9.71 88.71 10.46 89.67C11.03 90.38 11.66 90.96 12.35 91.41C13.55 92.19 14.94 92.58 16.52 92.58L35.99 92.58L55.47 92.58C57.05 92.58 58.44 92.19 59.64 91.41C60.33 90.96 60.96 90.38 61.52 89.66C62.28 88.71 62.76 87.68 62.95 86.6C63.11 85.63 63.05 84.6 62.77 83.53C61.98 80.55 60.92 77.75 59.59 75.13C59.35 74.67 59.1 74.2 58.85 73.74Z" fill="#8400FF" fill-opacity="1.000000" fill-rule="evenodd"/>
	<path id="Vector 2 (Border)" d="M32.18 62.42L27.04 57.32L24.62 59.73L29.01 64.08L24.88 76.4C24.57 77.32 24.53 78.25 24.75 79.19C24.86 79.66 25.03 80.09 25.26 80.5C25.49 80.91 25.78 81.28 26.12 81.62L32.47 87.93C32.97 88.42 33.53 88.8 34.17 89.05C34.47 89.17 34.77 89.27 35.08 89.33C35.42 89.39 35.76 89.43 36.11 89.43C36.46 89.43 36.8 89.39 37.13 89.33C37.44 89.27 37.74 89.17 38.04 89.05C38.68 88.8 39.25 88.42 39.74 87.93L46.09 81.62C46.44 81.28 46.72 80.91 46.95 80.5C47.18 80.09 47.35 79.66 47.46 79.19C47.68 78.25 47.64 77.32 47.33 76.4L43.2 64.08L47.59 59.73L45.17 57.32L40.03 62.42L37.32 65.12C36.98 65.45 36.58 65.62 36.11 65.62C35.87 65.62 35.65 65.58 35.45 65.49C35.25 65.41 35.06 65.29 34.9 65.12L32.18 62.42ZM40.49 66.77L39.74 67.52C39.25 68.01 38.68 68.39 38.04 68.65C37.74 68.76 37.44 68.86 37.13 68.92C36.8 68.99 36.46 69.02 36.11 69.02C35.44 69.02 34.79 68.89 34.17 68.65C33.53 68.39 32.97 68.01 32.47 67.52L31.72 66.77L28.13 77.48C28.03 77.78 28.01 78.09 28.09 78.4C28.12 78.56 28.18 78.71 28.26 78.84C28.33 78.98 28.43 79.1 28.54 79.22L34.9 85.53C35.06 85.69 35.25 85.82 35.45 85.9C35.65 85.99 35.87 86.03 36.11 86.03C36.58 86.03 36.98 85.86 37.32 85.53L43.67 79.22C43.9 78.99 44.05 78.72 44.13 78.4C44.2 78.09 44.19 77.78 44.09 77.48L40.49 66.77Z" fill="#8400FF" fill-opacity="1.000000" fill-rule="evenodd"/>
	<path id="Vector 2 (Border)" d="M39.74 67.52L40.49 66.77L44.09 77.48C44.19 77.78 44.2 78.09 44.13 78.4C44.05 78.72 43.9 78.99 43.67 79.22L37.32 85.53C36.98 85.86 36.58 86.03 36.11 86.03C35.87 86.03 35.65 85.99 35.45 85.9C35.25 85.82 35.06 85.69 34.9 85.53L28.54 79.22C28.43 79.1 28.33 78.98 28.26 78.84C28.18 78.71 28.12 78.56 28.09 78.4C28.01 78.09 28.03 77.78 28.13 77.48L31.72 66.77L32.47 67.52C32.97 68.01 33.53 68.39 34.17 68.65C34.79 68.89 35.44 69.02 36.11 69.02C36.46 69.02 36.8 68.99 37.13 68.92C37.44 68.86 37.74 68.76 38.04 68.65C38.68 68.39 39.25 68.01 39.74 67.52Z" fill="#F0E1FF" fill-opacity="1.000000" fill-rule="evenodd"/>
	<path id="Oval 6" d="M25.83 33.01C25.83 32.07 26.6 31.31 27.55 31.31C28.49 31.31 29.26 32.07 29.26 33.01C29.26 33.95 28.49 34.71 27.55 34.71C26.6 34.71 25.83 33.95 25.83 33.01Z" fill="#8400FF" fill-opacity="1.000000" fill-rule="evenodd"/>
	<path id="Oval 6 (Border)" d="M25.15 33.01C25.15 31.7 26.22 30.63 27.55 30.63C28.87 30.63 29.94 31.7 29.94 33.01C29.94 34.33 28.87 35.39 27.55 35.39C26.22 35.39 25.15 34.33 25.15 33.01ZM25.83 33.01C25.83 32.07 26.6 31.31 27.55 31.31C28.49 31.31 29.26 32.07 29.26 33.01C29.26 33.95 28.49 34.71 27.55 34.71C26.6 34.71 25.83 33.95 25.83 33.01Z" fill="#8400FF" fill-opacity="1.000000" fill-rule="evenodd"/>
	<path id="Oval 9" d="M42.95 33.01C42.95 32.07 43.72 31.31 44.67 31.31C45.61 31.31 46.38 32.07 46.38 33.01C46.38 33.95 45.61 34.71 44.67 34.71C43.72 34.71 42.95 33.95 42.95 33.01Z" fill="#8400FF" fill-opacity="1.000000" fill-rule="evenodd"/>
	<path id="Oval 9 (Border)" d="M42.27 33.01C42.27 31.7 43.34 30.63 44.67 30.63C45.99 30.63 47.06 31.7 47.06 33.01C47.06 34.33 45.99 35.39 44.67 35.39C43.34 35.39 42.27 34.33 42.27 33.01ZM42.96 33.01C42.96 32.07 43.72 31.31 44.67 31.31C45.61 31.31 46.38 32.07 46.38 33.01C46.38 33.95 45.61 34.71 44.67 34.71C43.72 34.71 42.96 33.95 42.96 33.01Z" fill="#8400FF" fill-opacity="1.000000" fill-rule="evenodd"/>
	<path id="Oval 8" d="M41.95 41.67C41.42 42.53 40.71 43.24 39.9 43.78C38.67 44.59 37.27 44.96 35.89 44.91C34.42 44.87 33.06 44.36 31.97 43.53C31.15 42.92 30.51 42.15 30.06 41.3C29.73 40.69 30.11 39.98 30.78 39.77C31.44 39.56 32.14 39.95 32.53 40.52C32.8 40.91 33.13 41.25 33.5 41.53C34.24 42.09 35.11 42.38 35.97 42.4C36.9 42.43 37.78 42.17 38.5 41.69C38.9 41.42 39.24 41.1 39.52 40.74C39.95 40.19 40.67 39.85 41.32 40.1C41.97 40.35 42.31 41.08 41.95 41.67Z" fill="#8400FF" fill-opacity="1.000000" fill-rule="evenodd"/>
	<path id="Oval 2" d="M65.17 55.17C65.57 58.23 67.01 61.18 69.47 63.43C71.76 65.52 74.77 66.86 78.12 67.01C81.23 67.15 84.4 66.25 87.06 64.23C89.53 62.36 91.38 59.64 92.11 56.4C92.79 53.38 92.45 50.12 90.91 47.17C89.48 44.42 87.11 42.14 84.02 40.87C81.15 39.67 77.86 39.44 74.66 40.44C71.69 41.36 69.02 43.28 67.22 46.09C65.54 48.69 64.74 51.87 65.17 55.17ZM78.21 64.94C75.58 64.82 72.98 63.81 70.89 61.9C68.95 60.13 67.6 57.7 67.24 54.9C66.9 52.3 67.44 49.58 68.98 47.21C70.4 45 72.58 43.26 75.29 42.42C77.8 41.64 80.6 41.7 83.21 42.78C85.65 43.79 87.75 45.62 89.05 48.12C90.27 50.45 90.69 53.19 90.07 55.94C89.5 58.5 88.05 60.87 85.79 62.58C83.7 64.17 81.05 65.07 78.21 64.94Z" fill="#000000" fill-opacity="1.000000" fill-rule="evenodd"/>
	<path id="Oval 2 (Border)" d="M67.37 61.6C67.92 62.35 68.54 63.04 69.24 63.68C69.9 64.29 70.61 64.82 71.35 65.28C71.96 65.65 72.6 65.98 73.27 66.26C73.95 66.55 74.64 66.78 75.35 66.96C76.25 67.18 77.17 67.31 78.1 67.35C78.99 67.39 79.86 67.35 80.72 67.23C81.44 67.13 82.15 66.97 82.86 66.76C83.56 66.55 84.24 66.28 84.89 65.97C85.72 65.56 86.51 65.08 87.27 64.5C87.97 63.97 88.61 63.38 89.2 62.74C89.68 62.2 90.13 61.63 90.53 61.02C90.93 60.4 91.27 59.77 91.57 59.11C91.95 58.27 92.24 57.39 92.44 56.47C92.64 55.61 92.75 54.75 92.78 53.89C92.81 53.17 92.77 52.44 92.68 51.72C92.59 50.99 92.45 50.29 92.25 49.59C91.99 48.71 91.65 47.85 91.21 47.01C90.81 46.23 90.33 45.5 89.8 44.82C89.35 44.25 88.86 43.72 88.32 43.22C87.78 42.72 87.22 42.27 86.61 41.87C85.84 41.35 85.02 40.91 84.15 40.55C83.33 40.21 82.5 39.95 81.65 39.77C80.94 39.63 80.21 39.53 79.48 39.49C78.75 39.45 78.02 39.47 77.3 39.55C76.38 39.64 75.46 39.83 74.56 40.11C73.71 40.38 72.91 40.71 72.14 41.12C71.5 41.46 70.88 41.85 70.3 42.28C69.71 42.72 69.16 43.2 68.66 43.72C68.02 44.38 67.44 45.11 66.93 45.9C66.45 46.64 66.05 47.42 65.72 48.22C65.45 48.89 65.23 49.58 65.07 50.29C64.9 51 64.79 51.71 64.74 52.43C64.68 53.35 64.71 54.28 64.83 55.21C64.94 56.08 65.13 56.92 65.4 57.73C65.62 58.43 65.9 59.1 66.24 59.76C66.57 60.4 66.95 61.02 67.37 61.6ZM71.73 64.71C71.01 64.27 70.33 63.76 69.7 63.18C69.03 62.57 68.44 61.91 67.92 61.19C67.52 60.64 67.16 60.06 66.85 59.45C66.53 58.83 66.27 58.2 66.06 57.55C65.8 56.77 65.62 55.96 65.51 55.12C65.39 54.23 65.36 53.34 65.43 52.46C65.48 51.79 65.58 51.11 65.73 50.44C65.89 49.77 66.09 49.13 66.35 48.5C66.66 47.73 67.04 46.98 67.51 46.27C67.99 45.51 68.55 44.82 69.16 44.18C69.64 43.69 70.15 43.24 70.71 42.83C71.26 42.42 71.83 42.05 72.43 41.73C73.17 41.34 73.95 41.02 74.76 40.76C75.63 40.49 76.5 40.31 77.38 40.22C78.07 40.15 78.75 40.14 79.44 40.17C80.13 40.21 80.81 40.3 81.48 40.43C82.3 40.61 83.1 40.85 83.89 41.18C84.72 41.53 85.51 41.95 86.24 42.44C86.81 42.82 87.35 43.25 87.85 43.72C88.36 44.18 88.82 44.68 89.24 45.21C89.76 45.87 90.21 46.57 90.6 47.33C91.02 48.12 91.35 48.95 91.6 49.8C91.78 50.45 91.92 51.12 92 51.8C92.09 52.48 92.12 53.16 92.1 53.84C92.07 54.67 91.96 55.5 91.78 56.32C91.58 57.2 91.3 58.04 90.94 58.85C90.66 59.47 90.33 60.07 89.95 60.65C89.58 61.22 89.16 61.76 88.71 62.26C88.15 62.88 87.53 63.45 86.85 63.96C86.13 64.51 85.37 64.98 84.57 65.36C83.96 65.66 83.32 65.91 82.66 66.11C82 66.31 81.33 66.46 80.66 66.55C79.83 66.67 78.99 66.71 78.13 66.67C77.24 66.63 76.36 66.5 75.5 66.29C74.83 66.13 74.18 65.91 73.53 65.64C72.9 65.37 72.3 65.06 71.73 64.71ZM69.14 60.49C69.59 61.08 70.09 61.64 70.66 62.15C71.25 62.7 71.89 63.17 72.57 63.58C73.09 63.9 73.64 64.17 74.22 64.41C74.8 64.64 75.4 64.83 76.01 64.98C76.72 65.14 77.45 65.24 78.2 65.28C79 65.31 79.8 65.27 80.58 65.15C81.19 65.06 81.79 64.92 82.38 64.73C82.98 64.54 83.56 64.31 84.11 64.03C84.77 63.7 85.4 63.31 86 62.85C86.64 62.37 87.22 61.83 87.74 61.24C88.15 60.78 88.52 60.29 88.85 59.76C89.18 59.24 89.47 58.69 89.72 58.13C90.01 57.45 90.24 56.75 90.4 56.02C90.58 55.24 90.68 54.46 90.7 53.67C90.71 53.06 90.67 52.44 90.59 51.83C90.5 51.21 90.37 50.61 90.2 50.02C89.98 49.32 89.7 48.63 89.36 47.97C88.99 47.26 88.56 46.6 88.06 45.98C87.67 45.51 87.25 45.06 86.79 44.64C86.32 44.22 85.83 43.84 85.32 43.51C84.7 43.1 84.04 42.76 83.35 42.47C82.6 42.16 81.84 41.93 81.07 41.78C80.46 41.66 79.85 41.59 79.22 41.56C78.6 41.54 77.98 41.56 77.36 41.63C76.63 41.72 75.9 41.87 75.18 42.1C74.41 42.33 73.68 42.64 72.99 43.02C72.45 43.31 71.93 43.65 71.44 44.03C70.94 44.41 70.48 44.83 70.06 45.27C69.55 45.81 69.09 46.39 68.69 47.02C68.25 47.7 67.89 48.4 67.61 49.13C67.38 49.7 67.21 50.29 67.07 50.9C66.94 51.5 66.86 52.12 66.82 52.73C66.78 53.46 66.8 54.2 66.9 54.94C67 55.73 67.18 56.49 67.43 57.23C67.63 57.82 67.88 58.39 68.17 58.94C68.46 59.49 68.78 60 69.14 60.49ZM72.93 63.01C72.29 62.62 71.68 62.17 71.12 61.65C70.59 61.17 70.11 60.64 69.69 60.07C69.35 59.62 69.04 59.13 68.78 58.63C68.5 58.11 68.27 57.57 68.08 57.03C67.85 56.33 67.68 55.6 67.58 54.86C67.49 54.15 67.46 53.44 67.51 52.74C67.54 52.17 67.62 51.6 67.74 51.04C67.87 50.47 68.03 49.92 68.24 49.39C68.51 48.7 68.85 48.03 69.27 47.39C69.65 46.79 70.09 46.23 70.58 45.72C70.97 45.31 71.4 44.92 71.86 44.57C72.32 44.21 72.8 43.9 73.31 43.62C73.96 43.26 74.66 42.97 75.39 42.75C76.07 42.53 76.77 42.38 77.47 42.3C78.04 42.24 78.62 42.22 79.2 42.24C79.78 42.26 80.36 42.33 80.92 42.44C81.66 42.59 82.38 42.8 83.08 43.1C83.75 43.37 84.37 43.7 84.96 44.09C85.44 44.4 85.9 44.76 86.33 45.14C86.76 45.53 87.16 45.95 87.52 46.4C87.99 46.98 88.4 47.61 88.75 48.28C89.08 48.92 89.35 49.57 89.55 50.24C89.71 50.79 89.83 51.35 89.91 51.92C89.99 52.49 90.02 53.07 90.01 53.64C90 54.39 89.9 55.13 89.74 55.87C89.58 56.57 89.36 57.24 89.08 57.88C88.85 58.41 88.58 58.91 88.27 59.4C87.96 59.89 87.61 60.35 87.23 60.78C86.74 61.34 86.19 61.85 85.58 62.31C85.01 62.75 84.41 63.12 83.78 63.44C83.26 63.69 82.73 63.91 82.18 64.08C81.62 64.26 81.06 64.39 80.49 64.48C79.75 64.59 78.99 64.63 78.23 64.6C77.52 64.56 76.82 64.47 76.14 64.31C75.57 64.17 75.02 64 74.48 63.78C73.94 63.56 73.42 63.3 72.93 63.01Z" fill="#000000" fill-opacity="1.000000" fill-rule="evenodd"/>
	<path id="Union" d="M79.76 47.4L79.76 52.42L84.81 52.42C84.9 52.42 84.98 52.43 85.06 52.45C85.11 52.46 85.16 52.47 85.21 52.49C85.27 52.52 85.33 52.55 85.38 52.59C85.44 52.62 85.49 52.66 85.53 52.71C85.58 52.75 85.62 52.8 85.65 52.85C85.69 52.91 85.72 52.97 85.75 53.03C85.77 53.08 85.78 53.12 85.79 53.17C85.81 53.25 85.82 53.34 85.82 53.42C85.82 53.51 85.81 53.59 85.79 53.67C85.78 53.72 85.77 53.77 85.75 53.81C85.72 53.88 85.69 53.94 85.65 53.99C85.62 54.04 85.58 54.09 85.53 54.13C85.49 54.18 85.44 54.22 85.38 54.25C85.33 54.29 85.27 54.32 85.21 54.35C85.16 54.37 85.11 54.38 85.06 54.4C84.98 54.42 84.9 54.43 84.81 54.43L79.76 54.43L79.76 59.45C79.76 59.53 79.75 59.61 79.73 59.7C79.72 59.74 79.7 59.79 79.68 59.84C79.66 59.9 79.62 59.96 79.59 60.01C79.55 60.07 79.51 60.11 79.47 60.16C79.42 60.2 79.37 60.24 79.32 60.28C79.27 60.32 79.21 60.35 79.14 60.37C79.1 60.39 79.05 60.41 79 60.42C78.92 60.44 78.83 60.45 78.75 60.45C78.66 60.45 78.58 60.44 78.5 60.42C78.45 60.41 78.4 60.39 78.35 60.37C78.29 60.35 78.23 60.32 78.18 60.28C78.12 60.24 78.08 60.2 78.03 60.16C77.98 60.11 77.94 60.07 77.91 60.01C77.87 59.96 77.84 59.9 77.81 59.84C77.79 59.79 77.78 59.74 77.77 59.7C77.75 59.61 77.74 59.53 77.74 59.45L77.74 54.43L72.68 54.43C72.6 54.43 72.51 54.42 72.43 54.4C72.38 54.38 72.34 54.37 72.29 54.35C72.23 54.32 72.17 54.29 72.11 54.25C72.06 54.22 72.01 54.18 71.97 54.13C71.92 54.09 71.88 54.04 71.85 53.99C71.81 53.93 71.78 53.88 71.75 53.81C71.73 53.77 71.71 53.72 71.7 53.67C71.68 53.59 71.67 53.51 71.67 53.42C71.67 53.34 71.68 53.25 71.7 53.17C71.71 53.12 71.73 53.08 71.75 53.03C71.78 52.97 71.81 52.91 71.85 52.85C71.88 52.8 71.92 52.75 71.97 52.71C72.01 52.66 72.06 52.62 72.11 52.59C72.17 52.55 72.23 52.52 72.29 52.49C72.34 52.47 72.38 52.46 72.43 52.45C72.51 52.43 72.6 52.42 72.68 52.42L77.74 52.42L77.74 47.4C77.74 47.31 77.75 47.23 77.77 47.15C77.78 47.1 77.79 47.05 77.81 47C77.84 46.94 77.87 46.88 77.91 46.83C77.94 46.78 77.98 46.73 78.03 46.68C78.08 46.64 78.12 46.6 78.18 46.56C78.23 46.53 78.29 46.5 78.35 46.47C78.4 46.45 78.45 46.43 78.5 46.42C78.58 46.4 78.66 46.39 78.75 46.39C78.83 46.39 78.92 46.4 79 46.42C79.05 46.43 79.1 46.45 79.14 46.47C79.21 46.5 79.27 46.53 79.32 46.56C79.37 46.6 79.42 46.64 79.47 46.68C79.51 46.73 79.55 46.78 79.59 46.83C79.62 46.88 79.66 46.94 79.68 47C79.7 47.05 79.72 47.1 79.73 47.15C79.75 47.23 79.76 47.31 79.76 47.4Z" fill="#000000" fill-opacity="1.000000" fill-rule="evenodd"/>
	<path id="Union (Border)" d="M80.27 51.91L80.27 47.4C80.27 47.38 80.23 47.04 80.23 47.02C80.2 46.95 80.08 46.66 80.04 46.58C79.98 46.53 79.71 46.22 79.65 46.17C79.59 46.14 79.22 45.95 79.16 45.94C79.06 45.91 78.86 45.88 78.75 45.88C78.73 45.89 78.39 45.92 78.37 45.93C78.29 45.96 78 46.07 77.93 46.11C77.87 46.17 77.56 46.44 77.51 46.5C77.49 46.56 77.29 46.93 77.28 46.99C77.26 47.09 77.22 47.29 77.22 47.4L77.22 51.91L72.68 51.91C72.66 51.91 72.33 51.95 72.31 51.95C72.23 51.98 71.94 52.09 71.87 52.14C71.81 52.19 71.49 52.46 71.45 52.53C71.42 52.58 71.23 52.95 71.22 53.01C71.19 53.11 71.16 53.31 71.16 53.42C71.16 53.44 71.2 53.77 71.2 53.79C71.24 53.87 71.35 54.16 71.39 54.23C71.45 54.29 71.72 54.6 71.78 54.65C71.84 54.67 72.21 54.87 72.27 54.88C72.37 54.9 72.58 54.94 72.68 54.94L77.22 54.94L77.22 59.45C77.23 59.47 77.26 59.8 77.27 59.82C77.3 59.9 77.41 60.19 77.46 60.26C77.51 60.31 77.78 60.63 77.85 60.67C77.91 60.7 78.27 60.89 78.33 60.91C78.44 60.93 78.64 60.96 78.75 60.96C78.77 60.96 79.1 60.92 79.12 60.92C79.2 60.88 79.5 60.77 79.57 60.73C79.62 60.67 79.94 60.4 79.98 60.34C80.01 60.28 80.2 59.92 80.22 59.86C80.24 59.75 80.27 59.55 80.27 59.45L80.27 54.94L84.81 54.94C84.83 54.93 85.17 54.9 85.19 54.89C85.27 54.86 85.56 54.75 85.63 54.7C85.69 54.65 86 54.38 86.05 54.32C86.07 54.26 86.27 53.89 86.28 53.83C86.3 53.73 86.34 53.53 86.34 53.42C86.33 53.4 86.3 53.07 86.29 53.05C86.26 52.97 86.15 52.68 86.1 52.61C86.05 52.55 85.78 52.24 85.71 52.19C85.65 52.17 85.29 51.98 85.22 51.96C85.12 51.94 84.92 51.91 84.81 51.91L80.27 51.91ZM79.25 47.4L79.25 52.93L84.81 52.93C84.84 52.94 85.14 53.05 85.17 53.07C85.18 53.11 85.31 53.38 85.31 53.42C85.29 53.45 85.19 53.75 85.17 53.77C85.13 53.78 84.86 53.92 84.81 53.92L79.25 53.92L79.25 59.45C79.23 59.47 79.13 59.78 79.1 59.8C79.06 59.81 78.79 59.94 78.75 59.94C78.72 59.92 78.42 59.82 78.39 59.8C78.38 59.76 78.25 59.49 78.25 59.45L78.25 53.92L72.68 53.92C72.66 53.9 72.35 53.8 72.33 53.77C72.32 53.73 72.19 53.47 72.19 53.42C72.2 53.4 72.31 53.09 72.33 53.07C72.37 53.06 72.64 52.93 72.68 52.93L78.25 52.93L78.25 47.4C78.27 47.37 78.37 47.07 78.39 47.04C78.43 47.03 78.7 46.9 78.75 46.9C78.77 46.92 79.08 47.02 79.1 47.04C79.13 47.07 79.23 47.37 79.25 47.4Z" fill="#000000" fill-opacity="1.000000" fill-rule="evenodd"/>
</svg>
