<svg width="287.000000" height="60.000000" viewBox="0 0 287 60" fill="none" xmlns="http://www.w3.org/2000/svg" xmlns:xlink="http://www.w3.org/1999/xlink">
	<desc>
			Created with Pixso.
	</desc>
	<defs>
		<clipPath id="clip39_1">
			<rect id="learnlinklogo" width="60.000000" height="60.000000" fill="white" fill-opacity="0"/>
		</clipPath>
	</defs>
	<path id="Умный курс" d="M161.22 13.51Q162.26 14.69 164.64 14.69Q167.05 14.69 168.1 13.5Q168.9 12.59 168.91 10.97L166.42 10.97Q166.42 11.7 166.06 12.15Q166.01 12.22 165.95 12.28Q165.91 12.32 165.87 12.35Q165.41 12.75 164.62 12.75Q163.83 12.75 163.39 12.36Q163.35 12.32 163.31 12.28Q163.29 12.26 163.27 12.23Q162.87 11.77 162.84 10.97L160.39 10.97Q160.4 12.6 161.22 13.51ZM93.1 25.49L100.25 12.2L96.44 12.2L91.83 21.22L87.36 12.2L83.21 12.2L89.83 24.53L89.69 24.72Q89.21 25.47 88.63 25.82Q88.49 25.91 88.33 25.97Q87.88 26.16 87.34 26.16Q86.67 26.16 85.66 25.85L84.72 28.8Q86.14 29.38 87.46 29.38Q88.18 29.38 88.86 29.2Q89.78 28.96 90.61 28.4Q92.07 27.41 93.1 25.49ZM221.57 16.37Q220.39 15.89 219.02 15.89Q216.99 15.89 215.7 16.87Q215.3 17.17 214.97 17.57L214.97 16.08L211.39 16.08L211.39 33.65L215.14 33.65L215.14 27.63Q215.52 28.05 215.97 28.35Q217.22 29.19 219.02 29.19Q220.39 29.19 221.57 28.71Q221.94 28.56 222.3 28.36Q222.97 27.98 223.51 27.47Q224.16 26.85 224.61 26.03Q225.46 24.53 225.46 22.54Q225.46 20.55 224.61 19.05Q224.15 18.22 223.49 17.6Q222.96 17.09 222.3 16.72Q221.94 16.52 221.57 16.37ZM230.65 28.41Q232.24 29.19 234.22 29.19Q236.26 29.19 237.78 28.33Q238.7 27.81 239.32 27.04Q239.73 26.54 240 25.92L237.1 24.34Q236.55 25.32 235.72 25.76Q235.05 26.11 234.2 26.11Q233.27 26.11 232.54 25.73Q232.12 25.51 231.77 25.16Q231.6 24.98 231.46 24.79Q230.81 23.9 230.81 22.54Q230.81 21.19 231.45 20.3Q231.59 20.1 231.77 19.92Q232.13 19.57 232.56 19.34Q233.28 18.96 234.2 18.96Q235 18.96 235.65 19.29Q236.52 19.72 237.1 20.74L240 19.18Q239.67 18.41 239.13 17.81Q238.57 17.18 237.78 16.74Q236.26 15.89 234.22 15.89Q232.24 15.89 230.65 16.67Q230.58 16.71 230.51 16.74Q229.44 17.3 228.67 18.13Q228.26 18.58 227.94 19.1Q227.73 19.44 227.58 19.8Q227.02 21.04 227.02 22.54Q227.02 24.03 227.58 25.28Q227.73 25.63 227.94 25.97Q228.26 26.49 228.66 26.93Q229.43 27.78 230.51 28.34Q230.58 28.37 230.65 28.41ZM113.93 21.27L113.93 29L117.31 29L117.27 16.08L113.76 16.08L109.37 23.55L105.24 16.08L101.33 16.08L101.33 29L104.72 29L104.72 21.24L108.48 27.75L110.07 27.75L113.93 21.27ZM124.61 16.08L120.89 16.08L120.89 29L124.61 29L124.61 24.17L130.23 24.17L130.23 29L133.97 29L133.97 16.08L130.23 16.08L130.23 21.13L124.61 21.13L124.61 16.08ZM148.15 21.34Q146.86 20.24 144.34 20.21L141.27 20.21L141.27 16.08L137.55 16.08L137.55 29L143.83 29.02Q146.52 29.02 147.99 27.85Q148.45 27.47 148.77 27Q149.45 25.98 149.45 24.51Q149.45 22.94 148.71 21.93Q148.47 21.61 148.15 21.34ZM154.56 16.08L150.84 16.08L150.84 29L154.56 29L154.56 16.08ZM161.88 16.08L158.16 16.08L158.16 29L161.62 29L167.88 21.31L167.88 29L171.6 29L171.6 16.08L168.17 16.08L161.88 23.76L161.88 16.08ZM185.74 24.1L187.68 24.1L191.14 29L195.55 29L190.73 22.27L195.02 16.39L200.48 29.09L200.43 29.21Q200.05 30.07 199.57 30.44Q199.56 30.45 199.55 30.45Q199.08 30.82 198.32 30.82Q197.77 30.82 197.2 30.6Q196.75 30.43 196.39 30.16Q196.3 30.08 196.21 30L194.84 32.67Q195.46 33.22 196.44 33.53Q197.19 33.77 197.94 33.82Q198.19 33.84 198.43 33.84Q200.08 33.84 201.3 33.12Q201.45 33.03 201.59 32.93Q202.9 32.02 203.79 29.79L209.62 16.08L206.02 16.08L202.37 24.84L198.75 16.08L191.26 16.08L187.75 21.1L185.74 21.1L185.74 16.08L181.99 16.08L181.99 29L185.74 29L185.74 24.1ZM219.97 25.74Q219.28 26.11 218.38 26.11Q217.49 26.11 216.79 25.74Q216.36 25.51 216.01 25.15Q215.87 24.99 215.75 24.82Q215.09 23.92 215.09 22.54Q215.09 21.17 215.74 20.27Q215.86 20.09 216.01 19.94Q216.37 19.56 216.81 19.33Q217.5 18.96 218.38 18.96Q219.27 18.96 219.96 19.33Q220.39 19.56 220.74 19.94Q220.9 20.1 221.03 20.29Q221.67 21.19 221.67 22.54Q221.67 23.9 221.02 24.81Q220.89 24.99 220.74 25.15Q220.39 25.51 219.97 25.74ZM145.15 25.9Q144.58 26.38 143.5 26.35L141.27 26.35L141.27 22.61L143.5 22.64Q144.6 22.66 145.16 23.09Q145.27 23.17 145.35 23.27Q145.73 23.69 145.73 24.46Q145.73 25.24 145.35 25.71Q145.26 25.81 145.15 25.9Z" fill="#FFFFFF" fill-opacity="1.000000" fill-rule="evenodd"/>
	<path id="Маркетплейс цифровых курсов" d="M199.08 50.52Q199.54 49.8 199.54 48.8Q199.54 47.82 199.09 47.12Q198.87 46.78 198.55 46.5Q197.57 45.67 195.78 45.58L195.78 43.09L194.65 43.09L194.65 45.58Q192.85 45.67 191.88 46.5Q191.59 46.75 191.38 47.06Q190.91 47.77 190.91 48.8Q190.91 49.84 191.38 50.57Q191.59 50.88 191.89 51.14Q192.86 51.98 194.65 52.08L194.65 54.32L195.78 54.32L195.78 52.08Q197.57 51.98 198.55 51.13Q198.87 50.86 199.08 50.52ZM158.09 44.38Q158.58 44.81 159.47 44.81Q160.34 44.81 160.85 44.38Q160.96 44.29 161.05 44.17Q161.35 43.78 161.36 43.15L160.56 43.15Q160.55 43.44 160.42 43.66Q160.35 43.77 160.24 43.87Q160.2 43.9 160.16 43.93Q159.88 44.13 159.45 44.13Q159.02 44.13 158.75 43.93Q158.71 43.9 158.67 43.87Q158.58 43.78 158.51 43.68Q158.37 43.45 158.36 43.15L157.58 43.15Q157.59 43.8 157.92 44.21Q157.99 44.3 158.09 44.38ZM94.08 45.87L94.09 52L95.24 52L95.23 43.6L94.25 43.6L90.79 49.5L87.29 43.6L86.3 43.6L86.3 52L87.46 52L87.46 45.91L90.49 50.98L91.04 50.98L94.08 45.87ZM101.96 46.22Q101.26 45.58 99.93 45.58Q99.17 45.58 98.48 45.79Q97.8 46 97.31 46.39L97.79 47.25Q98.16 46.94 98.7 46.76Q99.06 46.63 99.44 46.59Q99.62 46.57 99.8 46.57Q100.64 46.57 101.07 46.97Q101.15 47.03 101.2 47.1Q101.51 47.48 101.51 48.11L101.51 48.34L99.68 48.34Q98.35 48.34 97.74 48.85Q97.48 49.06 97.33 49.34Q97.13 49.71 97.13 50.2Q97.13 50.63 97.3 50.98Q97.46 51.3 97.77 51.55Q98.41 52.07 99.48 52.07Q100.21 52.07 100.74 51.83Q101.17 51.65 101.44 51.33Q101.51 51.25 101.57 51.15L101.57 52L102.66 52L102.66 48.15Q102.66 46.99 102.08 46.35Q102.02 46.28 101.96 46.22ZM109.57 45.88Q108.91 45.58 108.11 45.58Q107.41 45.58 106.84 45.83Q106.82 45.84 106.81 45.85Q106.54 45.97 106.32 46.15Q106.05 46.36 105.84 46.64L105.84 45.63L104.74 45.63L104.74 54.32L105.89 54.32L105.89 51.03Q106.12 51.33 106.42 51.55Q106.62 51.7 106.85 51.8Q106.88 51.82 106.91 51.83Q107.46 52.07 108.11 52.07Q108.91 52.07 109.57 51.76Q109.67 51.71 109.76 51.66Q110.11 51.47 110.39 51.2Q110.69 50.9 110.91 50.51Q110.92 50.48 110.94 50.46Q111.32 49.74 111.32 48.82Q111.32 47.87 110.92 47.14Q110.91 47.13 110.91 47.12Q110.7 46.75 110.4 46.46Q110.12 46.18 109.76 45.98Q109.67 45.93 109.57 45.88ZM125.68 49.2Q125.7 48.98 125.7 48.85Q125.7 47.9 125.3 47.16Q125.3 47.15 125.3 47.15Q125.06 46.71 124.72 46.39Q124.48 46.16 124.18 45.99Q124.08 45.93 123.98 45.88Q123.34 45.58 122.56 45.58Q121.79 45.58 121.16 45.86Q121.04 45.92 120.92 45.99Q120.61 46.16 120.36 46.39Q120.02 46.72 119.78 47.15Q119.7 47.28 119.64 47.41Q119.36 48.05 119.36 48.82Q119.36 49.58 119.65 50.22Q119.71 50.36 119.79 50.5Q119.96 50.8 120.19 51.04Q120.53 51.41 120.99 51.66Q121.77 52.07 122.78 52.07Q123.58 52.07 124.22 51.8Q124.68 51.61 125.03 51.3Q125.17 51.18 125.29 51.03L124.65 50.29Q124.4 50.57 124.1 50.74Q123.55 51.06 122.82 51.06Q122.06 51.06 121.5 50.72Q121.37 50.65 121.25 50.55Q120.98 50.33 120.81 50.05Q120.58 49.68 120.51 49.2L125.68 49.2ZM154.68 49.2Q154.7 48.98 154.7 48.85Q154.7 47.9 154.31 47.16Q154.3 47.15 154.3 47.15Q154.07 46.71 153.73 46.39Q153.48 46.16 153.18 45.99Q153.09 45.93 152.98 45.88Q152.35 45.58 151.56 45.58Q150.8 45.58 150.17 45.86Q150.04 45.92 149.92 45.99Q149.62 46.16 149.37 46.39Q149.02 46.72 148.78 47.15Q148.71 47.28 148.65 47.41Q148.37 48.05 148.37 48.82Q148.37 49.58 148.65 50.22Q148.72 50.36 148.79 50.5Q148.97 50.8 149.2 51.04Q149.53 51.41 150 51.66Q150.78 52.07 151.78 52.07Q152.58 52.07 153.22 51.8Q153.68 51.61 154.03 51.3Q154.17 51.18 154.29 51.03L153.66 50.29Q153.41 50.57 153.1 50.74Q152.55 51.06 151.82 51.06Q151.06 51.06 150.5 50.72Q150.37 50.65 150.26 50.55Q149.99 50.33 149.81 50.05Q149.58 49.68 149.52 49.2L154.68 49.2ZM165.96 51.7Q166.68 52.07 167.59 52.07Q168.46 52.07 169.13 51.71Q169.5 51.52 169.78 51.24Q170.01 51 170.18 50.7L169.31 50.15Q169.05 50.53 168.7 50.75Q168.63 50.8 168.56 50.83Q168.49 50.87 168.42 50.9Q168.04 51.06 167.58 51.06Q167.04 51.06 166.6 50.86Q166.53 50.82 166.46 50.79Q166.25 50.67 166.07 50.51Q165.84 50.29 165.68 50Q165.39 49.49 165.39 48.82Q165.39 48.16 165.67 47.66Q165.67 47.65 165.68 47.64Q165.84 47.35 166.08 47.13Q166.25 46.97 166.46 46.86Q166.53 46.82 166.6 46.79Q167.04 46.58 167.58 46.58Q168.04 46.58 168.42 46.75Q168.49 46.78 168.56 46.81Q168.63 46.85 168.7 46.89Q169.05 47.11 169.31 47.5L170.18 46.93Q170.01 46.61 169.76 46.37Q169.49 46.11 169.13 45.92Q168.46 45.58 167.59 45.58Q166.66 45.58 165.93 45.95Q165.89 45.97 165.86 45.99Q165.44 46.21 165.13 46.53Q164.86 46.8 164.66 47.14Q164.59 47.27 164.53 47.4Q164.23 48.04 164.23 48.82Q164.23 49.58 164.52 50.22Q164.58 50.36 164.66 50.49Q164.85 50.81 165.11 51.08Q165.43 51.41 165.86 51.65Q165.91 51.68 165.96 51.7ZM206 45.88Q205.34 45.58 204.54 45.58Q203.85 45.58 203.27 45.83Q203.25 45.84 203.24 45.85Q202.97 45.97 202.75 46.15Q202.48 46.36 202.27 46.64L202.27 45.63L201.17 45.63L201.17 54.32L202.32 54.32L202.32 51.03Q202.55 51.33 202.85 51.55Q203.05 51.7 203.28 51.8Q203.31 51.82 203.34 51.83Q203.89 52.07 204.54 52.07Q205.34 52.07 206 51.76Q206.1 51.71 206.2 51.66Q206.54 51.47 206.82 51.2Q207.12 50.9 207.34 50.51Q207.36 50.48 207.37 50.46Q207.75 49.74 207.75 48.82Q207.75 47.87 207.35 47.14Q207.35 47.13 207.34 47.12Q207.13 46.75 206.83 46.46Q206.55 46.18 206.2 45.98Q206.1 45.93 206 45.88ZM210.66 51.76Q211.33 52.07 212.15 52.07Q212.97 52.07 213.64 51.75Q213.75 51.7 213.84 51.65Q214.25 51.42 214.56 51.11Q214.82 50.83 215.02 50.49Q215.09 50.36 215.15 50.23Q215.45 49.59 215.45 48.82Q215.45 48.03 215.15 47.38Q215.09 47.26 215.02 47.14Q214.81 46.78 214.53 46.5Q214.23 46.2 213.84 45.99Q213.76 45.94 213.67 45.9Q212.99 45.58 212.15 45.58Q211.31 45.58 210.62 45.9Q210.53 45.94 210.44 45.99Q210.04 46.21 209.73 46.52Q209.46 46.8 209.26 47.14Q209.2 47.25 209.14 47.37Q208.83 48.02 208.83 48.82Q208.83 49.6 209.13 50.24Q209.19 50.37 209.26 50.49Q209.45 50.82 209.71 51.09Q210.03 51.42 210.44 51.65Q210.55 51.71 210.66 51.76ZM262.39 45.88Q261.73 45.58 260.93 45.58Q260.23 45.58 259.66 45.83Q259.64 45.84 259.63 45.85Q259.36 45.97 259.14 46.15Q258.87 46.36 258.66 46.64L258.66 45.63L257.56 45.63L257.56 54.32L258.71 54.32L258.71 51.03Q258.94 51.33 259.24 51.55Q259.44 51.7 259.67 51.8Q259.7 51.82 259.73 51.83Q260.28 52.07 260.93 52.07Q261.73 52.07 262.39 51.76Q262.49 51.71 262.58 51.66Q262.93 51.47 263.21 51.2Q263.51 50.9 263.73 50.51Q263.74 50.48 263.76 50.46Q264.14 49.74 264.14 48.82Q264.14 47.87 263.74 47.14Q263.73 47.13 263.73 47.12Q263.52 46.75 263.22 46.46Q262.94 46.18 262.58 45.98Q262.49 45.93 262.39 45.88ZM266.95 51.7Q267.68 52.07 268.58 52.07Q269.45 52.07 270.12 51.71Q270.49 51.52 270.77 51.24Q271 51 271.18 50.7L270.3 50.15Q270.05 50.53 269.69 50.75Q269.62 50.8 269.55 50.83Q269.49 50.87 269.41 50.9Q269.03 51.06 268.57 51.06Q268.04 51.06 267.59 50.86Q267.52 50.82 267.45 50.79Q267.24 50.67 267.07 50.51Q266.83 50.29 266.67 50Q266.39 49.49 266.39 48.82Q266.39 48.16 266.66 47.66Q266.66 47.65 266.67 47.64Q266.83 47.35 267.07 47.13Q267.24 46.97 267.45 46.86Q267.52 46.82 267.59 46.79Q268.04 46.58 268.57 46.58Q269.03 46.58 269.41 46.75Q269.49 46.78 269.55 46.81Q269.62 46.85 269.69 46.89Q270.04 47.11 270.3 47.5L271.18 46.93Q271 46.61 270.75 46.37Q270.48 46.11 270.12 45.92Q269.45 45.58 268.58 45.58Q267.66 45.58 266.92 45.95Q266.88 45.97 266.85 45.99Q266.44 46.21 266.12 46.53Q265.85 46.8 265.65 47.14Q265.58 47.27 265.52 47.4Q265.22 48.04 265.22 48.82Q265.22 49.58 265.51 50.22Q265.57 50.36 265.65 50.49Q265.84 50.81 266.1 51.08Q266.42 51.41 266.85 51.65Q266.9 51.68 266.95 51.7ZM273.8 51.76Q274.47 52.07 275.29 52.07Q276.11 52.07 276.79 51.75Q276.89 51.7 276.99 51.65Q277.39 51.42 277.7 51.11Q277.97 50.83 278.16 50.49Q278.24 50.36 278.3 50.23Q278.59 49.59 278.59 48.82Q278.59 48.03 278.29 47.38Q278.23 47.26 278.16 47.14Q277.96 46.78 277.68 46.5Q277.38 46.2 276.99 45.99Q276.9 45.94 276.82 45.9Q276.13 45.58 275.29 45.58Q274.45 45.58 273.77 45.9Q273.68 45.94 273.59 45.99Q273.18 46.21 272.88 46.52Q272.6 46.8 272.4 47.14Q272.34 47.25 272.28 47.37Q271.98 48.02 271.98 48.82Q271.98 49.6 272.28 50.24Q272.33 50.37 272.4 50.49Q272.6 50.82 272.85 51.09Q273.17 51.42 273.59 51.65Q273.69 51.71 273.8 51.76ZM114.14 49.31L115.46 49.31L117.6 52L118.96 52L116.38 48.7L118.79 45.63L117.55 45.63L115.49 48.32L114.14 48.32L114.14 45.63L112.99 45.63L112.99 52L114.14 52L114.14 49.31ZM129.63 46.64L131.96 46.64L131.96 45.63L126.15 45.63L126.15 46.64L128.48 46.64L128.48 52L129.63 52L129.63 46.64ZM139.03 52L139.03 45.63L133.14 45.63L133.14 52L134.29 52L134.29 46.64L137.88 46.64L137.88 52L139.03 52ZM146.72 52L146.72 45.63L141.84 45.63L141.73 47.99Q141.67 49.05 141.6 49.63Q141.53 50.21 141.29 50.63Q141.17 50.84 140.98 50.94Q140.8 51.05 140.57 51.05Q140.43 51.05 140.28 51.01L140.21 51.98Q140.6 52.09 140.92 52.09Q141.31 52.09 141.61 51.92Q141.82 51.79 141.98 51.58Q142.37 51.06 142.53 50.2Q142.7 49.34 142.76 48.06L142.84 46.64L145.57 46.64L145.57 52L146.72 52ZM157.64 45.63L156.49 45.63L156.49 52L157.55 52L161.43 47.36L161.43 52L162.59 52L162.59 45.63L161.54 45.63L157.64 50.27L157.64 45.63ZM181.69 53.52L181.69 50.99L180.68 50.99L180.68 45.63L179.53 45.63L179.53 50.99L176.05 50.99L176.05 45.63L174.9 45.63L174.9 52L180.6 52L180.6 53.52L181.69 53.52ZM184.33 45.63L183.18 45.63L183.18 52L184.23 52L188.12 47.36L188.12 52L189.28 52L189.28 45.63L188.23 45.63L184.33 50.27L184.33 45.63ZM222.4 49.27Q222.09 48.86 221.45 48.7Q221.88 48.52 222.14 48.21Q222.17 48.17 222.2 48.14Q222.27 48.04 222.32 47.94Q222.47 47.64 222.47 47.27Q222.47 46.86 222.3 46.55Q222.14 46.27 221.83 46.06Q221.2 45.63 220.07 45.63L217.12 45.63L217.12 52L220.17 52Q221.42 52 222.05 51.54Q222.31 51.36 222.46 51.11Q222.68 50.74 222.68 50.24Q222.68 49.65 222.4 49.27ZM229.19 48.35Q228.55 47.81 227.35 47.79L225.64 47.78L225.64 45.63L224.48 45.63L224.48 52L227.16 52.01Q228.44 52.02 229.13 51.46Q229.34 51.29 229.49 51.08Q229.82 50.59 229.82 49.87Q229.82 49.16 229.49 48.68Q229.36 48.5 229.19 48.35ZM231.92 45.63L230.77 45.63L230.77 52L231.92 52L231.92 45.63ZM236.3 49.56L238.14 52L239.45 52L236.92 48.74L239.32 45.63L238.06 45.63L236.32 47.93L234.57 45.63L233.28 45.63L235.67 48.74L233.16 52L234.45 52L236.3 49.56ZM245.04 49.31L246.36 49.31L248.5 52L249.85 52L247.27 48.7L249.65 45.67L252.44 51.98L252.24 52.43Q252.01 52.97 251.73 53.19Q251.68 53.22 251.64 53.25Q251.38 53.41 251.03 53.41Q250.76 53.41 250.52 53.33Q250.18 53.22 249.89 52.94L249.4 53.81Q249.68 54.1 250.12 54.25Q250.3 54.31 250.48 54.34Q250.75 54.39 251.03 54.39Q251.67 54.39 252.15 54.12Q252.25 54.07 252.34 54Q252.89 53.6 253.3 52.63L256.38 45.63L255.25 45.63L253.06 50.72L250.84 45.63L248.45 45.63L246.38 48.32L245.04 48.32L245.04 45.63L243.89 45.63L243.89 52L245.04 52L245.04 49.31ZM285.54 49.27Q285.23 48.86 284.59 48.7Q285.02 48.52 285.28 48.21Q285.31 48.17 285.34 48.14Q285.41 48.04 285.46 47.94Q285.61 47.64 285.61 47.27Q285.61 46.86 285.44 46.55Q285.28 46.27 284.98 46.06Q284.34 45.63 283.21 45.63L280.26 45.63L280.26 52L283.32 52Q284.57 52 285.2 51.54Q285.45 51.36 285.6 51.11Q285.83 50.74 285.83 50.24Q285.83 49.65 285.54 49.27ZM219.97 48.37L218.24 48.37L218.24 46.52L219.97 46.52Q220.89 46.52 221.18 46.95Q221.32 47.15 221.32 47.44Q221.32 47.71 221.2 47.9Q221.11 48.03 220.97 48.13Q220.63 48.37 219.97 48.37ZM283.12 48.37L281.39 48.37L281.39 46.52L283.12 46.52Q284.04 46.52 284.33 46.95Q284.46 47.15 284.46 47.44Q284.46 47.71 284.34 47.9Q284.26 48.03 284.12 48.13Q283.78 48.37 283.12 48.37ZM121.55 46.78Q121.99 46.55 122.56 46.55Q123.1 46.55 123.53 46.77Q123.75 46.89 123.94 47.06Q124.14 47.24 124.29 47.47Q124.53 47.86 124.6 48.37L120.51 48.37Q120.58 47.81 120.86 47.4Q120.99 47.21 121.17 47.05Q121.34 46.89 121.55 46.78ZM150.55 46.78Q150.99 46.55 151.56 46.55Q152.11 46.55 152.54 46.77Q152.75 46.89 152.94 47.06Q153.15 47.24 153.29 47.47Q153.54 47.86 153.6 48.37L149.52 48.37Q149.58 47.81 149.87 47.4Q150 47.21 150.17 47.05Q150.35 46.89 150.55 46.78ZM108.92 50.87Q108.51 51.06 108.01 51.06Q107.58 51.06 107.21 50.92Q107.06 50.86 106.92 50.78Q106.7 50.66 106.53 50.49Q106.31 50.27 106.15 49.99Q105.88 49.48 105.88 48.82Q105.88 48.15 106.16 47.65Q106.32 47.35 106.56 47.13Q106.73 46.98 106.92 46.87Q107.05 46.79 107.18 46.74Q107.56 46.58 108.01 46.58Q108.53 46.58 108.95 46.78Q109.03 46.82 109.11 46.86Q109.29 46.96 109.44 47.09Q109.7 47.32 109.88 47.64Q109.88 47.65 109.89 47.66Q110.16 48.16 110.16 48.82Q110.16 49.46 109.89 49.96Q109.89 49.97 109.88 49.99Q109.7 50.3 109.45 50.53Q109.3 50.67 109.11 50.78Q109.02 50.83 108.92 50.87ZM205.35 50.87Q204.94 51.06 204.44 51.06Q204.01 51.06 203.64 50.92Q203.49 50.86 203.35 50.78Q203.14 50.66 202.96 50.49Q202.74 50.27 202.58 49.99Q202.31 49.48 202.31 48.82Q202.31 48.15 202.59 47.65Q202.76 47.35 203 47.13Q203.16 46.98 203.36 46.87Q203.48 46.79 203.61 46.74Q204 46.58 204.44 46.58Q204.96 46.58 205.38 46.78Q205.46 46.82 205.54 46.86Q205.72 46.96 205.87 47.09Q206.13 47.32 206.31 47.64Q206.31 47.65 206.32 47.66Q206.59 48.16 206.59 48.82Q206.59 49.46 206.33 49.96Q206.32 49.97 206.31 49.99Q206.14 50.3 205.88 50.53Q205.73 50.67 205.54 50.78Q205.45 50.83 205.35 50.87ZM213.04 50.88Q212.63 51.06 212.15 51.06Q211.65 51.06 211.24 50.87Q211.14 50.83 211.05 50.78Q210.87 50.67 210.72 50.54Q210.46 50.31 210.28 49.99Q210.27 49.97 210.26 49.96Q210 49.46 210 48.82Q210 48.16 210.27 47.66Q210.28 47.65 210.28 47.64Q210.46 47.31 210.73 47.08Q210.88 46.96 211.05 46.86Q211.13 46.82 211.21 46.78Q211.63 46.58 212.15 46.58Q212.65 46.58 213.07 46.77Q213.16 46.81 213.24 46.86Q213.43 46.96 213.59 47.1Q213.84 47.33 214.01 47.64Q214.28 48.15 214.28 48.82Q214.28 49.47 214.01 49.97Q214.01 49.98 214.01 49.99Q213.84 50.29 213.6 50.51Q213.44 50.66 213.24 50.78Q213.14 50.84 213.04 50.88ZM261.74 50.87Q261.33 51.06 260.83 51.06Q260.4 51.06 260.03 50.92Q259.88 50.86 259.74 50.78Q259.52 50.66 259.35 50.49Q259.13 50.27 258.97 49.99Q258.7 49.48 258.7 48.82Q258.7 48.15 258.98 47.65Q259.14 47.35 259.38 47.13Q259.55 46.98 259.74 46.87Q259.87 46.79 260 46.74Q260.38 46.58 260.83 46.58Q261.35 46.58 261.77 46.78Q261.85 46.82 261.93 46.86Q262.11 46.96 262.26 47.09Q262.52 47.32 262.7 47.64Q262.7 47.65 262.71 47.66Q262.98 48.16 262.98 48.82Q262.98 49.46 262.71 49.96Q262.71 49.97 262.7 49.99Q262.52 50.3 262.27 50.53Q262.12 50.67 261.93 50.78Q261.84 50.83 261.74 50.87ZM276.18 50.88Q275.78 51.06 275.29 51.06Q274.79 51.06 274.38 50.87Q274.29 50.83 274.19 50.78Q274.01 50.67 273.86 50.54Q273.6 50.31 273.42 49.99Q273.42 49.97 273.41 49.96Q273.14 49.46 273.14 48.82Q273.14 48.16 273.42 47.66Q273.42 47.65 273.42 47.64Q273.61 47.31 273.88 47.08Q274.02 46.96 274.19 46.86Q274.27 46.82 274.35 46.78Q274.78 46.58 275.29 46.58Q275.79 46.58 276.21 46.77Q276.3 46.81 276.39 46.86Q276.57 46.96 276.73 47.1Q276.98 47.33 277.15 47.64Q277.43 48.15 277.43 48.82Q277.43 49.47 277.16 49.97Q277.15 49.98 277.15 49.99Q276.99 50.29 276.75 50.51Q276.58 50.66 276.39 50.78Q276.29 50.84 276.18 50.88ZM192.39 50.05Q192.05 49.55 192.05 48.8Q192.05 48.09 192.37 47.6Q192.51 47.41 192.69 47.24Q193.34 46.68 194.65 46.6L194.65 51.06Q193.36 50.98 192.7 50.4Q192.52 50.24 192.39 50.05ZM198.03 50.08Q197.42 50.94 195.78 51.07L195.78 46.6Q197.07 46.68 197.73 47.24Q197.93 47.4 198.06 47.6Q198.4 48.09 198.4 48.8Q198.4 49.57 198.03 50.08ZM228.26 50.82Q227.86 51.14 227.08 51.13L225.64 51.12L225.64 48.62L227.08 48.65Q227.87 48.66 228.26 48.95Q228.35 49.01 228.42 49.09Q228.66 49.37 228.66 49.86Q228.66 50.35 228.42 50.65Q228.35 50.74 228.26 50.82ZM100.81 50.88Q100.33 51.18 99.67 51.18Q99.01 51.18 98.64 50.9Q98.47 50.78 98.38 50.61Q98.27 50.41 98.27 50.15Q98.27 49.84 98.41 49.63Q98.72 49.16 99.73 49.16L101.51 49.16L101.51 50.05Q101.38 50.37 101.16 50.6Q101.01 50.77 100.81 50.88ZM221.17 50.88Q220.81 51.11 220.09 51.11L218.24 51.11L218.24 49.2L220.16 49.2Q220.87 49.2 221.2 49.44Q221.29 49.51 221.36 49.59Q221.53 49.82 221.53 50.17Q221.53 50.47 221.39 50.67Q221.31 50.79 221.17 50.88ZM284.31 50.88Q283.95 51.11 283.24 51.11L281.39 51.11L281.39 49.2L283.31 49.2Q284.01 49.2 284.34 49.44Q284.44 49.51 284.5 49.59Q284.67 49.82 284.67 50.17Q284.67 50.47 284.53 50.67Q284.45 50.79 284.31 50.88Z" fill="#FFFFFF" fill-opacity="1.000000" fill-rule="evenodd"/>
	<g clip-path="url(#clip39_1)">
		<rect id="rect" rx="29.999996" width="60.000000" height="59.999992" fill="#FFFFFF" fill-opacity="1.000000"/>
		<ellipse id="circle" cx="29.249298" cy="27.249237" rx="13.749241" ry="13.749239" fill="#A269FF" fill-opacity="0.219608"/>
		<ellipse id="circle" cx="29.000000" cy="27.000000" rx="10.500000" ry="10.499999" fill="#A269FF" fill-opacity="1.000000"/>
		<circle id="circle" cx="29.015137" cy="27.015198" r="8.015152" fill="#FFFFFF" fill-opacity="1.000000"/>
		<rect id="rect" x="25.512085" y="43.600647" rx="1.374924" width="2.749847" height="6.416309" fill="#3D0697" fill-opacity="1.000000"/>
		<path id="path" d="M15.2 15.23C12.62 18.27 11.18 21.95 10.9 25.71C10.55 30.26 11.9 34.55 14.41 37.96C17.11 41.63 20.93 44.01 25.06 44.96C29.5 45.98 33.94 45.3 37.69 43.33C41.26 41.46 43.95 38.57 45.61 35.21C45.97 34.48 45.6 33.61 44.83 33.31C44.07 33.01 43.21 33.38 42.84 34.11C41.35 37.01 39.04 39.26 36.31 40.7C32.93 42.47 29.18 42.86 25.72 42.06C22 41.21 18.9 39.06 16.8 36.2C14.54 33.12 13.59 29.47 13.86 25.94C14.11 22.66 15.37 19.7 17.31 17.33C17.84 16.7 17.84 15.76 17.26 15.18C16.68 14.6 15.74 14.6 15.2 15.23Z" fill="#5E02F4" fill-opacity="1.000000" fill-rule="evenodd"/>
		<rect id="rect" x="20.039917" y="51.163116" rx="1.276924" width="2.553848" height="13.790775" transform="rotate(-90 20.039917 51.163116)" fill="#5E02F4" fill-opacity="1.000000"/>
		<rect id="rect" x="35.596924" y="13.715027" rx="1.374924" width="2.749847" height="4.945800" transform="rotate(179.974 35.596924 13.715027)" fill="#A269FF" fill-opacity="1.000000"/>
		<rect id="rect" x="42.979614" y="18.744812" rx="1.374924" width="2.749848" height="4.945801" transform="rotate(-133.275 42.979614 18.744812)" fill="#A269FF" fill-opacity="1.000000"/>
		<rect id="rect" x="43.844238" y="27.068970" rx="1.374924" width="2.749847" height="4.945801" transform="rotate(-81.1629 43.844238 27.068970)" fill="#A269FF" fill-opacity="1.000000"/>
	</g>
</svg>
