<svg width="203.000000" height="50.000000" viewBox="0 0 203 50" fill="none" xmlns="http://www.w3.org/2000/svg" xmlns:xlink="http://www.w3.org/1999/xlink">
	<desc>
			Created with Pixso.
	</desc>
	<defs/>
	<path id="Умный курс" d="M78.22 7.51Q79.26 8.69 81.64 8.69Q84.05 8.69 85.1 7.5Q85.9 6.59 85.91 4.97L83.42 4.97Q83.42 5.7 83.06 6.15Q83.01 6.22 82.95 6.28Q82.91 6.32 82.87 6.35Q82.41 6.75 81.62 6.75Q80.83 6.75 80.39 6.36Q80.35 6.32 80.31 6.28Q80.29 6.26 80.27 6.23Q79.87 5.77 79.84 4.97L77.39 4.97Q77.4 6.6 78.22 7.51ZM10.1 19.49L17.25 6.2L13.44 6.2L8.83 15.22L4.36 6.2L0.21 6.2L6.83 18.53L6.69 18.72Q6.21 19.47 5.63 19.82Q5.49 19.91 5.33 19.97Q4.88 20.16 4.34 20.16Q3.67 20.16 2.66 19.85L1.72 22.8Q3.14 23.38 4.46 23.38Q5.18 23.38 5.86 23.2Q6.78 22.96 7.61 22.4Q9.07 21.41 10.1 19.49ZM138.57 10.37Q137.39 9.89 136.02 9.89Q133.99 9.89 132.7 10.87Q132.3 11.17 131.97 11.57L131.97 10.08L128.39 10.08L128.39 27.65L132.14 27.65L132.14 21.63Q132.52 22.05 132.97 22.35Q134.22 23.19 136.02 23.19Q137.39 23.19 138.57 22.71Q138.94 22.56 139.3 22.36Q139.97 21.98 140.51 21.47Q141.16 20.85 141.61 20.03Q142.46 18.53 142.46 16.54Q142.46 14.55 141.61 13.05Q141.15 12.22 140.49 11.6Q139.96 11.09 139.3 10.72Q138.94 10.52 138.57 10.37ZM147.65 22.41Q149.24 23.19 151.22 23.19Q153.26 23.19 154.78 22.33Q155.7 21.81 156.32 21.04Q156.73 20.54 157 19.92L154.1 18.34Q153.55 19.32 152.72 19.76Q152.05 20.11 151.2 20.11Q150.27 20.11 149.54 19.73Q149.12 19.51 148.77 19.16Q148.6 18.98 148.46 18.79Q147.81 17.9 147.81 16.54Q147.81 15.19 148.45 14.3Q148.59 14.1 148.77 13.92Q149.13 13.57 149.56 13.34Q150.28 12.96 151.2 12.96Q152 12.96 152.65 13.29Q153.52 13.72 154.1 14.74L157 13.18Q156.67 12.41 156.13 11.81Q155.57 11.18 154.78 10.74Q153.26 9.89 151.22 9.89Q149.24 9.89 147.65 10.67Q147.58 10.71 147.51 10.74Q146.44 11.3 145.67 12.13Q145.26 12.58 144.94 13.1Q144.73 13.44 144.58 13.8Q144.02 15.04 144.02 16.54Q144.02 18.03 144.58 19.28Q144.73 19.63 144.94 19.97Q145.26 20.49 145.66 20.93Q146.43 21.78 147.51 22.34Q147.58 22.37 147.65 22.41ZM30.93 15.27L30.93 23L34.31 23L34.27 10.08L30.76 10.08L26.37 17.55L22.24 10.08L18.33 10.08L18.33 23L21.72 23L21.72 15.24L25.48 21.75L27.07 21.75L30.93 15.27ZM41.61 10.08L37.89 10.08L37.89 23L41.61 23L41.61 18.17L47.23 18.17L47.23 23L50.97 23L50.97 10.08L47.23 10.08L47.23 15.13L41.61 15.13L41.61 10.08ZM65.15 15.34Q63.86 14.24 61.34 14.21L58.27 14.21L58.27 10.08L54.55 10.08L54.55 23L60.83 23.02Q63.52 23.02 64.99 21.85Q65.45 21.47 65.77 21Q66.45 19.98 66.45 18.51Q66.45 16.94 65.71 15.93Q65.47 15.61 65.15 15.34ZM71.56 10.08L67.84 10.08L67.84 23L71.56 23L71.56 10.08ZM78.88 10.08L75.16 10.08L75.16 23L78.62 23L84.88 15.31L84.88 23L88.6 23L88.6 10.08L85.17 10.08L78.88 17.76L78.88 10.08ZM102.74 18.1L104.68 18.1L108.14 23L112.55 23L107.73 16.27L112.02 10.39L117.48 23.09L117.43 23.21Q117.05 24.07 116.57 24.44Q116.56 24.45 116.55 24.45Q116.08 24.82 115.32 24.82Q114.77 24.82 114.2 24.6Q113.75 24.43 113.39 24.16Q113.3 24.08 113.21 24L111.84 26.67Q112.46 27.22 113.44 27.53Q114.19 27.77 114.94 27.82Q115.19 27.84 115.43 27.84Q117.08 27.84 118.3 27.12Q118.45 27.03 118.59 26.93Q119.9 26.02 120.79 23.79L126.62 10.08L123.02 10.08L119.37 18.84L115.75 10.08L108.26 10.08L104.75 15.1L102.74 15.1L102.74 10.08L98.99 10.08L98.99 23L102.74 23L102.74 18.1ZM136.97 19.74Q136.28 20.11 135.38 20.11Q134.49 20.11 133.79 19.74Q133.36 19.51 133.01 19.15Q132.87 18.99 132.75 18.82Q132.09 17.92 132.09 16.54Q132.09 15.17 132.74 14.27Q132.86 14.09 133.01 13.94Q133.37 13.56 133.81 13.33Q134.5 12.96 135.38 12.96Q136.27 12.96 136.96 13.33Q137.39 13.56 137.74 13.94Q137.9 14.1 138.03 14.29Q138.67 15.19 138.67 16.54Q138.67 17.9 138.02 18.81Q137.89 18.99 137.74 19.15Q137.39 19.51 136.97 19.74ZM62.15 19.9Q61.58 20.38 60.5 20.35L58.27 20.35L58.27 16.61L60.5 16.64Q61.6 16.66 62.16 17.09Q62.27 17.17 62.35 17.27Q62.73 17.69 62.73 18.46Q62.73 19.24 62.35 19.71Q62.26 19.81 62.15 19.9Z" fill="#FFFFFF" fill-opacity="1.000000" fill-rule="evenodd"/>
	<path id="Маркетплейс цифровых курсов" d="M115.08 45.52Q115.54 44.8 115.54 43.8Q115.54 42.82 115.09 42.12Q114.87 41.78 114.55 41.5Q113.57 40.67 111.78 40.58L111.78 38.09L110.65 38.09L110.65 40.58Q108.85 40.67 107.88 41.5Q107.59 41.75 107.38 42.06Q106.91 42.77 106.91 43.8Q106.91 44.84 107.38 45.57Q107.59 45.88 107.89 46.14Q108.86 46.98 110.65 47.08L110.65 49.32L111.78 49.32L111.78 47.08Q113.57 46.98 114.55 46.13Q114.87 45.86 115.08 45.52ZM74.08 39.38Q74.58 39.81 75.46 39.81Q76.34 39.81 76.85 39.38Q76.96 39.29 77.05 39.17Q77.35 38.78 77.36 38.15L76.56 38.15Q76.55 38.44 76.42 38.66Q76.35 38.77 76.24 38.87Q76.2 38.9 76.16 38.93Q75.88 39.13 75.45 39.13Q75.02 39.13 74.75 38.93Q74.71 38.9 74.67 38.87Q74.57 38.78 74.51 38.68Q74.37 38.45 74.36 38.15L73.58 38.15Q73.59 38.8 73.91 39.21Q73.99 39.3 74.08 39.38ZM10.08 40.87L10.09 47L11.24 47L11.23 38.6L10.25 38.6L6.79 44.5L3.29 38.6L2.3 38.6L2.3 47L3.46 47L3.46 40.91L6.49 45.98L7.04 45.98L10.08 40.87ZM17.96 41.22Q17.26 40.58 15.93 40.58Q15.17 40.58 14.48 40.79Q13.8 41 13.31 41.39L13.79 42.25Q14.16 41.94 14.7 41.76Q15.06 41.63 15.44 41.59Q15.62 41.57 15.8 41.57Q16.64 41.57 17.07 41.97Q17.14 42.03 17.2 42.1Q17.51 42.48 17.51 43.11L17.51 43.34L15.68 43.34Q14.35 43.34 13.74 43.85Q13.48 44.06 13.33 44.34Q13.13 44.71 13.13 45.2Q13.13 45.63 13.3 45.98Q13.46 46.3 13.77 46.55Q14.41 47.07 15.48 47.07Q16.21 47.07 16.74 46.83Q17.17 46.65 17.43 46.33Q17.51 46.25 17.57 46.15L17.57 47L18.66 47L18.66 43.15Q18.66 41.99 18.08 41.35Q18.02 41.28 17.96 41.22ZM25.57 40.88Q24.91 40.58 24.11 40.58Q23.41 40.58 22.84 40.83Q22.82 40.84 22.81 40.85Q22.54 40.97 22.32 41.15Q22.05 41.36 21.84 41.64L21.84 40.63L20.74 40.63L20.74 49.32L21.89 49.32L21.89 46.03Q22.12 46.33 22.42 46.55Q22.62 46.7 22.85 46.8Q22.88 46.82 22.91 46.83Q23.46 47.07 24.11 47.07Q24.91 47.07 25.57 46.76Q25.67 46.71 25.76 46.66Q26.11 46.47 26.38 46.2Q26.69 45.9 26.91 45.51Q26.92 45.48 26.94 45.46Q27.32 44.74 27.32 43.82Q27.32 42.87 26.92 42.14Q26.91 42.13 26.91 42.12Q26.7 41.75 26.4 41.46Q26.12 41.18 25.76 40.98Q25.67 40.93 25.57 40.88ZM41.68 44.2Q41.7 43.98 41.7 43.85Q41.7 42.9 41.3 42.16Q41.3 42.15 41.3 42.15Q41.06 41.71 40.72 41.39Q40.48 41.16 40.18 40.99Q40.08 40.93 39.98 40.88Q39.34 40.58 38.56 40.58Q37.79 40.58 37.16 40.86Q37.04 40.92 36.92 40.99Q36.61 41.16 36.36 41.39Q36.02 41.72 35.78 42.15Q35.7 42.28 35.64 42.41Q35.36 43.05 35.36 43.82Q35.36 44.58 35.65 45.22Q35.71 45.36 35.79 45.5Q35.96 45.8 36.19 46.04Q36.53 46.41 36.99 46.66Q37.77 47.07 38.78 47.07Q39.58 47.07 40.22 46.8Q40.68 46.61 41.03 46.3Q41.17 46.18 41.29 46.03L40.65 45.29Q40.4 45.57 40.1 45.74Q39.55 46.06 38.82 46.06Q38.06 46.06 37.5 45.72Q37.37 45.65 37.25 45.55Q36.98 45.33 36.81 45.05Q36.58 44.68 36.51 44.2L41.68 44.2ZM70.68 44.2Q70.7 43.98 70.7 43.85Q70.7 42.9 70.31 42.16Q70.3 42.15 70.3 42.15Q70.07 41.71 69.73 41.39Q69.48 41.16 69.18 40.99Q69.09 40.93 68.98 40.88Q68.35 40.58 67.56 40.58Q66.8 40.58 66.17 40.86Q66.04 40.92 65.92 40.99Q65.61 41.16 65.37 41.39Q65.02 41.72 64.78 42.15Q64.71 42.28 64.65 42.41Q64.37 43.05 64.37 43.82Q64.37 44.58 64.65 45.22Q64.72 45.36 64.79 45.5Q64.96 45.8 65.2 46.04Q65.54 46.41 66 46.66Q66.78 47.07 67.79 47.07Q68.58 47.07 69.22 46.8Q69.68 46.61 70.03 46.3Q70.17 46.18 70.29 46.03L69.66 45.29Q69.41 45.57 69.1 45.74Q68.55 46.06 67.82 46.06Q67.06 46.06 66.5 45.72Q66.37 45.65 66.26 45.55Q65.99 45.33 65.81 45.05Q65.58 44.68 65.52 44.2L70.68 44.2ZM81.96 46.7Q82.68 47.07 83.59 47.07Q84.46 47.07 85.13 46.71Q85.5 46.52 85.78 46.24Q86.01 46 86.18 45.7L85.31 45.15Q85.05 45.53 84.7 45.75Q84.63 45.8 84.56 45.83Q84.49 45.87 84.42 45.9Q84.04 46.06 83.58 46.06Q83.04 46.06 82.6 45.86Q82.53 45.82 82.46 45.79Q82.25 45.67 82.07 45.51Q81.84 45.29 81.67 45Q81.39 44.49 81.39 43.82Q81.39 43.16 81.67 42.66Q81.67 42.65 81.67 42.64Q81.84 42.35 82.08 42.13Q82.25 41.97 82.46 41.86Q82.53 41.82 82.6 41.79Q83.04 41.58 83.58 41.58Q84.04 41.58 84.42 41.75Q84.49 41.78 84.56 41.81Q84.63 41.85 84.7 41.89Q85.05 42.11 85.31 42.5L86.18 41.93Q86.01 41.61 85.76 41.37Q85.49 41.11 85.13 40.92Q84.46 40.58 83.59 40.58Q82.66 40.58 81.93 40.95Q81.89 40.97 81.86 40.99Q81.44 41.21 81.13 41.53Q80.86 41.8 80.66 42.14Q80.59 42.27 80.53 42.4Q80.23 43.04 80.23 43.82Q80.23 44.58 80.52 45.22Q80.58 45.36 80.66 45.49Q80.85 45.81 81.11 46.08Q81.43 46.41 81.86 46.65Q81.91 46.68 81.96 46.7ZM122 40.88Q121.34 40.58 120.54 40.58Q119.85 40.58 119.27 40.83Q119.25 40.84 119.24 40.85Q118.97 40.97 118.75 41.15Q118.48 41.36 118.27 41.64L118.27 40.63L117.17 40.63L117.17 49.32L118.32 49.32L118.32 46.03Q118.55 46.33 118.85 46.55Q119.05 46.7 119.28 46.8Q119.31 46.82 119.34 46.83Q119.89 47.07 120.54 47.07Q121.34 47.07 122 46.76Q122.1 46.71 122.2 46.66Q122.54 46.47 122.82 46.2Q123.12 45.9 123.34 45.51Q123.36 45.48 123.37 45.46Q123.75 44.74 123.75 43.82Q123.75 42.87 123.35 42.14Q123.35 42.13 123.34 42.12Q123.13 41.75 122.83 41.46Q122.55 41.18 122.2 40.98Q122.1 40.93 122 40.88ZM126.66 46.76Q127.33 47.07 128.15 47.07Q128.97 47.07 129.64 46.75Q129.75 46.7 129.84 46.65Q130.25 46.42 130.56 46.11Q130.82 45.83 131.02 45.49Q131.09 45.36 131.15 45.23Q131.45 44.59 131.45 43.82Q131.45 43.03 131.15 42.38Q131.09 42.26 131.02 42.14Q130.81 41.78 130.53 41.5Q130.23 41.2 129.84 40.99Q129.76 40.94 129.67 40.9Q128.99 40.58 128.15 40.58Q127.31 40.58 126.62 40.9Q126.53 40.94 126.44 40.99Q126.04 41.21 125.73 41.52Q125.46 41.8 125.26 42.14Q125.2 42.25 125.14 42.37Q124.83 43.02 124.83 43.82Q124.83 44.6 125.13 45.24Q125.19 45.37 125.26 45.49Q125.45 45.82 125.71 46.09Q126.03 46.42 126.44 46.65Q126.55 46.71 126.66 46.76ZM178.39 40.88Q177.73 40.58 176.93 40.58Q176.23 40.58 175.66 40.83Q175.64 40.84 175.63 40.85Q175.36 40.97 175.14 41.15Q174.87 41.36 174.66 41.64L174.66 40.63L173.56 40.63L173.56 49.32L174.71 49.32L174.71 46.03Q174.94 46.33 175.24 46.55Q175.44 46.7 175.67 46.8Q175.7 46.82 175.73 46.83Q176.28 47.07 176.93 47.07Q177.73 47.07 178.39 46.76Q178.49 46.71 178.58 46.66Q178.93 46.47 179.21 46.2Q179.51 45.9 179.73 45.51Q179.74 45.48 179.76 45.46Q180.14 44.74 180.14 43.82Q180.14 42.87 179.74 42.14Q179.73 42.13 179.73 42.12Q179.52 41.75 179.22 41.46Q178.94 41.18 178.58 40.98Q178.49 40.93 178.39 40.88ZM182.95 46.7Q183.68 47.07 184.58 47.07Q185.45 47.07 186.12 46.71Q186.49 46.52 186.77 46.24Q187 46 187.18 45.7L186.3 45.15Q186.05 45.53 185.69 45.75Q185.62 45.8 185.55 45.83Q185.49 45.87 185.41 45.9Q185.03 46.06 184.57 46.06Q184.04 46.06 183.59 45.86Q183.52 45.82 183.45 45.79Q183.24 45.67 183.07 45.51Q182.83 45.29 182.67 45Q182.39 44.49 182.39 43.82Q182.39 43.16 182.66 42.66Q182.66 42.65 182.67 42.64Q182.83 42.35 183.07 42.13Q183.24 41.97 183.45 41.86Q183.52 41.82 183.59 41.79Q184.04 41.58 184.57 41.58Q185.03 41.58 185.41 41.75Q185.49 41.78 185.55 41.81Q185.62 41.85 185.69 41.89Q186.05 42.11 186.3 42.5L187.18 41.93Q187 41.61 186.75 41.37Q186.48 41.11 186.12 40.92Q185.45 40.58 184.58 40.58Q183.66 40.58 182.92 40.95Q182.88 40.97 182.85 40.99Q182.44 41.21 182.12 41.53Q181.85 41.8 181.65 42.14Q181.58 42.27 181.52 42.4Q181.22 43.04 181.22 43.82Q181.22 44.58 181.51 45.22Q181.58 45.36 181.65 45.49Q181.84 45.81 182.1 46.08Q182.42 46.41 182.85 46.65Q182.9 46.68 182.95 46.7ZM189.8 46.76Q190.47 47.07 191.29 47.07Q192.11 47.07 192.79 46.75Q192.89 46.7 192.99 46.65Q193.39 46.42 193.7 46.11Q193.97 45.83 194.16 45.49Q194.24 45.36 194.3 45.23Q194.59 44.59 194.59 43.82Q194.59 43.03 194.29 42.38Q194.23 42.26 194.16 42.14Q193.96 41.78 193.68 41.5Q193.38 41.2 192.99 40.99Q192.9 40.94 192.82 40.9Q192.13 40.58 191.29 40.58Q190.45 40.58 189.77 40.9Q189.68 40.94 189.59 40.99Q189.18 41.21 188.88 41.52Q188.6 41.8 188.4 42.14Q188.34 42.25 188.28 42.37Q187.98 43.02 187.98 43.82Q187.98 44.6 188.28 45.24Q188.33 45.37 188.4 45.49Q188.6 45.82 188.85 46.09Q189.17 46.42 189.59 46.65Q189.69 46.71 189.8 46.76ZM30.14 44.31L31.46 44.31L33.6 47L34.96 47L32.38 43.7L34.79 40.63L33.55 40.63L31.49 43.32L30.14 43.32L30.14 40.63L28.99 40.63L28.99 47L30.14 47L30.14 44.31ZM45.63 41.64L47.96 41.64L47.96 40.63L42.15 40.63L42.15 41.64L44.48 41.64L44.48 47L45.63 47L45.63 41.64ZM55.03 47L55.03 40.63L49.14 40.63L49.14 47L50.29 47L50.29 41.64L53.88 41.64L53.88 47L55.03 47ZM62.72 47L62.72 40.63L57.84 40.63L57.73 42.99Q57.67 44.05 57.6 44.63Q57.53 45.21 57.29 45.63Q57.17 45.84 56.98 45.94Q56.8 46.05 56.57 46.05Q56.43 46.05 56.28 46.01L56.21 46.98Q56.6 47.09 56.91 47.09Q57.31 47.09 57.61 46.92Q57.82 46.79 57.98 46.58Q58.37 46.06 58.53 45.2Q58.7 44.34 58.76 43.06L58.84 41.64L61.57 41.64L61.57 47L62.72 47ZM73.64 40.63L72.49 40.63L72.49 47L73.55 47L77.43 42.36L77.43 47L78.59 47L78.59 40.63L77.54 40.63L73.64 45.27L73.64 40.63ZM97.69 48.52L97.69 45.99L96.68 45.99L96.68 40.63L95.53 40.63L95.53 45.99L92.05 45.99L92.05 40.63L90.9 40.63L90.9 47L96.6 47L96.6 48.52L97.69 48.52ZM100.33 40.63L99.18 40.63L99.18 47L100.23 47L104.12 42.36L104.12 47L105.28 47L105.28 40.63L104.23 40.63L100.33 45.27L100.33 40.63ZM138.4 44.27Q138.09 43.86 137.45 43.7Q137.88 43.52 138.14 43.21Q138.17 43.17 138.2 43.14Q138.27 43.04 138.32 42.94Q138.47 42.64 138.47 42.27Q138.47 41.86 138.3 41.55Q138.14 41.27 137.83 41.06Q137.2 40.63 136.07 40.63L133.12 40.63L133.12 47L136.17 47Q137.42 47 138.05 46.54Q138.31 46.36 138.46 46.11Q138.68 45.74 138.68 45.24Q138.68 44.65 138.4 44.27ZM145.19 43.35Q144.55 42.81 143.35 42.79L141.64 42.78L141.64 40.63L140.48 40.63L140.48 47L143.16 47.01Q144.44 47.02 145.13 46.46Q145.34 46.29 145.49 46.08Q145.82 45.59 145.82 44.87Q145.82 44.16 145.49 43.68Q145.36 43.5 145.19 43.35ZM147.92 40.63L146.77 40.63L146.77 47L147.92 47L147.92 40.63ZM152.3 44.56L154.14 47L155.45 47L152.92 43.74L155.32 40.63L154.06 40.63L152.32 42.93L150.57 40.63L149.28 40.63L151.67 43.74L149.16 47L150.45 47L152.3 44.56ZM161.04 44.31L162.36 44.31L164.5 47L165.85 47L163.27 43.7L165.65 40.67L168.44 46.98L168.24 47.43Q168.01 47.97 167.73 48.19Q167.68 48.22 167.64 48.25Q167.38 48.41 167.03 48.41Q166.76 48.41 166.52 48.33Q166.18 48.22 165.89 47.94L165.4 48.81Q165.68 49.1 166.12 49.25Q166.3 49.31 166.48 49.34Q166.75 49.39 167.03 49.39Q167.67 49.39 168.15 49.12Q168.25 49.07 168.34 49Q168.89 48.6 169.3 47.63L172.38 40.63L171.25 40.63L169.06 45.72L166.84 40.63L164.45 40.63L162.38 43.32L161.04 43.32L161.04 40.63L159.89 40.63L159.89 47L161.04 47L161.04 44.31ZM201.54 44.27Q201.23 43.86 200.59 43.7Q201.02 43.52 201.28 43.21Q201.31 43.17 201.34 43.14Q201.41 43.04 201.46 42.94Q201.61 42.64 201.61 42.27Q201.61 41.86 201.44 41.55Q201.28 41.27 200.98 41.06Q200.34 40.63 199.21 40.63L196.26 40.63L196.26 47L199.32 47Q200.57 47 201.2 46.54Q201.45 46.36 201.6 46.11Q201.83 45.74 201.83 45.24Q201.83 44.65 201.54 44.27ZM135.97 43.37L134.24 43.37L134.24 41.52L135.97 41.52Q136.89 41.52 137.18 41.95Q137.32 42.15 137.32 42.44Q137.32 42.71 137.2 42.9Q137.11 43.03 136.97 43.13Q136.63 43.37 135.97 43.37ZM199.12 43.37L197.39 43.37L197.39 41.52L199.12 41.52Q200.04 41.52 200.33 41.95Q200.46 42.15 200.46 42.44Q200.46 42.71 200.34 42.9Q200.26 43.03 200.12 43.13Q199.78 43.37 199.12 43.37ZM37.55 41.78Q37.99 41.55 38.56 41.55Q39.1 41.55 39.53 41.77Q39.75 41.89 39.94 42.06Q40.14 42.24 40.29 42.47Q40.53 42.86 40.59 43.37L36.51 43.37Q36.58 42.81 36.86 42.4Q36.99 42.21 37.17 42.05Q37.34 41.89 37.55 41.78ZM66.55 41.78Q66.99 41.55 67.56 41.55Q68.11 41.55 68.54 41.77Q68.76 41.89 68.94 42.06Q69.15 42.24 69.29 42.47Q69.54 42.86 69.6 43.37L65.52 43.37Q65.58 42.81 65.86 42.4Q65.99 42.21 66.17 42.05Q66.35 41.89 66.55 41.78ZM24.92 45.87Q24.51 46.06 24.01 46.06Q23.58 46.06 23.21 45.92Q23.06 45.86 22.92 45.78Q22.7 45.66 22.53 45.49Q22.31 45.27 22.15 44.99Q21.87 44.48 21.87 43.82Q21.87 43.15 22.16 42.65Q22.32 42.35 22.56 42.13Q22.73 41.98 22.92 41.87Q23.05 41.79 23.18 41.74Q23.56 41.58 24.01 41.58Q24.53 41.58 24.95 41.78Q25.03 41.82 25.11 41.86Q25.29 41.96 25.44 42.09Q25.7 42.32 25.88 42.64Q25.88 42.65 25.88 42.66Q26.16 43.16 26.16 43.82Q26.16 44.46 25.89 44.96Q25.89 44.97 25.88 44.99Q25.7 45.3 25.45 45.53Q25.3 45.67 25.11 45.78Q25.02 45.83 24.92 45.87ZM121.35 45.87Q120.94 46.06 120.44 46.06Q120.01 46.06 119.64 45.92Q119.49 45.86 119.35 45.78Q119.14 45.66 118.96 45.49Q118.74 45.27 118.58 44.99Q118.31 44.48 118.31 43.82Q118.31 43.15 118.59 42.65Q118.76 42.35 119 42.13Q119.16 41.98 119.36 41.87Q119.48 41.79 119.61 41.74Q120 41.58 120.44 41.58Q120.96 41.58 121.38 41.78Q121.46 41.82 121.54 41.86Q121.72 41.96 121.87 42.09Q122.13 42.32 122.31 42.64Q122.31 42.65 122.32 42.66Q122.59 43.16 122.59 43.82Q122.59 44.46 122.33 44.96Q122.32 44.97 122.31 44.99Q122.14 45.3 121.88 45.53Q121.73 45.67 121.54 45.78Q121.45 45.83 121.35 45.87ZM129.04 45.88Q128.63 46.06 128.15 46.06Q127.65 46.06 127.24 45.87Q127.14 45.83 127.05 45.78Q126.87 45.67 126.72 45.54Q126.46 45.31 126.28 44.99Q126.27 44.97 126.26 44.96Q126 44.46 126 43.82Q126 43.16 126.27 42.66Q126.28 42.65 126.28 42.64Q126.46 42.31 126.73 42.08Q126.88 41.96 127.05 41.86Q127.13 41.82 127.21 41.78Q127.63 41.58 128.15 41.58Q128.65 41.58 129.07 41.77Q129.16 41.81 129.24 41.86Q129.43 41.96 129.59 42.1Q129.84 42.33 130 42.64Q130.28 43.15 130.28 43.82Q130.28 44.47 130.01 44.97Q130.01 44.98 130 44.99Q129.84 45.29 129.6 45.51Q129.44 45.66 129.24 45.78Q129.14 45.84 129.04 45.88ZM177.74 45.87Q177.33 46.06 176.83 46.06Q176.4 46.06 176.03 45.92Q175.88 45.86 175.74 45.78Q175.52 45.66 175.35 45.49Q175.13 45.27 174.97 44.99Q174.7 44.48 174.7 43.82Q174.7 43.15 174.98 42.65Q175.14 42.35 175.38 42.13Q175.55 41.98 175.74 41.87Q175.87 41.79 176 41.74Q176.38 41.58 176.83 41.58Q177.35 41.58 177.77 41.78Q177.85 41.82 177.93 41.86Q178.11 41.96 178.26 42.09Q178.52 42.32 178.7 42.64Q178.7 42.65 178.71 42.66Q178.98 43.16 178.98 43.82Q178.98 44.46 178.71 44.96Q178.71 44.97 178.7 44.99Q178.52 45.3 178.27 45.53Q178.12 45.67 177.93 45.78Q177.84 45.83 177.74 45.87ZM192.18 45.88Q191.78 46.06 191.29 46.06Q190.79 46.06 190.38 45.87Q190.29 45.83 190.19 45.78Q190.01 45.67 189.86 45.54Q189.6 45.31 189.42 44.99Q189.42 44.97 189.41 44.96Q189.14 44.46 189.14 43.82Q189.14 43.16 189.42 42.66Q189.42 42.65 189.42 42.64Q189.61 42.31 189.88 42.08Q190.02 41.96 190.19 41.86Q190.27 41.82 190.35 41.78Q190.78 41.58 191.29 41.58Q191.79 41.58 192.21 41.77Q192.3 41.81 192.39 41.86Q192.57 41.96 192.73 42.1Q192.98 42.33 193.15 42.64Q193.43 43.15 193.43 43.82Q193.43 44.47 193.16 44.97Q193.15 44.98 193.15 44.99Q192.99 45.29 192.75 45.51Q192.58 45.66 192.39 45.78Q192.29 45.84 192.18 45.88ZM108.39 45.05Q108.05 44.55 108.05 43.8Q108.05 43.09 108.37 42.6Q108.51 42.41 108.69 42.24Q109.34 41.68 110.65 41.6L110.65 46.06Q109.36 45.98 108.7 45.4Q108.52 45.24 108.39 45.05ZM114.03 45.08Q113.42 45.94 111.78 46.07L111.78 41.6Q113.07 41.68 113.73 42.24Q113.93 42.4 114.06 42.6Q114.4 43.09 114.4 43.8Q114.4 44.57 114.03 45.08ZM144.26 45.82Q143.86 46.14 143.08 46.13L141.64 46.12L141.64 43.62L143.08 43.65Q143.87 43.66 144.26 43.95Q144.35 44.01 144.42 44.09Q144.66 44.37 144.66 44.86Q144.66 45.35 144.42 45.65Q144.35 45.74 144.26 45.82ZM16.81 45.88Q16.33 46.18 15.67 46.18Q15.01 46.18 14.64 45.9Q14.47 45.78 14.38 45.61Q14.27 45.41 14.27 45.15Q14.27 44.84 14.41 44.63Q14.72 44.16 15.73 44.16L17.51 44.16L17.51 45.05Q17.38 45.37 17.16 45.6Q17.01 45.77 16.81 45.88ZM137.17 45.88Q136.81 46.11 136.09 46.11L134.24 46.11L134.24 44.2L136.16 44.2Q136.87 44.2 137.2 44.44Q137.29 44.51 137.36 44.59Q137.53 44.82 137.53 45.17Q137.53 45.47 137.39 45.67Q137.31 45.79 137.17 45.88ZM200.31 45.88Q199.95 46.11 199.24 46.11L197.39 46.11L197.39 44.2L199.31 44.2Q200.02 44.2 200.34 44.44Q200.44 44.51 200.5 44.59Q200.67 44.82 200.67 45.17Q200.67 45.47 200.53 45.67Q200.45 45.79 200.31 45.88Z" fill="#FFFFFF" fill-opacity="1.000000" fill-rule="evenodd"/>
</svg>
