<svg width="50.000000" height="50.000000" viewBox="0 0 50 50" fill="none" xmlns="http://www.w3.org/2000/svg" xmlns:xlink="http://www.w3.org/1999/xlink">
	<desc>
			Created with Pixso.
	</desc>
	<defs>
		<clipPath id="clip39_31">
			<rect id="icons8-telegram" width="50.000000" height="50.000000" fill="white" fill-opacity="0"/>
		</clipPath>
		<linearGradient id="paint_linear_39_33_0" x1="10.268773" y1="10.268581" x2="39.731262" y2="39.731079" gradientUnits="userSpaceOnUse">
			<stop stop-color="#33BEF0"/>
			<stop offset="1.000000" stop-color="#0A85D9"/>
		</linearGradient>
	</defs>
	<g clip-path="url(#clip39_31)">
		<path id="path" d="M45.83 25C45.83 36.5 36.5 45.83 25 45.83C13.49 45.83 4.16 36.5 4.16 25C4.16 13.49 13.49 4.16 25 4.16C36.5 4.16 45.83 13.49 45.83 25Z" fill="url(#paint_linear_39_33_0)" fill-opacity="1.000000" fill-rule="nonzero"/>
		<g opacity="0.050000">
			<path id="path" d="M10.54 24.44C19.03 20.59 29.01 16.41 30.54 15.81C33.93 14.48 35.41 15.84 35.18 18.01C34.89 20.67 33.55 28.42 32.72 33.97C32.23 37.21 30.47 38.21 28.49 36.95C26.98 35.99 21.81 32.6 20.45 31.45C19.52 30.66 18.87 29.77 19.53 28.87C19.72 28.61 20.21 28.07 20.49 27.81C21.86 26.48 21.68 26.19 20.02 27.38C19.82 27.52 18.67 28.35 18.2 28.67C17.04 29.44 15.98 29.48 14.18 28.87C12.7 28.37 11.28 27.98 10.39 27.6C9.16 27.06 8.68 25.28 10.54 24.44Z" fill="#000000" fill-opacity="1.000000" fill-rule="nonzero"/>
		</g>
		<g opacity="0.070000">
			<path id="path" d="M11.28 24.57C19.17 21.04 28.87 17 30.29 16.43C33.69 15.06 34.94 15.87 34.57 18.53C34.23 20.98 33.03 28.58 32.18 33.68C31.69 36.68 30.23 37.34 28.34 36.11C27.15 35.35 22.38 32.2 21.22 31.28C20.32 30.58 19.4 29.76 20.48 28.58C20.84 28.18 22.84 26.25 24.34 24.81C25.21 23.98 24.9 23.57 23.85 24.28C21.93 25.6 18.79 27.68 18.23 28.06C17.16 28.78 16.16 28.95 14.41 28.4C13.04 27.97 11.71 27.55 11.02 27.28C9.47 26.68 9.45 25.39 11.28 24.57Z" fill="#000000" fill-opacity="1.000000" fill-rule="nonzero"/>
		</g>
		<path id="path" d="M12.03 24.7C19.31 21.5 28.73 17.59 30.03 17.05C33.45 15.64 34.49 15.91 33.97 19.04C33.59 21.29 32.51 28.75 31.65 33.39C31.14 36.14 29.99 36.47 28.19 35.28C27.32 34.7 22.94 31.81 21.99 31.13C21.12 30.51 19.92 29.76 21.43 28.29C21.96 27.77 25.46 24.43 28.19 21.82C28.55 21.48 28.1 20.92 27.68 21.19C24.01 23.63 18.91 27.02 18.26 27.46C17.28 28.12 16.34 28.43 14.65 27.94C13.37 27.58 12.13 27.14 11.64 26.97C9.77 26.33 10.21 25.5 12.03 24.7Z" fill="#FFFFFF" fill-opacity="1.000000" fill-rule="nonzero"/>
	</g>
</svg>
