<svg width="50.000000" height="50.000000" viewBox="0 0 50 50" fill="none" xmlns="http://www.w3.org/2000/svg" xmlns:xlink="http://www.w3.org/1999/xlink">
	<desc>
			Created with Pixso.
	</desc>
	<defs>
		<clipPath id="clip39_26">
			<rect id="icons8-vk" width="50.000000" height="50.000000" fill="white" fill-opacity="0"/>
		</clipPath>
	</defs>
	<g clip-path="url(#clip39_26)">
		<path id="path" d="M25 4.16C13.54 4.16 4.16 13.54 4.16 25C4.16 36.45 13.54 45.83 25 45.83C36.45 45.83 45.83 36.45 45.83 25C45.83 13.54 36.45 4.16 25 4.16Z" fill="#1876D2" fill-opacity="1.000000" fill-rule="nonzero"/>
		<path id="path" d="M26.25 34.58C16.87 34.58 11.56 28.22 11.35 17.5L16.04 17.5C16.14 25.31 19.68 28.64 22.39 29.27L22.39 17.5L26.77 17.5L26.77 24.27C29.47 23.95 32.29 20.93 33.22 17.5L37.6 17.5C36.87 21.66 33.75 24.79 31.56 26.04C33.75 27.08 37.29 29.79 38.54 34.58L33.64 34.58C32.6 31.35 30 28.85 26.56 28.43L26.56 34.58L26.25 34.58Z" fill="#FFFFFF" fill-opacity="1.000000" fill-rule="nonzero"/>
	</g>
</svg>
