<?xml version="1.0" encoding="UTF-8"?> <svg xmlns="http://www.w3.org/2000/svg" xmlns:xlink="http://www.w3.org/1999/xlink" width="98.659424" height="92.915405" viewBox="0 0 98.6594 92.9154" fill="none"><desc> Created with Pixso. </desc><defs></defs><path id="Rectangle 11" d="M10.7247 38.7926L55.2917 13.3495C57.4651 12.1086 60.068 11.8351 62.4567 12.5963L79.5566 18.0459C83.8988 19.4297 86.4747 23.8414 85.5156 28.2517L81.7384 45.6198C81.2108 48.0459 79.6697 50.1381 77.4963 51.3789L32.9293 76.8219C28.6813 79.2471 23.2495 77.8077 20.7968 73.6071L7.47406 50.7894C5.02142 46.5889 6.47675 41.2177 10.7247 38.7926Z" fill="#FFFFFF" fill-opacity="1.000000" fill-rule="evenodd"></path><path id="Rectangle 11 (Border)" d="M56.2945 10.5143C55.565 10.7491 54.8607 11.0604 54.1815 11.4481L9.61444 36.8912C8.90692 37.2952 8.25867 37.7632 7.66968 38.2954C7.17383 38.7434 6.71997 39.2369 6.30817 39.776C5.89484 40.3169 5.53748 40.8854 5.23596 41.4816C4.90314 42.1398 4.63849 42.8315 4.44189 43.557C4.2453 44.2825 4.12476 45.0125 4.08026 45.7469C4.03992 46.4124 4.06195 47.0815 4.14636 47.7543C4.23053 48.4247 4.37402 49.0765 4.5769 49.7097C4.81787 50.4618 5.14264 51.1877 5.55115 51.8873L18.8739 74.705C19.2823 75.4047 19.7557 76.0457 20.2939 76.6281C20.7471 77.1184 21.2462 77.5673 21.7913 77.9745C22.3383 78.3832 22.9132 78.7366 23.5161 79.0347C24.1817 79.3639 24.8814 79.6256 25.6151 79.8201C26.3488 80.0145 27.0871 80.1337 27.83 80.1777C28.5028 80.2177 29.1794 80.1959 29.8598 80.1124C30.5378 80.0293 31.197 79.8873 31.8374 79.6868C32.5979 79.4485 33.332 79.1274 34.0394 78.7235L78.6065 53.2805C79.2856 52.8927 79.9105 52.4452 80.4809 51.938C81.0514 51.4307 81.5675 50.8635 82.0293 50.2367C82.491 49.6099 82.8785 48.9502 83.1918 48.2577C83.5051 47.5652 83.7443 46.8397 83.9091 46.0815L87.6863 28.7135C87.8448 27.9841 87.9283 27.2539 87.9365 26.5228C87.9435 25.8949 87.895 25.2662 87.791 24.6371C87.6866 24.0056 87.5295 23.3923 87.3199 22.7971C87.0914 22.1487 86.8004 21.5217 86.4469 20.9163C86.0934 20.3108 85.6898 19.748 85.236 19.2281C84.8196 18.7511 84.361 18.3099 83.8602 17.9048C83.3611 17.5011 82.8348 17.1453 82.2812 16.8373C81.6369 16.4788 80.9557 16.1852 80.2376 15.9563L63.1377 10.5067C62.3912 10.2688 61.6363 10.1108 60.873 10.033C60.11 9.95496 59.3385 9.95703 58.5587 10.0389C57.7787 10.121 57.024 10.2794 56.2945 10.5143ZM11.8348 40.6941L56.4019 15.2511C56.8094 15.0184 57.2321 14.8317 57.6698 14.6907C58.1075 14.5498 58.5603 14.4547 59.0283 14.4055C59.4962 14.3564 59.959 14.3552 60.4169 14.402C60.8748 14.4487 61.3278 14.5435 61.7757 14.6863L78.8755 20.1357C79.3273 20.2798 79.7543 20.4661 80.1567 20.6948C80.4688 20.8723 80.7661 21.0752 81.0486 21.3037C81.34 21.5394 81.6077 21.7955 81.8516 22.0721C82.1331 22.3915 82.3829 22.7379 82.6011 23.1117C82.8193 23.4855 82.9979 23.8727 83.1368 24.2733C83.2571 24.6205 83.3477 24.9779 83.4084 25.3452C83.4672 25.7014 83.4963 26.0575 83.4957 26.4136C83.4948 26.8724 83.4445 27.3313 83.3447 27.79L79.5676 45.1582C79.4687 45.613 79.3253 46.0482 79.1373 46.4637C78.9493 46.8793 78.7168 47.2751 78.4397 47.6512C78.1627 48.0273 77.853 48.3677 77.5106 48.672C77.1684 48.9764 76.7935 49.2449 76.386 49.4775L31.819 74.9205C31.3714 75.1761 30.9068 75.3763 30.4252 75.5215C30.064 75.6302 29.6932 75.708 29.3129 75.7546C28.9189 75.803 28.5269 75.8168 28.1367 75.796C27.6767 75.7715 27.2192 75.699 26.7644 75.5785C26.3095 75.458 25.8766 75.2946 25.4658 75.0883C25.1175 74.9133 24.785 74.7075 24.4683 74.4709C24.1626 74.2426 23.8809 73.9919 23.6231 73.7192C23.2792 73.3553 22.9781 72.9521 22.7197 72.5095L9.39691 49.6918C9.13843 49.2491 8.93585 48.7897 8.78912 48.3134C8.67914 47.9562 8.60052 47.5896 8.55334 47.2136C8.50446 46.8241 8.49048 46.4364 8.51147 46.0507C8.53619 45.5957 8.6095 45.1434 8.73138 44.6936C8.85321 44.2439 9.01843 43.8159 9.22705 43.4097C9.40393 43.0652 9.61206 42.7363 9.85132 42.4232C10.0823 42.1208 10.3358 41.8423 10.6116 41.5874C10.9794 41.2474 11.3872 40.9497 11.8348 40.6941Z" fill="#8400FF" fill-opacity="1.000000" fill-rule="evenodd"></path><path id="Oval 1" d="M65.2037 27.8152C65.2037 25.3901 67.1919 23.4242 69.6445 23.4242C72.097 23.4242 74.0851 25.3901 74.0851 27.8152C74.0851 30.2404 72.097 32.2063 69.6445 32.2063C67.1919 32.2063 65.2037 30.2404 65.2037 27.8152Z" fill="#F0E1FF" fill-opacity="1.000000" fill-rule="evenodd"></path><path id="Line 1 (Border)" d="M49.3634 33.3049L31.6006 63.7271L27.7546 61.5315L45.5175 31.1093L49.3634 33.3049Z" fill="#8400FF" fill-opacity="1.000000" fill-rule="evenodd"></path><path id="Oval 2" d="M25.2374 40.9883C25.2374 38.5632 27.2255 36.5973 29.6781 36.5973C32.1306 36.5973 34.1188 38.5632 34.1188 40.9883C34.1188 43.4135 32.1306 45.3794 29.6781 45.3794C27.2255 45.3794 25.2374 43.4135 25.2374 40.9883Z" fill="#8400FF" fill-opacity="1.000000" fill-rule="evenodd"></path><path id="Oval 3" d="M43.0002 54.1615C43.0002 51.7365 44.9883 49.7705 47.4409 49.7705C49.8934 49.7705 51.8816 51.7365 51.8816 54.1615C51.8816 56.5867 49.8934 58.5526 47.4409 58.5526C44.9883 58.5526 43.0002 56.5867 43.0002 54.1615Z" fill="#8400FF" fill-opacity="1.000000" fill-rule="evenodd"></path><path id="Line 2 (Border)" d="M4.34485 17.2611L11.5114 22.4481L8.88837 25.9916L1.7218 20.8046L4.34485 17.2611Z" fill="#000000" fill-opacity="1.000000" fill-rule="evenodd"></path><path id="Line 5 (Border)" d="M75.2847 72.5579L67.0047 69.3817L68.6108 65.2877L76.8908 68.4639L75.2847 72.5579Z" fill="#000000" fill-opacity="1.000000" fill-rule="evenodd"></path><path id="Line 3 (Border)" d="M22.9412 5.29236L25.2399 13.775L20.9504 14.9116L18.6517 6.42883L22.9412 5.29236Z" fill="#000000" fill-opacity="1.000000" fill-rule="evenodd"></path><path id="Line 6 (Border)" d="M60.455 88.88L56.0143 81.2747L59.8603 79.079L64.3009 86.6844L60.455 88.88Z" fill="#000000" fill-opacity="1.000000" fill-rule="evenodd"></path><path id="Line 4 (Border)" d="M43.0033 6.42883L40.7047 14.9115L36.4152 13.775L38.7138 5.29236L43.0033 6.42883Z" fill="#000000" fill-opacity="1.000000" fill-rule="evenodd"></path><path id="Line 7 (Border)" d="M40.7795 92.9154L40.7795 84.1334L45.2203 84.1334L45.2203 92.9154L40.7795 92.9154Z" fill="#000000" fill-opacity="1.000000" fill-rule="evenodd"></path></svg> 