<?xml version="1.0" encoding="UTF-8"?> <svg xmlns="http://www.w3.org/2000/svg" xmlns:xlink="http://www.w3.org/1999/xlink" width="82.000000" height="85.682739" viewBox="0 0 82 85.6827" fill="none"><desc> Created with Pixso. </desc><defs></defs><path id="Rectangle 6" d="M10.6997 1.91772L56.0161 1.91772C60.8825 1.91772 64.8276 5.92444 64.8276 10.8668L64.8276 63.2831C64.8276 68.2256 60.8825 72.2323 56.0161 72.2323L10.6997 72.2323C5.83322 72.2323 1.88818 68.2256 1.88818 63.2831L1.88818 10.8668C1.88818 5.92444 5.83322 1.91772 10.6997 1.91772Z" fill="#FFFFFF" fill-opacity="1.000000" fill-rule="evenodd"></path><path id="Rectangle 6 (Border)" d="M60.1235 0.795654C58.8625 0.265259 57.4933 0 56.0161 0L10.6997 0C9.22238 0 7.85324 0.265259 6.59225 0.795654C5.3313 1.32617 4.1785 2.12183 3.13388 3.18286C2.08923 4.24377 1.30579 5.41455 0.783478 6.69519C0.261169 7.97583 0 9.36646 0 10.8668L0 63.2831C0 64.7834 0.261139 66.174 0.783447 67.4546C1.30576 68.7354 2.08923 69.9061 3.13388 70.967C4.1785 72.028 5.33127 72.8237 6.59222 73.3541C7.85321 73.8846 9.22235 74.1499 10.6997 74.1499L56.0161 74.1499C57.4934 74.1499 58.8625 73.8846 60.1235 73.3541C61.3845 72.8237 62.5373 72.028 63.5819 70.967C64.6265 69.9061 65.41 68.7354 65.9323 67.4547C66.4546 66.1741 66.7158 64.7834 66.7158 63.2831L66.7158 10.8668C66.7158 9.36633 66.4546 7.97583 65.9323 6.69519C65.4099 5.41455 64.6265 4.24377 63.5819 3.18286C62.5373 2.12183 61.3845 1.32617 60.1235 0.795654ZM10.6997 3.83533L56.0161 3.83533C56.972 3.83533 57.8579 4.00696 58.6738 4.35022C59.4897 4.69348 60.2357 5.20837 60.9116 5.89478C61.5875 6.5813 62.0945 7.33887 62.4324 8.16748C62.7704 8.99622 62.9394 9.896 62.9394 10.8668L62.9394 63.2831C62.9394 64.2539 62.7704 65.1537 62.4324 65.9823C62.0945 66.811 61.5875 67.5686 60.9116 68.255C60.2357 68.9415 59.4897 69.4564 58.6738 69.7997C57.8579 70.1429 56.972 70.3146 56.0161 70.3146L10.6997 70.3146C9.74377 70.3146 8.85785 70.1429 8.04193 69.7997C7.22601 69.4564 6.4801 68.9415 5.80417 68.255C5.1282 67.5686 4.62125 66.811 4.28329 65.9823C3.94534 65.1536 3.77637 64.2539 3.77637 63.2831L3.77637 10.8668C3.77637 9.896 3.94534 8.99622 4.28333 8.16748C4.62128 7.33887 5.12823 6.5813 5.80417 5.89478C6.4801 5.20837 7.22601 4.69348 8.04193 4.35022C8.85788 4.00696 9.74377 3.83533 10.6997 3.83533Z" fill="#8400FF" fill-opacity="1.000000" fill-rule="evenodd"></path><path id="Rectangle 7" d="M19.5112 12.1453L47.2046 12.1453C51.3758 12.1453 54.7573 15.5796 54.7573 19.8159L54.7573 21.0944C54.7573 25.3308 51.3758 28.765 47.2046 28.765L19.5112 28.765C15.34 28.765 11.9585 25.3308 11.9585 21.0944L11.9585 19.8159C11.9585 15.5796 15.34 12.1453 19.5112 12.1453Z" fill="#F0E1FF" fill-opacity="1.000000" fill-rule="evenodd"></path><path id="Rectangle 8" d="M19.5112 36.4357L25.8051 36.4357C29.9764 36.4357 33.3579 39.87 33.3579 44.1063L33.3579 45.3848C33.3579 49.6212 29.9764 53.0554 25.8051 53.0554L19.5112 53.0554C15.34 53.0554 11.9585 49.6212 11.9585 45.3848L11.9585 44.1063C11.9585 39.87 15.34 36.4357 19.5112 36.4357Z" fill="#F0E1FF" fill-opacity="1.000000" fill-rule="evenodd"></path><path id="Union" d="M50.084 49.1727L49.7224 75.7422C49.6823 78.6943 52.8038 80.5836 55.3412 79.1428L63.4007 74.5668L67.5314 81.8331C68.5742 83.6675 70.8838 84.296 72.69 83.2369C74.4962 82.1779 75.1151 79.8322 74.0723 77.9978L69.9937 70.8232L78.178 66.1761C80.7155 64.7354 80.7657 61.0452 78.2684 59.5338L55.7932 45.931C53.2959 44.4197 50.1242 46.2206 50.084 49.1727Z" fill="#FFFFFF" fill-opacity="1.000000" fill-rule="evenodd"></path><path id="Union (Border)" d="M48.9436 46.2501C48.4603 47.0739 48.2111 48.0392 48.196 49.1462L47.8344 75.7157C47.8194 76.8228 48.0422 77.7948 48.5029 78.6317C48.9636 79.4686 49.6622 80.1704 50.5987 80.7372C51.5351 81.3041 52.4754 81.594 53.4194 81.6073C54.3634 81.6205 55.3111 81.3571 56.2627 80.8168L62.6966 77.1636L65.8962 82.792C66.2872 83.4799 66.7694 84.0471 67.3427 84.4939C67.9159 84.9407 68.5803 85.2668 69.3358 85.4724C70.0912 85.678 70.8271 85.7329 71.5435 85.6371C72.2599 85.5414 72.9568 85.2949 73.6341 84.8977C74.3115 84.5005 74.8701 84.0109 75.3099 83.4286C75.7498 82.8464 76.0709 82.1716 76.2734 81.4044C76.4758 80.6372 76.5298 79.8898 76.4355 79.1622C76.3412 78.4346 76.0985 77.7268 75.7075 77.0389L72.5862 71.5482L79.0995 67.85C80.051 67.3097 80.7684 66.6278 81.2517 65.8041C81.735 64.9805 81.9842 64.015 81.9993 62.908C82.0143 61.8009 81.7915 60.829 81.3308 59.9921C80.8701 59.1552 80.1715 58.4532 79.235 57.8865L56.7598 44.2837C55.8233 43.7169 54.8831 43.4269 53.9391 43.4137C52.9951 43.4004 52.0473 43.6639 51.0958 44.2042C50.1443 44.7445 49.4269 45.4265 48.9436 46.2501ZM51.6104 75.7687L51.972 49.1992C51.9771 48.8302 52.0601 48.5084 52.2212 48.2339C52.3823 47.9594 52.6214 47.7321 52.9386 47.5519C53.2558 47.3718 53.5717 47.2839 53.8864 47.2885C54.201 47.2928 54.5145 47.3895 54.8266 47.5784L77.3019 61.1812C77.614 61.3701 77.8469 61.604 78.0004 61.8829C78.154 62.162 78.2283 62.486 78.2233 62.855C78.2182 63.224 78.1352 63.5458 77.9741 63.8204C77.813 64.095 77.5739 64.3223 77.2567 64.5023L67.4013 70.0983L72.4371 78.9567C72.5674 79.1859 72.6483 79.4219 72.6797 79.6643C72.7112 79.9069 72.6932 80.156 72.6257 80.4117C72.5582 80.6675 72.4512 80.8925 72.3046 81.0865C72.1579 81.2805 71.9717 81.4438 71.7459 81.5762C71.5201 81.7086 71.2878 81.7908 71.0491 81.8226C70.8102 81.8546 70.5649 81.8363 70.3132 81.7678C70.0613 81.6992 69.8398 81.5906 69.6488 81.4417C69.4577 81.2927 69.297 81.1035 69.1666 80.8743L64.1048 71.97L54.4199 77.469C54.1027 77.6492 53.7867 77.7369 53.4721 77.7325C53.1574 77.7281 52.844 77.6315 52.5319 77.4425C52.2197 77.2537 51.9868 77.0197 51.8333 76.7407C51.6797 76.4618 51.6054 76.1377 51.6104 75.7687Z" fill="#000000" fill-opacity="1.000000" fill-rule="evenodd"></path></svg> 