<?xml version="1.0" encoding="UTF-8"?> <svg xmlns="http://www.w3.org/2000/svg" xmlns:xlink="http://www.w3.org/1999/xlink" width="92.793701" height="97.000000" viewBox="0 0 92.7937 97" fill="none"><desc> Created with Pixso. </desc><defs></defs><path id="Rectangle 12 (Border)" d="M54.499 39.7947C54.7964 38.4684 54.9449 37.109 54.9449 35.7169L54.9449 28.9138C54.9449 27.5217 54.7964 26.1626 54.499 24.8363C54.2546 23.7457 53.9098 22.6774 53.4644 21.6312C53.0145 20.5748 52.4774 19.5754 51.853 18.6333C51.1544 17.579 50.3464 16.5963 49.4291 15.6851C48.5118 14.7738 47.5226 13.9711 46.4613 13.277C45.5129 12.6567 44.507 12.1232 43.4436 11.6764C42.3905 11.2339 41.3151 10.8912 40.2173 10.6484C38.8822 10.3531 37.5139 10.2054 36.1127 10.2054C34.7113 10.2054 33.3431 10.3531 32.0081 10.6484C30.9103 10.8912 29.8347 11.2339 28.7817 11.6764C27.7183 12.1232 26.7123 12.6567 25.7638 13.2771C24.7026 13.9712 23.7134 14.7738 22.7961 15.6851C21.8789 16.5962 21.0709 17.579 20.3723 18.6332C19.7478 19.5754 19.2107 20.5747 18.7609 21.6312C18.3156 22.6774 17.9706 23.7457 17.7262 24.8363C17.429 26.1626 17.2803 27.5217 17.2803 28.9138L17.2803 35.7169C17.2803 37.1089 17.429 38.4681 17.7262 39.7944C17.9706 40.885 18.3156 41.9534 18.7609 42.9996C19.2107 44.056 19.7478 45.0553 20.3722 45.9974C21.0709 47.0518 21.8788 48.0344 22.7961 48.9458C23.7134 49.8569 24.7026 50.6595 25.7638 51.3536C26.7123 51.974 27.7183 52.5076 28.7817 52.9545C29.8348 53.397 30.9104 53.7396 32.0083 53.9824C33.3433 54.2777 34.7114 54.4253 36.1127 54.4253C37.5138 54.4253 38.882 54.2777 40.217 53.9824C41.3149 53.7396 42.3904 53.397 43.4436 52.9545C44.5071 52.5076 45.5129 51.974 46.4615 51.3536C47.5227 50.6595 48.5118 49.8569 49.4291 48.9458C50.3463 48.0345 51.1542 47.052 51.8528 45.9978C52.4773 45.0555 53.0145 44.0562 53.4644 42.9996C53.9097 41.9535 54.2546 40.8853 54.499 39.7947ZM51.5209 28.9138L51.5209 35.7169C51.5209 36.8792 51.3945 38.0128 51.142 39.118C50.9431 39.9878 50.666 40.84 50.3108 41.6746C49.9476 42.5273 49.5148 43.3348 49.0122 44.097C48.4359 44.9712 47.7677 45.7856 47.0079 46.5405C46.248 47.2953 45.4282 47.9591 44.5482 48.5316C43.781 49.0309 42.9681 49.4608 42.1097 49.8215C41.2695 50.1746 40.4117 50.4498 39.5361 50.6473C38.4236 50.8983 37.2825 51.0238 36.1127 51.0238C34.9429 51.0238 33.8018 50.8983 32.6893 50.6473C31.8136 50.4498 30.9557 50.1746 30.1156 49.8215C29.2571 49.4609 28.4442 49.0309 27.6771 48.5317C26.7971 47.9591 25.9772 47.2954 25.2173 46.5405C24.4574 45.7855 23.7892 44.9709 23.2128 44.0967C22.7103 43.3346 22.2776 42.5272 21.9146 41.6746C21.5592 40.84 21.2821 39.9878 21.0833 39.118C20.8307 38.0128 20.7043 36.8792 20.7043 35.7169L20.7043 28.9138C20.7043 27.7516 20.8307 26.6179 21.0833 25.5127C21.2821 24.6428 21.5592 23.7908 21.9146 22.9563C22.2776 22.1035 22.7103 21.296 23.2129 20.5339C23.7893 19.6597 24.4574 18.8451 25.2173 18.0902C25.9772 17.3354 26.7971 16.6718 27.677 16.0991C28.4442 15.5999 29.2571 15.1699 30.1156 14.8092C30.9556 14.4562 31.8134 14.1809 32.689 13.9834C33.8015 13.7324 34.9427 13.6069 36.1127 13.6069C37.2826 13.6069 38.4238 13.7324 39.5364 13.9834C40.4119 14.181 41.2697 14.4562 42.1097 14.8092C42.9681 15.1698 43.7809 15.5997 44.548 16.0989C45.428 16.6715 46.248 17.3353 47.0079 18.0902C47.7678 18.8451 48.436 19.6597 49.0125 20.5339C49.5149 21.296 49.9476 22.1035 50.3108 22.9563C50.666 23.7908 50.9431 24.6429 51.142 25.5128C51.3947 26.6179 51.5209 27.7517 51.5209 28.9138Z" fill="#8400FF" fill-opacity="1.000000" fill-rule="evenodd"></path><path id="Vector 1" d="M45.0472 21.0863C48.67 22.9518 49.8889 25.238 52.5642 27.9883C53.0038 28.4401 53.6147 28.6812 54.2472 28.6812C55.5936 28.6812 56.6852 27.5968 56.6852 26.2593L56.6852 15.3087C56.6852 14.0443 56.3569 12.7855 55.5964 11.7715C54.991 10.9641 54.4855 10.4337 54.0208 9.95679C52.2166 8.10535 49.9105 6.57129 47.3167 6.57129L46.6449 6.57129C45.374 6.57129 44.1348 6.2085 43.0266 5.59021C25.0432 -4.44446 15.2666 6.56958 12.7825 20.0986C11.9883 24.4241 16.2668 27.5508 20.5314 26.374L40.8175 20.7767C42.2279 20.3875 43.7477 20.4171 45.0472 21.0863Z" fill="#F0E1FF" fill-opacity="1.000000" fill-rule="evenodd"></path><path id="Vector 1 (Border)" d="M49.3053 26.9287C50.1427 27.8945 50.8186 28.6418 51.3331 29.1707C51.5022 29.3446 51.6842 29.5005 51.879 29.6387C52.1266 29.8141 52.395 29.9607 52.6841 30.0784C52.8951 30.1644 53.1105 30.2322 53.33 30.2816C53.6281 30.3489 53.9337 30.3824 54.2472 30.3824C54.5459 30.3824 54.838 30.3519 55.1235 30.2908C55.3752 30.2369 55.6217 30.1592 55.863 30.0579C56.1024 29.9573 56.3285 29.8368 56.5413 29.6965C56.7701 29.5457 56.9835 29.3718 57.1816 29.1749C57.3798 28.9781 57.5548 28.7661 57.7067 28.5389C57.8479 28.3275 57.9691 28.1029 58.0704 27.865C58.1725 27.6252 58.2506 27.3804 58.3049 27.1304C58.3665 26.8468 58.3972 26.5565 58.3972 26.2598L58.3972 15.3092C58.3972 14.4894 58.2877 13.709 58.0687 12.9678C57.8569 12.2507 57.5504 11.5973 57.149 11.0074C56.6761 10.3767 55.9236 9.46472 55.2509 8.77441C54.1338 7.62793 52.98 6.72974 51.7894 6.07971C50.4154 5.32947 49.0282 4.92847 47.6279 4.87683L46.645 4.87109C45.8064 4.82275 44.6799 4.56262 43.8651 4.10791C39.3232 1.57349 35.0836 0.211914 31.1461 0.0229492C28.7347 -0.0926514 26.4833 0.227905 24.3918 0.984741C23.2711 1.39038 22.1963 1.92126 21.1675 2.57739C18.5143 4.26941 16.3015 6.70703 14.5291 9.89038C12.9253 12.771 11.7816 16.0721 11.0983 19.7939C10.9371 20.6715 10.9302 21.5219 11.0771 22.345C11.1595 22.806 11.2903 23.2584 11.4692 23.7024C11.6438 24.1351 11.8569 24.5428 12.1089 24.9253C12.531 25.5664 13.0618 26.1368 13.7013 26.6367C14.0684 26.9238 14.455 27.1747 14.8608 27.3894C15.5443 27.751 16.2827 28.0101 17.076 28.1669C17.6187 28.274 18.1613 28.3278 18.704 28.3281C19.4658 28.3285 20.2277 28.2236 20.9896 28.0133L41.2756 22.4159C41.8275 22.2637 42.3597 22.2026 42.8724 22.2329C43.3846 22.2631 43.8469 22.3844 44.2594 22.5968C45.298 23.1316 46.2327 23.7775 47.0634 24.5344C47.5905 25.0146 48.3378 25.8127 49.3053 26.9287ZM53.8929 26.8868C53.4238 26.4047 52.6945 25.6254 51.8997 24.7087C51.3743 24.1029 50.9761 23.6527 50.7051 23.3584C50.2426 22.8561 49.8002 22.4126 49.3779 22.0277C48.3916 21.1683 47.0347 20.1946 45.8351 19.5769C45.6531 19.4832 45.4675 19.3982 45.2784 19.3219C44.5912 19.045 43.8569 18.8834 43.0754 18.8374C42.183 18.7847 41.2777 18.8851 40.3593 19.1384L20.0732 24.7358C19.5726 24.874 19.074 24.9366 18.5774 24.9237C18.2988 24.9164 18.021 24.8854 17.7438 24.8307C17.2181 24.7268 16.7375 24.5472 16.3018 24.292C16.1342 24.1937 15.973 24.0844 15.8187 23.9636C15.4187 23.651 15.1011 23.2913 14.8657 22.8846C14.7828 22.7415 14.7102 22.5924 14.6478 22.4375C14.5886 22.2909 14.54 22.1416 14.502 21.9899C14.3762 21.4896 14.3645 20.9611 14.4668 20.4043C15.083 17.0481 16.1025 14.0922 17.5254 11.5367C19.0187 8.85461 20.8492 6.82239 23.0172 5.43982C23.7441 4.9762 24.5022 4.59167 25.2913 4.28625C27.0361 3.61084 28.9327 3.32227 30.981 3.42053C34.3802 3.58362 38.1161 4.80139 42.1882 7.07361C43.2653 7.67456 44.3722 8.04956 45.5093 8.19873C45.8845 8.24792 46.2631 8.27258 46.645 8.27258L47.3167 8.27258C48.2367 8.27258 49.1779 8.53528 50.1403 9.06067C51.0293 9.54614 51.9127 10.2393 52.7906 11.1403C53.361 11.7255 53.8386 12.2748 54.2236 12.7882C54.6848 13.4414 54.9731 14.3346 54.9731 15.3092L54.9731 26.2598C54.9377 26.3447 54.8314 26.6993 54.7605 26.7698C54.6749 26.8049 54.3474 26.981 54.2472 26.981C54.1086 26.981 53.9906 26.9496 53.8929 26.8868Z" fill="#8400FF" fill-opacity="1.000000" fill-rule="evenodd"></path><path id="Oval 4" d="M68.7626 83.5343C67.5857 79.7201 65.9211 76.1625 63.8535 72.9569C59.1925 65.7028 52.8007 60.6971 45.7781 58.1305C38.2302 55.3545 30.4528 55.5461 23.4351 58.1295C15.8832 60.8921 9.69092 66.2078 5.35852 72.9542C3.21655 76.2769 1.58545 79.8441 0.447144 83.5366C-1.76746 90.7208 4.57751 96.9438 12.1407 96.9438L34.6052 96.9438L57.067 96.9438C64.6312 96.9438 70.9792 90.7189 68.7626 83.5343Z" fill="#FFFFFF" fill-opacity="1.000000" fill-rule="evenodd"></path><path id="Oval 4 (Border)" d="M61.3561 72.9098C63.1486 76.1292 64.5917 79.702 65.6118 83.5327C67.5336 90.7482 62.0304 97 55.4728 97L36 97L16.5251 97C9.96838 97 4.46765 90.7501 6.38757 83.535C7.37439 79.8267 8.78857 76.244 10.6455 72.9071C14.4012 66.1315 19.7695 60.793 26.3164 58.0186C32.4003 55.4241 39.1426 55.2316 45.686 58.0195C51.7742 60.5972 57.3154 65.6244 61.3561 72.9098ZM58.854 74.7478C56.3159 70.1716 53.24 66.5918 49.6263 64.0082C48.0709 62.8961 46.4159 61.9685 44.6611 61.2256C41.7509 59.9857 38.842 59.3701 35.9346 59.3788C33.0709 59.3875 30.2086 60.0018 27.3478 61.2218C25.549 61.9841 23.8553 62.9391 22.2667 64.0868C18.6963 66.666 15.6567 70.2186 13.1479 74.7444C12.7771 75.4109 12.4244 76.089 12.0901 76.7789C10.9076 79.218 9.95276 81.8037 9.22595 84.5354C8.9397 85.6108 8.88086 86.634 9.04932 87.605C9.23792 88.6921 9.71143 89.7139 10.47 90.67C11.0343 91.3815 11.6626 91.9625 12.355 92.4135C13.5532 93.1937 14.9432 93.5839 16.5251 93.5839L36 93.5839L55.4728 93.5839C57.0544 93.5839 58.4445 93.1938 59.6427 92.4138C60.3359 91.9626 60.965 91.381 61.5298 90.6689C62.2889 89.7119 62.7627 88.6895 62.951 87.6016C63.1191 86.6311 63.0601 85.6085 62.7738 84.5338C61.9807 81.5562 60.9205 78.7577 59.5933 76.1385C59.3563 75.6709 59.1079 75.204 58.854 74.7478Z" fill="#8400FF" fill-opacity="1.000000" fill-rule="evenodd"></path><path id="Vector 2 (Border)" d="M32.1862 63.4274L27.0502 58.3251L24.6289 60.7303L29.0168 65.0894L24.8845 77.4047C24.5769 78.3214 24.5349 79.25 24.7584 80.1904C24.8701 80.6606 25.0399 81.0988 25.2677 81.5046C25.4956 81.9106 25.7814 82.2844 26.1254 82.626L32.48 88.9388C32.972 89.4276 33.5387 89.8013 34.1798 90.0596C34.4764 90.179 34.7788 90.2698 35.087 90.332C35.4218 90.3995 35.7633 90.4332 36.1117 90.4332C36.4602 90.4332 36.8018 90.3995 37.1364 90.332C37.4446 90.2698 37.7471 90.179 38.0436 90.0596C38.6848 89.8013 39.2515 89.4276 39.7435 88.9388L46.0981 82.626C46.442 82.2844 46.7279 81.9105 46.9557 81.5046C47.1836 81.0988 47.3533 80.6606 47.4651 80.1904C47.6885 79.25 47.6465 78.3214 47.3389 77.4047L43.2065 65.0894L47.5945 60.7303L45.1733 58.3251L40.0372 63.4274L37.3223 66.1244C36.988 66.4565 36.5845 66.6226 36.1117 66.6226C35.8754 66.6226 35.6562 66.5811 35.4545 66.498C35.2527 66.415 35.0682 66.2904 34.9011 66.1244L32.1862 63.4274ZM40.4996 67.7784L39.7435 68.5297C39.2515 69.0184 38.6848 69.3921 38.0436 69.6504C37.7471 69.7698 37.4447 69.8606 37.1365 69.9229C36.8019 69.9904 36.4602 70.024 36.1117 70.024C35.4423 70.024 34.7983 69.8995 34.1798 69.6504C33.5387 69.3921 32.972 69.0184 32.48 68.5297L31.7238 67.7784L28.1329 78.4803C28.0304 78.7859 28.0164 79.0955 28.0908 79.4089C28.1281 79.5657 28.1847 79.7117 28.2606 79.8469C28.3365 79.9823 28.4319 80.1069 28.5465 80.2208L34.9011 86.5336C35.0682 86.6996 35.2527 86.8242 35.4545 86.9072C35.6562 86.9902 35.8754 87.0317 36.1117 87.0317C36.5845 87.0317 36.988 86.8657 37.3223 86.5336L43.677 80.2208C43.9062 79.993 44.0581 79.7224 44.1326 79.4089C44.207 79.0955 44.1931 78.7859 44.0906 78.4803L40.4996 67.7784Z" fill="#8400FF" fill-opacity="1.000000" fill-rule="evenodd"></path><path id="Vector 2 (Border)" d="M39.7435 68.5297L40.4996 67.7784L44.0906 78.4803C44.1931 78.7859 44.207 79.0955 44.1326 79.4089C44.0581 79.7224 43.9062 79.993 43.677 80.2208L37.3223 86.5336C36.988 86.8657 36.5845 87.0317 36.1117 87.0317C35.8754 87.0317 35.6562 86.9902 35.4545 86.9072C35.2527 86.8242 35.0682 86.6996 34.9011 86.5336L28.5465 80.2208C28.4319 80.1069 28.3365 79.9823 28.2606 79.8469C28.1847 79.7117 28.1281 79.5657 28.0908 79.4089C28.0164 79.0955 28.0304 78.7859 28.1329 78.4803L31.7238 67.7784L32.48 68.5297C32.972 69.0184 33.5387 69.3921 34.1798 69.6504C34.7983 69.8995 35.4423 70.024 36.1117 70.024C36.4602 70.024 36.8019 69.9904 37.1365 69.9229C37.4447 69.8606 37.7471 69.7698 38.0436 69.6504C38.6848 69.3921 39.2515 69.0184 39.7435 68.5297Z" fill="#F0E1FF" fill-opacity="1.000000" fill-rule="evenodd"></path><path id="Oval 6" d="M25.8398 34.0155C25.8398 33.0762 26.6063 32.3147 27.5519 32.3147C28.4974 32.3147 29.2639 33.0762 29.2639 34.0155C29.2639 34.9547 28.4974 35.7162 27.5519 35.7162C26.6063 35.7162 25.8398 34.9547 25.8398 34.0155Z" fill="#8400FF" fill-opacity="1.000000" fill-rule="evenodd"></path><path id="Oval 6 (Border)" d="M25.155 34.0155C25.155 32.7004 26.2281 31.6344 27.5519 31.6344C28.8756 31.6344 29.9487 32.7004 29.9487 34.0155C29.9487 35.3304 28.8756 36.3965 27.5519 36.3965C26.2281 36.3965 25.155 35.3304 25.155 34.0155ZM25.8398 34.0155C25.8398 33.0762 26.6063 32.3147 27.5519 32.3147C28.4974 32.3147 29.2639 33.0762 29.2639 34.0155C29.2639 34.9548 28.4974 35.7162 27.5519 35.7162C26.6063 35.7162 25.8398 34.9548 25.8398 34.0155Z" fill="#8400FF" fill-opacity="1.000000" fill-rule="evenodd"></path><path id="Oval 9" d="M42.9601 34.0155C42.9601 33.0762 43.7266 32.3147 44.6721 32.3147C45.6177 32.3147 46.3842 33.0762 46.3842 34.0155C46.3842 34.9547 45.6177 35.7162 44.6721 35.7162C43.7266 35.7162 42.9601 34.9547 42.9601 34.0155Z" fill="#8400FF" fill-opacity="1.000000" fill-rule="evenodd"></path><path id="Oval 9 (Border)" d="M42.2754 34.0155C42.2754 32.7004 43.3485 31.6344 44.6722 31.6344C45.996 31.6344 47.0691 32.7004 47.0691 34.0155C47.0691 35.3304 45.996 36.3965 44.6722 36.3965C43.3485 36.3965 42.2754 35.3304 42.2754 34.0155ZM42.9602 34.0155C42.9602 33.0762 43.7267 32.3147 44.6722 32.3147C45.6178 32.3147 46.3843 33.0762 46.3843 34.0155C46.3843 34.9548 45.6178 35.7162 44.6722 35.7162C43.7267 35.7162 42.9602 34.9548 42.9602 34.0155Z" fill="#8400FF" fill-opacity="1.000000" fill-rule="evenodd"></path><path id="Oval 8" d="M41.9506 42.6771C41.4216 43.5354 40.7179 44.2469 39.9047 44.7831C38.6744 45.5974 37.2736 45.9625 35.8989 45.9183C34.4213 45.8738 33.0668 45.3649 31.9723 44.5375C31.1536 43.921 30.5142 43.1561 30.0625 42.3092C29.7356 41.6963 30.1168 40.9838 30.7832 40.7766C31.4497 40.5693 32.1449 40.9548 32.537 41.5289C32.8037 41.9196 33.1307 42.2584 33.501 42.537C34.2433 43.0977 35.1107 43.3822 35.9778 43.408C36.9098 43.4375 37.7827 43.17 38.5044 42.6918C38.9066 42.4264 39.2495 42.1052 39.5297 41.7454C39.9569 41.1967 40.675 40.855 41.3273 41.1029C41.9792 41.351 42.3152 42.0857 41.9506 42.6771Z" fill="#8400FF" fill-opacity="1.000000" fill-rule="evenodd"></path><path id="Oval 2" d="M65.1736 56.1703C65.5703 59.2349 67.0127 62.1825 69.4769 64.4362C71.766 66.5283 74.7782 67.8651 78.1245 68.0149C81.2313 68.1589 84.4038 67.2595 87.0641 65.2374C89.5372 63.3638 91.3856 60.649 92.1151 57.4011C92.7974 54.3866 92.4567 51.1267 90.9141 48.1729C89.4862 45.428 87.116 43.1482 84.0229 41.8705C81.1531 40.6796 77.8624 40.4468 74.6663 41.4431C71.6973 42.3633 69.0258 44.2864 67.222 47.0905C65.5431 49.6914 64.7408 52.8705 65.1736 56.1703ZM78.2201 65.9404C75.5874 65.8219 72.981 64.8177 70.8931 62.9081C68.9547 61.1339 67.6077 58.7004 67.2466 55.9036C66.907 53.3074 67.4497 50.583 68.9827 48.21C70.4023 46.0042 72.5808 44.2639 75.2906 43.4248C77.8054 42.6417 80.6003 42.6997 83.219 43.7874C85.6521 44.7933 87.7556 46.6224 89.0579 49.1278C90.2709 51.4521 90.6987 54.1965 90.0753 56.9474C89.5005 59.5026 88.0526 61.8781 85.795 63.5873C83.7015 65.1776 81.0553 66.0728 78.2201 65.9404Z" fill="#000000" fill-opacity="1.000000" fill-rule="evenodd"></path><path id="Oval 2 (Border)" d="M67.3766 62.6035C67.9229 63.353 68.5457 64.0476 69.2449 64.6871C69.9055 65.2908 70.6105 65.8235 71.3597 66.2849C71.9674 66.6593 72.6044 66.9868 73.2705 67.2677C73.9528 67.5553 74.649 67.7867 75.3595 67.9618C76.2537 68.1821 77.1703 68.3134 78.109 68.3553C78.9935 68.3964 79.8665 68.3564 80.7279 68.2358C81.4471 68.135 82.1584 67.9779 82.8618 67.7644C83.5637 67.5513 84.2406 67.287 84.8923 66.9716C85.7268 66.5676 86.52 66.0798 87.2721 65.5082C87.9767 64.9745 88.62 64.3861 89.202 63.743C89.6874 63.2069 90.1302 62.6327 90.5305 62.0206C90.9308 61.4086 91.2786 60.7733 91.5739 60.1149C91.9513 59.2731 92.2432 58.3934 92.4492 57.476C92.6434 56.6177 92.7555 55.7567 92.7855 54.8929C92.8105 54.1718 92.7782 53.4486 92.6887 52.7235C92.5994 51.9995 92.4548 51.2911 92.2551 50.5985C91.9998 49.7123 91.6539 48.8518 91.2179 48.0168C90.8113 47.2351 90.3398 46.5037 89.8036 45.8226C89.3563 45.2545 88.8639 44.7214 88.3264 44.2234C87.7894 43.7257 87.2203 43.2754 86.619 42.8722C85.85 42.3566 85.0284 41.9182 84.1544 41.5571C83.337 41.2179 82.5026 40.9586 81.6511 40.7793C80.9409 40.6298 80.2189 40.5359 79.4849 40.4976C78.7517 40.4592 78.0245 40.4777 77.3032 40.5527C76.3804 40.6487 75.4672 40.8375 74.5637 41.1191C73.7181 41.3812 72.9113 41.7155 72.1431 42.1218C71.5022 42.4608 70.8882 42.85 70.3011 43.2893C69.7147 43.7281 69.1697 44.2065 68.6658 44.7245C68.0208 45.3875 67.4434 46.1154 66.9335 46.908C66.4554 47.6486 66.0536 48.4198 65.728 49.2216C65.4563 49.8905 65.2378 50.5808 65.0723 51.2924C64.9071 52.0029 64.799 52.7175 64.7482 53.4362C64.6831 54.3558 64.7117 55.2821 64.834 56.215C64.946 57.0807 65.1351 57.9218 65.4012 58.738C65.627 59.4307 65.9081 60.1053 66.2448 60.7623C66.5762 61.4091 66.9534 62.0227 67.3766 62.6035ZM71.7307 65.7129C71.0142 65.2725 70.3402 64.7637 69.7087 64.1866C69.0397 63.5747 68.4442 62.9098 67.9225 62.1921C67.5236 61.6436 67.1678 61.0641 66.855 60.4536C66.5392 59.8374 66.2748 59.2045 66.0615 58.5549C65.8037 57.7699 65.621 56.9606 65.5131 56.1271C65.396 55.2347 65.3691 54.3488 65.4324 53.4692C65.4812 52.7908 65.5835 52.1163 65.7395 51.4456C65.8947 50.7783 66.099 50.1307 66.3524 49.5027C66.6642 48.7303 67.0502 47.9875 67.5105 47.2743C67.9983 46.516 68.5509 45.8202 69.1685 45.1868C69.6448 44.6982 70.1597 44.2469 70.7131 43.8326C71.2637 43.4207 71.8391 43.0551 72.4396 42.7358C73.1782 42.3431 73.9546 42.0206 74.7688 41.7683C75.6331 41.4989 76.5066 41.3187 77.3894 41.2279C78.0703 41.1577 78.7568 41.1407 79.449 41.1769C80.1371 41.2129 80.8145 41.3002 81.4808 41.4391C82.3008 41.6099 83.1044 41.8586 83.8915 42.1853C84.7277 42.5306 85.5133 42.9504 86.2483 43.4445C86.8154 43.8257 87.3524 44.2511 87.8594 44.7208C88.3633 45.1879 88.8256 45.6873 89.2462 46.2192C89.7638 46.8737 90.2185 47.5773 90.6101 48.3302C91.0271 49.1288 91.3574 49.952 91.6008 50.7999C91.7886 51.4541 91.9247 52.1229 92.009 52.8063C92.0929 53.4858 92.1239 54.1636 92.1019 54.8397C92.075 55.6716 91.968 56.501 91.7809 57.3278C91.5836 58.2059 91.3038 59.0476 90.9417 59.8525C90.6622 60.4735 90.3337 61.0726 89.9563 61.65C89.5809 62.224 89.1661 62.7631 88.7119 63.267C88.153 63.887 87.5343 64.454 86.856 64.9679C86.1365 65.5148 85.3776 65.981 84.5791 66.3663C83.9634 66.6635 83.3242 66.9126 82.6616 67.1138C82.0022 67.314 81.3353 67.462 80.6609 67.558C79.8319 67.676 78.9916 67.7152 78.1399 67.6758C77.2418 67.6355 76.3652 67.5096 75.5101 67.2979C74.8395 67.1318 74.1821 66.913 73.538 66.6415C72.9082 66.376 72.3058 66.0664 71.7307 65.7129ZM69.1493 61.4905C69.5957 62.089 70.0996 62.6451 70.6609 63.1589C71.2561 63.7032 71.8929 64.1794 72.5714 64.587C73.0968 64.9028 73.6472 65.1776 74.2227 65.4114C74.8079 65.6493 75.4045 65.839 76.0125 65.9807C76.7273 66.1472 77.4578 66.2473 78.204 66.2809C79.0085 66.3185 79.8011 66.2776 80.5814 66.1583C81.1918 66.0649 81.7946 65.9237 82.39 65.7345C82.9866 65.5449 83.5613 65.3119 84.1139 65.0356C84.7749 64.7052 85.4044 64.3129 86.0026 63.8584C86.6433 63.3734 87.2239 62.8361 87.7444 62.2465C88.1516 61.7853 88.5221 61.292 88.8557 60.7668C89.1899 60.2408 89.4792 59.6957 89.7239 59.1313C90.0165 58.4561 90.245 57.7532 90.4093 57.0228C90.5862 56.2422 90.6833 55.46 90.7006 54.6759C90.7141 54.0625 90.6787 53.448 90.5945 52.8325C90.5101 52.2161 90.379 51.6135 90.2012 51.025C89.9884 50.3208 89.7087 49.6366 89.3621 48.9724C88.9926 48.2614 88.5607 47.6 88.0665 46.9883C87.6801 46.5099 87.2554 46.0619 86.7927 45.6442C86.3291 45.2257 85.8386 44.8478 85.3213 44.5104C84.7029 44.1069 84.0461 43.7616 83.3511 43.4742C82.6079 43.1655 81.8491 42.9347 81.0748 42.7816C80.4692 42.662 79.854 42.5898 79.2294 42.5653C78.6035 42.5408 77.9833 42.5645 77.3689 42.6362C76.634 42.7222 75.9072 42.877 75.1887 43.1007C74.4198 43.3389 73.6893 43.6465 72.9972 44.0236C72.4557 44.3187 71.9377 44.6564 71.4432 45.0365C70.948 45.4174 70.4883 45.8314 70.0641 46.2787C69.5566 46.8138 69.1001 47.3966 68.6945 48.0269C68.2594 48.7003 67.8988 49.4025 67.6127 50.1333C67.3888 50.7051 67.2106 51.2946 67.0778 51.9015C66.9447 52.5095 66.8605 53.1202 66.825 53.7338C66.7826 54.4677 66.8098 55.2057 66.9069 55.9475C67.0087 56.7355 67.1849 57.4983 67.4358 58.2362C67.6351 58.8226 67.8816 59.3933 68.1752 59.9482C68.4619 60.4902 68.7866 61.0044 69.1493 61.4905ZM72.9388 64.0127C72.2946 63.6267 71.6899 63.1753 71.125 62.6586C70.5925 62.1713 70.115 61.6436 69.6923 61.0757C69.3534 60.6202 69.0497 60.1389 68.7814 59.6317C68.507 59.113 68.2761 58.5796 68.0891 58.0315C67.8503 57.3319 67.6826 56.6084 67.5861 55.861C67.4933 55.1515 67.4681 54.446 67.5105 53.7445C67.5448 53.1757 67.6237 52.6095 67.7469 52.046C67.871 51.4789 68.0372 50.928 68.2457 50.3934C68.5164 49.6997 68.858 49.0333 69.2708 48.3943C69.6588 47.7914 70.0961 47.2349 70.5825 46.7245C70.9768 46.3108 71.4034 45.9275 71.8624 45.5745C72.3243 45.2194 72.8082 44.9036 73.3138 44.6271C73.97 44.2684 74.6628 43.9762 75.3925 43.7502C76.0797 43.5363 76.7748 43.389 77.4774 43.3087C78.0474 43.2435 78.6223 43.2224 79.2023 43.2451C79.7859 43.2679 80.3608 43.335 80.9269 43.4462C81.6616 43.5903 82.3817 43.809 83.0869 44.1018C83.7517 44.3767 84.3793 44.7078 84.9695 45.0948C85.4482 45.4088 85.9025 45.7598 86.3322 46.1477C86.7644 46.5378 87.1614 46.9563 87.5232 47.4028C87.9928 47.9825 88.403 48.6099 88.7537 49.2845C89.0851 49.9198 89.3517 50.5742 89.5535 51.2479C89.7169 51.7941 89.8378 52.3528 89.9159 52.9242C89.9946 53.4993 90.028 54.0735 90.0161 54.6469C90.0007 55.3905 89.9091 56.1327 89.7412 56.8734C89.5841 57.5719 89.3647 58.2437 89.0833 58.8887C88.8552 59.4113 88.5863 59.9163 88.2766 60.4037C87.9648 60.8943 87.619 61.3553 87.2391 61.7869C86.746 62.3469 86.1954 62.8571 85.5875 63.3174C85.0155 63.7518 84.4133 64.1262 83.7808 64.4404C83.2676 64.6954 82.7345 64.9108 82.1814 65.0865C81.6251 65.2633 81.0619 65.3956 80.4917 65.4835C79.7516 65.5977 78.9996 65.637 78.2361 65.6013C77.5226 65.5692 76.8245 65.4727 76.1417 65.3119C75.578 65.1791 75.0247 65.0023 74.4818 64.7817C73.9445 64.5634 73.4301 64.307 72.9388 64.0127Z" fill="#000000" fill-opacity="1.000000" fill-rule="evenodd"></path><path id="Union" d="M79.7661 48.4019L79.7661 53.42L84.8173 53.42C84.9036 53.42 84.9874 53.4302 85.0686 53.4503C85.1177 53.4625 85.1658 53.4784 85.2129 53.4979C85.2756 53.5239 85.3345 53.5554 85.3896 53.5925C85.4417 53.6276 85.4902 53.6675 85.5355 53.7124C85.5808 53.7574 85.621 53.8057 85.6562 53.8574C85.6936 53.9121 85.7253 53.9706 85.7515 54.033C85.7711 54.0798 85.7871 54.1276 85.7993 54.1763C85.8196 54.257 85.8298 54.3402 85.8298 54.4259C85.8298 54.5117 85.8196 54.595 85.7993 54.6757C85.7871 54.7244 85.7711 54.7721 85.7515 54.819C85.7253 54.8812 85.6936 54.9398 85.6562 54.9945C85.621 55.0463 85.5807 55.0945 85.5355 55.1394C85.4902 55.1844 85.4417 55.2244 85.3896 55.2594C85.3345 55.2965 85.2756 55.328 85.2129 55.354C85.1658 55.3735 85.1177 55.3894 85.0686 55.4015C84.9874 55.4218 84.9036 55.4318 84.8173 55.4318L79.7661 55.4318L79.7661 60.4501C79.7661 60.5358 79.7559 60.619 79.7356 60.6997C79.7234 60.7484 79.7074 60.7961 79.6877 60.843C79.6616 60.9054 79.6299 60.9639 79.5925 61.0186C79.5573 61.0703 79.517 61.1187 79.4718 61.1636C79.4265 61.2085 79.3779 61.2485 79.3258 61.2836C79.2708 61.3206 79.2119 61.3522 79.1492 61.3781C79.1021 61.3976 79.054 61.4135 79.0049 61.4257C78.9237 61.4458 78.8398 61.4559 78.7535 61.4559C78.6672 61.4559 78.5835 61.4458 78.5022 61.4257C78.4532 61.4135 78.4052 61.3976 78.3579 61.3781C78.2953 61.3522 78.2363 61.3206 78.1813 61.2836C78.1293 61.2485 78.0806 61.2085 78.0354 61.1636C77.9901 61.1187 77.9498 61.0703 77.9146 61.0186C77.8773 60.9639 77.8456 60.9054 77.8195 60.843C77.7998 60.7963 77.7838 60.7484 77.7716 60.6997C77.7512 60.619 77.7411 60.5358 77.7411 60.4501L77.7411 55.4318L72.6895 55.4318C72.6031 55.4318 72.5194 55.4218 72.4382 55.4015C72.3892 55.3894 72.3411 55.3735 72.2939 55.354C72.2312 55.328 72.1722 55.2965 72.1172 55.2594C72.0652 55.2244 72.0165 55.1844 71.9713 55.1394C71.926 55.0945 71.8857 55.0461 71.8505 54.9945C71.8132 54.9397 71.7815 54.8812 71.7554 54.819C71.7357 54.7721 71.7197 54.7244 71.7075 54.6757C71.6871 54.595 71.677 54.5117 71.677 54.4259C71.677 54.3402 71.6871 54.257 71.7075 54.1763C71.7197 54.1276 71.7357 54.0798 71.7554 54.033C71.7815 53.9707 71.8132 53.9121 71.8506 53.8574C71.8857 53.8057 71.926 53.7574 71.9713 53.7124C72.0165 53.6675 72.0652 53.6276 72.1172 53.5925C72.1722 53.5554 72.2312 53.5239 72.2939 53.4979C72.3411 53.4784 72.3892 53.4625 72.4381 53.4503C72.5194 53.4302 72.6031 53.42 72.6895 53.42L77.7411 53.42L77.7411 48.4019C77.7411 48.316 77.7512 48.2329 77.7715 48.1521C77.7838 48.1035 77.7998 48.0557 77.8195 48.0088C77.8456 47.9465 77.8773 47.8881 77.9147 47.8333C77.9498 47.7816 77.9901 47.7333 78.0354 47.6884C78.0806 47.6434 78.1293 47.6034 78.1813 47.5684C78.2363 47.5312 78.2953 47.4998 78.3579 47.4739C78.4052 47.4543 78.4532 47.4385 78.5022 47.4263C78.5835 47.4061 78.6672 47.396 78.7535 47.396C78.8398 47.396 78.9237 47.4061 79.0049 47.4263C79.054 47.4385 79.1021 47.4543 79.1492 47.4739C79.2119 47.4998 79.2708 47.5312 79.3258 47.5684C79.3779 47.6034 79.4265 47.6434 79.4718 47.6884C79.517 47.7333 79.5573 47.7816 79.5925 47.8333C79.6299 47.8881 79.6616 47.9465 79.6877 48.0088C79.7074 48.0557 79.7234 48.1035 79.7356 48.1521C79.7559 48.2329 79.7661 48.316 79.7661 48.4019Z" fill="#000000" fill-opacity="1.000000" fill-rule="evenodd"></path><path id="Union (Border)" d="M80.2797 52.9098L80.2797 48.4019C80.2754 48.3818 80.2388 48.0481 80.2338 48.0283C80.2009 47.9501 80.0901 47.6598 80.0452 47.589C79.9884 47.5325 79.7175 47.2197 79.6533 47.1735C79.5942 47.1489 79.2274 46.9578 79.1663 46.9409C79.0631 46.9197 78.8611 46.8857 78.7535 46.8857C78.7334 46.8899 78.3975 46.9263 78.3776 46.9313C78.2987 46.9639 78.0065 47.0741 77.9352 47.1187C77.8785 47.1749 77.564 47.4437 77.5175 47.5073C77.4928 47.5662 77.2997 47.9314 77.2827 47.9924C77.2614 48.0948 77.2274 48.2949 77.2274 48.4019L77.2274 52.9098L72.6895 52.9098C72.6694 52.9139 72.3334 52.9504 72.3135 52.9553C72.2349 52.9879 71.9426 53.098 71.8715 53.1425C71.8148 53.1989 71.4998 53.4679 71.4532 53.5315C71.4293 53.5886 71.2368 53.952 71.2202 54.0111C71.1987 54.1135 71.1633 54.3191 71.1633 54.4259C71.1677 54.4475 71.2037 54.7781 71.2091 54.7994C71.2419 54.8777 71.3528 55.1678 71.3976 55.2385C71.4543 55.295 71.7253 55.6079 71.7896 55.6543C71.8481 55.6785 72.2145 55.8698 72.2753 55.8865C72.3783 55.9077 72.5819 55.942 72.6895 55.942L77.2274 55.942L77.2274 60.4501C77.2316 60.4698 77.2683 60.8038 77.2732 60.8235C77.306 60.9019 77.417 61.1923 77.4619 61.2631C77.5186 61.3193 77.7891 61.6318 77.853 61.678C77.911 61.702 78.2772 61.8933 78.3373 61.91C78.4404 61.9313 78.6459 61.9661 78.7535 61.9661C78.7738 61.9619 79.1094 61.9255 79.1294 61.9205C79.2081 61.8881 79.5002 61.778 79.5714 61.7335C79.6281 61.6771 79.9432 61.408 79.9897 61.3444C80.0142 61.286 80.2069 60.9216 80.2238 60.8613C80.2451 60.7589 80.2797 60.5568 80.2797 60.4501L80.2797 55.942L84.8173 55.942C84.8373 55.9379 85.1732 55.9015 85.1932 55.8965C85.272 55.8639 85.5641 55.7538 85.6353 55.7092C85.6907 55.6543 86.0046 55.3866 86.0503 55.3246C86.0752 55.2653 86.2712 54.8956 86.2883 54.8342C86.3098 54.7317 86.3434 54.533 86.3434 54.4259C86.3392 54.4065 86.3024 54.0718 86.2975 54.0525C86.2645 53.9739 86.1536 53.6833 86.1085 53.6123C86.0515 53.5558 85.781 53.2437 85.7167 53.1973C85.6575 53.1727 85.291 52.9817 85.2296 52.9648C85.1265 52.9436 84.9248 52.9098 84.8173 52.9098L80.2797 52.9098ZM79.2524 48.4019L79.2524 53.9303L84.8173 53.9303C84.8423 53.9471 85.15 54.0511 85.1722 54.0732C85.1824 54.1133 85.3162 54.3821 85.3162 54.4259C85.2992 54.4508 85.1945 54.7566 85.1722 54.7787C85.132 54.7887 84.8615 54.9215 84.8173 54.9215L79.2524 54.9215L79.2524 60.4501C79.2355 60.4749 79.1307 60.7806 79.1085 60.8027C79.0682 60.8127 78.7976 60.9457 78.7535 60.9457C78.7285 60.9288 78.4207 60.8248 78.3984 60.8027C78.3884 60.7627 78.2546 60.4939 78.2546 60.4501L78.2546 54.9215L72.6895 54.9215C72.6644 54.9047 72.3566 54.8007 72.3344 54.7787C72.3243 54.7385 72.1906 54.4697 72.1906 54.4259C72.2075 54.401 72.3123 54.0952 72.3344 54.0732C72.3748 54.0632 72.6453 53.9303 72.6895 53.9303L78.2546 53.9303L78.2546 48.4019C78.2716 48.377 78.3762 48.0712 78.3984 48.0491C78.4388 48.0391 78.7094 47.9062 78.7535 47.9062C78.7786 47.9231 79.0863 48.0271 79.1085 48.0491C79.1307 48.0712 79.2355 48.377 79.2524 48.4019Z" fill="#000000" fill-opacity="1.000000" fill-rule="evenodd"></path></svg> 