<?xml version="1.0" encoding="UTF-8"?> <svg xmlns="http://www.w3.org/2000/svg" xmlns:xlink="http://www.w3.org/1999/xlink" width="287.000000" height="60.000000" viewBox="0 0 287 60" fill="none"> <desc> Created with Pixso. </desc> <defs> <clipPath id="clip39_1"> <rect id="learnlinklogo" width="60.000000" height="60.000000" fill="white" fill-opacity="0"></rect> </clipPath> </defs> <path id="Умный курс" d="M161.22 13.5156Q162.266 14.6973 164.647 14.6973Q167.053 14.6973 168.104 13.5041Q168.909 12.5903 168.919 10.9766L166.423 10.9766Q166.423 11.7046 166.069 12.1539Q166.015 12.2217 165.954 12.2832Q165.915 12.3231 165.872 12.3595Q165.417 12.752 164.624 12.752Q163.838 12.752 163.399 12.3619Q163.356 12.3243 163.317 12.2832Q163.296 12.2611 163.276 12.2381Q162.871 11.7749 162.848 10.9766L160.399 10.9766Q160.409 12.6004 161.22 13.5156ZM93.1016 25.4961L100.256 12.2012L96.4414 12.2012L91.8301 21.2246L87.3652 12.2012L83.2168 12.2012L89.8379 24.5352L89.6973 24.7285Q89.2168 25.4727 88.6367 25.8242Q88.4925 25.911 88.3391 25.976Q87.8815 26.1699 87.3418 26.1699Q86.6738 26.1699 85.666 25.8535L84.7285 28.8066Q86.1465 29.3867 87.4648 29.3867Q88.1887 29.3867 88.8661 29.2093Q89.7843 28.9688 90.6172 28.4023Q92.0703 27.418 93.1016 25.4961ZM221.575 16.3744Q220.398 15.8984 219.028 15.8984Q216.997 15.8984 215.704 16.8751Q215.304 17.1778 214.974 17.5742L214.974 16.0859L211.399 16.0859L211.399 33.6582L215.144 33.6582L215.144 27.6348Q215.522 28.0508 215.975 28.3557Q217.22 29.1934 219.028 29.1934Q220.398 29.1934 221.575 28.7174Q221.949 28.5663 222.304 28.3672Q222.973 27.9899 223.511 27.4753Q224.16 26.855 224.618 26.0352Q225.462 24.5352 225.462 22.543Q225.462 20.5508 224.618 19.0508Q224.156 18.2231 223.499 17.6006Q222.965 17.0949 222.304 16.7246Q221.949 16.5255 221.575 16.3744ZM230.653 28.4123Q232.248 29.1934 234.225 29.1934Q236.264 29.1934 237.788 28.332Q238.705 27.8101 239.322 27.0462Q239.731 26.5409 240.009 25.9297L237.102 24.3418Q236.555 25.3288 235.72 25.7671Q235.053 26.1172 234.202 26.1172Q233.275 26.1172 232.549 25.7345Q232.129 25.5126 231.776 25.1621Q231.603 24.9894 231.462 24.7941Q230.815 23.9031 230.815 22.543Q230.815 21.196 231.454 20.3085Q231.598 20.1073 231.776 19.9297Q232.135 19.5712 232.563 19.3465Q233.283 18.9688 234.202 18.9688Q235.007 18.9688 235.652 19.2903Q236.523 19.7243 237.102 20.7441L240.009 19.1855Q239.67 18.4143 239.136 17.8172Q238.571 17.185 237.788 16.748Q236.264 15.8984 234.225 15.8984Q232.248 15.8984 230.653 16.6795Q230.584 16.713 230.516 16.748Q229.443 17.3016 228.677 18.1363Q228.267 18.5827 227.944 19.1094Q227.739 19.4465 227.58 19.804Q227.024 21.0496 227.024 22.543Q227.024 24.0363 227.58 25.282Q227.739 25.6395 227.944 25.9766Q228.261 26.4935 228.661 26.9336Q229.433 27.7808 230.516 28.3438Q230.584 28.3788 230.653 28.4123ZM113.938 21.2715L113.938 29L117.319 29L117.272 16.0859L113.768 16.0859L109.374 23.5508L105.249 16.0859L101.335 16.0859L101.335 29L104.722 29L104.722 21.248L108.489 27.752L110.071 27.752L113.938 21.2715ZM124.616 16.0859L120.895 16.0859L120.895 29L124.616 29L124.616 24.1777L130.235 24.1777L130.235 29L133.979 29L133.979 16.0859L130.235 16.0859L130.235 21.1309L124.616 21.1309L124.616 16.0859ZM148.156 21.3477Q146.861 20.2402 144.342 20.2168L141.272 20.2168L141.272 16.0859L137.551 16.0859L137.551 29L143.838 29.0234Q146.527 29.0234 147.992 27.8516Q148.456 27.4786 148.773 27.0069Q149.457 25.9891 149.457 24.5117Q149.457 22.9488 148.71 21.9377Q148.471 21.6145 148.156 21.3477ZM154.566 16.0859L150.846 16.0859L150.846 29L154.566 29L154.566 16.0859ZM161.888 16.0859L158.167 16.0859L158.167 29L161.624 29L167.888 21.3184L167.888 29L171.608 29L171.608 16.0859L168.175 16.0859L161.888 23.7676L161.888 16.0859ZM185.743 24.1016L187.688 24.1016L191.145 29L195.557 29L190.735 22.2793L195.021 16.3957L200.484 29.0938L200.431 29.2168Q200.05 30.0781 199.57 30.4473Q199.564 30.4518 199.558 30.4562Q199.08 30.8223 198.322 30.8223Q197.771 30.8223 197.202 30.6055Q196.758 30.439 196.398 30.1629Q196.302 30.0893 196.212 30.0078L194.841 32.6738Q195.468 33.2246 196.447 33.5352Q197.191 33.7701 197.949 33.8273Q198.193 33.8457 198.439 33.8457Q200.088 33.8457 201.306 33.1201Q201.454 33.0313 201.597 32.9316Q202.904 32.0234 203.794 29.791L209.624 16.0859L206.027 16.0859L202.376 24.8457L198.755 16.0859L191.262 16.0859L187.759 21.1016L185.743 21.1016L185.743 16.0859L181.999 16.0859L181.999 29L185.743 29L185.743 24.1016ZM219.977 25.742Q219.282 26.1172 218.384 26.1172Q217.491 26.1172 216.797 25.7467Q216.369 25.5187 216.017 25.1504Q215.872 24.9973 215.75 24.8277Q215.097 23.9204 215.097 22.543Q215.097 21.1793 215.741 20.2756Q215.867 20.0998 216.017 19.9414Q216.375 19.5652 216.81 19.3346Q217.5 18.9688 218.384 18.9688Q219.273 18.9688 219.964 19.3392Q220.393 19.569 220.745 19.9414Q220.902 20.1066 221.033 20.2908Q221.671 21.1908 221.671 22.543Q221.671 23.9089 221.025 24.8125Q220.897 24.9904 220.745 25.1504Q220.398 25.5149 219.977 25.742ZM145.156 25.9062Q144.582 26.3867 143.504 26.3574L141.272 26.3574L141.272 22.6133L143.504 22.6426Q144.606 22.666 145.168 23.0996Q145.27 23.1767 145.354 23.2702Q145.736 23.6962 145.736 24.4648Q145.736 25.2469 145.352 25.7107Q145.264 25.8168 145.156 25.9062Z" fill="#FFFFFF" fill-opacity="1.000000" fill-rule="evenodd"></path> <path id="Маркетплейс цифровых курсов" d="M199.087 50.5226Q199.54 49.8082 199.54 48.8066Q199.54 47.8229 199.094 47.1231Q198.877 46.7829 198.555 46.5098Q197.571 45.6748 195.784 45.5811L195.784 43.0967L194.656 43.0967L194.656 45.5811Q192.857 45.6748 191.884 46.5039Q191.59 46.7546 191.385 47.0642Q190.912 47.7786 190.912 48.8066Q190.912 49.8446 191.388 50.5705Q191.594 50.8854 191.89 51.1416Q192.869 51.9883 194.656 52.085L194.656 54.3291L195.784 54.3291L195.784 52.085Q197.571 51.9883 198.555 51.1357Q198.872 50.8615 199.087 50.5226ZM158.09 44.3887Q158.582 44.8135 159.47 44.8135Q160.349 44.8135 160.853 44.3887Q160.966 44.2927 161.054 44.1778Q161.359 43.7803 161.368 43.1553L160.563 43.1553Q160.555 43.4452 160.424 43.6606Q160.354 43.7761 160.249 43.8701Q160.209 43.9065 160.165 43.938Q159.884 44.1396 159.458 44.1396Q159.029 44.1396 158.751 43.9343Q158.71 43.9044 158.673 43.8701Q158.58 43.7843 158.515 43.6807Q158.376 43.4588 158.368 43.1553L157.586 43.1553Q157.598 43.8065 157.92 44.2108Q157.996 44.3067 158.09 44.3887ZM94.085 45.8799L94.0967 52L95.248 52L95.2363 43.6006L94.252 43.6006L90.7949 49.5039L87.291 43.6006L86.3066 43.6006L86.3066 52L87.4609 52L87.4609 45.915L90.4961 50.9805L91.0469 50.9805L94.085 45.8799ZM101.961 46.2285Q101.261 45.5811 99.9398 45.5811Q99.1722 45.5811 98.4867 45.792Q97.804 46 97.3119 46.3955L97.7923 47.2598Q98.1644 46.9492 98.7035 46.7646Q99.0697 46.6379 99.4453 46.5969Q99.6256 46.5771 99.808 46.5771Q100.649 46.5771 101.079 46.9727Q101.15 47.0367 101.208 47.1099Q101.513 47.4886 101.513 48.1123L101.513 48.3408L99.6878 48.3408Q98.3578 48.3408 97.7455 48.8506Q97.4849 49.0675 97.3352 49.3443Q97.1331 49.7181 97.1331 50.2012Q97.1331 50.6377 97.3073 50.9875Q97.4674 51.3092 97.7747 51.5576Q98.4164 52.0732 99.4857 52.0732Q100.215 52.0732 100.748 51.8389Q101.172 51.6539 101.44 51.3374Q101.511 51.253 101.572 51.1592L101.572 52L102.664 52L102.664 48.1592Q102.664 46.9942 102.085 46.3532Q102.026 46.2882 101.961 46.2285ZM109.573 45.889Q108.915 45.5811 108.112 45.5811Q107.419 45.5811 106.84 45.8389Q106.827 45.8447 106.814 45.8506Q106.547 45.9735 106.322 46.1501Q106.053 46.3607 105.845 46.6475L105.845 45.6396L104.74 45.6396L104.74 54.3291L105.892 54.3291L105.892 51.0391Q106.127 51.3385 106.423 51.5541Q106.625 51.7014 106.855 51.8096Q106.885 51.8231 106.915 51.836Q107.462 52.0732 108.112 52.0732Q108.915 52.0732 109.573 51.7653Q109.672 51.7191 109.768 51.666Q110.115 51.4717 110.39 51.2038Q110.696 50.9061 110.913 50.5176Q110.929 50.4892 110.944 50.4605Q111.326 49.7425 111.326 48.8213Q111.326 47.8745 110.925 47.1495Q110.919 47.1387 110.913 47.1279Q110.702 46.7532 110.407 46.4637Q110.125 46.1872 109.768 45.9883Q109.672 45.9352 109.573 45.889ZM125.681 49.2051Q125.704 48.9883 125.704 48.8564Q125.704 47.9052 125.308 47.1664Q125.304 47.1589 125.3 47.1514Q125.067 46.7199 124.729 46.3997Q124.484 46.1677 124.184 45.9941Q124.086 45.9375 123.985 45.8887Q123.347 45.5811 122.561 45.5811Q121.799 45.5811 121.168 45.8675Q121.042 45.9251 120.92 45.9941Q120.616 46.1678 120.366 46.3999Q120.022 46.72 119.78 47.1514Q119.708 47.281 119.649 47.4161Q119.367 48.0568 119.367 48.8213Q119.367 49.5887 119.654 50.2278Q119.716 50.3669 119.792 50.5Q119.966 50.8018 120.197 51.0496Q120.536 51.4129 120.999 51.6602Q121.778 52.0732 122.786 52.0732Q123.58 52.0732 124.222 51.8096Q124.681 51.619 125.031 51.3071Q125.171 51.1827 125.294 51.0391L124.658 50.2949Q124.409 50.5717 124.102 50.749Q123.555 51.0654 122.824 51.0654Q122.062 51.0654 121.503 50.728Q121.374 50.6507 121.257 50.5557Q120.987 50.3361 120.813 50.0569Q120.581 49.6841 120.519 49.2051L125.681 49.2051ZM154.685 49.2051Q154.708 48.9883 154.708 48.8564Q154.708 47.9052 154.312 47.1664Q154.308 47.1589 154.304 47.1514Q154.071 46.7199 153.733 46.3997Q153.488 46.1677 153.188 45.9941Q153.09 45.9375 152.989 45.8887Q152.351 45.5811 151.565 45.5811Q150.803 45.5811 150.172 45.8675Q150.046 45.9251 149.924 45.9941Q149.62 46.1678 149.37 46.3999Q149.026 46.72 148.784 47.1514Q148.712 47.281 148.653 47.4161Q148.371 48.0568 148.371 48.8213Q148.371 49.5887 148.658 50.2278Q148.72 50.3669 148.796 50.5Q148.97 50.8018 149.201 51.0496Q149.54 51.4129 150.003 51.6602Q150.782 52.0732 151.79 52.0732Q152.584 52.0732 153.226 51.8096Q153.685 51.619 154.035 51.3071Q154.175 51.1827 154.298 51.0391L153.662 50.2949Q153.413 50.5717 153.106 50.749Q152.559 51.0654 151.828 51.0654Q151.066 51.0654 150.507 50.728Q150.378 50.6507 150.261 50.5557Q149.991 50.3361 149.817 50.0569Q149.585 49.6841 149.523 49.2051L154.685 49.2051ZM165.965 51.7089Q166.689 52.0732 167.596 52.0732Q168.46 52.0732 169.137 51.7188Q169.503 51.5276 169.78 51.2479Q170.017 51.0089 170.188 50.7051L169.312 50.1514Q169.059 50.5349 168.705 50.7575Q168.637 50.8002 168.565 50.8369Q168.498 50.872 168.427 50.9017Q168.04 51.0654 167.584 51.0654Q167.049 51.0654 166.607 50.8631Q166.533 50.8294 166.462 50.79Q166.251 50.672 166.078 50.5125Q165.843 50.2956 165.68 50.002Q165.398 49.4922 165.398 48.8213Q165.398 48.1685 165.672 47.6638Q165.676 47.6566 165.68 47.6494Q165.845 47.3522 166.084 47.1346Q166.254 46.9791 166.462 46.8643Q166.533 46.8249 166.607 46.7912Q167.049 46.5889 167.584 46.5889Q168.04 46.5889 168.427 46.7526Q168.498 46.7823 168.565 46.8174Q168.636 46.853 168.703 46.8944Q169.058 47.1152 169.312 47.5L170.188 46.9346Q170.011 46.6196 169.763 46.3761Q169.492 46.1102 169.137 45.9297Q168.46 45.5811 167.596 45.5811Q166.668 45.5811 165.932 45.9568Q165.897 45.975 165.861 45.9941Q165.449 46.2179 165.132 46.5371Q164.865 46.8071 164.666 47.1455Q164.593 47.2714 164.532 47.4031Q164.235 48.0436 164.235 48.8213Q164.235 49.5867 164.524 50.2204Q164.588 50.3605 164.666 50.4941Q164.857 50.8186 165.111 51.082Q165.434 51.4178 165.861 51.6543Q165.913 51.6826 165.965 51.7089ZM206.005 45.889Q205.347 45.5811 204.544 45.5811Q203.851 45.5811 203.272 45.8389Q203.259 45.8447 203.246 45.8506Q202.979 45.9735 202.754 46.1501Q202.485 46.3607 202.277 46.6475L202.277 45.6396L201.172 45.6396L201.172 54.3291L202.324 54.3291L202.324 51.0391Q202.559 51.3385 202.855 51.5541Q203.057 51.7014 203.287 51.8096Q203.317 51.8231 203.347 51.836Q203.894 52.0732 204.544 52.0732Q205.347 52.0732 206.005 51.7653Q206.104 51.7191 206.2 51.666Q206.547 51.4717 206.822 51.2038Q207.128 50.9061 207.345 50.5176Q207.361 50.4892 207.376 50.4605Q207.758 49.7425 207.758 48.8213Q207.758 47.8745 207.357 47.1495Q207.351 47.1387 207.345 47.1279Q207.134 46.7532 206.839 46.4637Q206.557 46.1872 206.2 45.9883Q206.104 45.9352 206.005 45.889ZM210.66 51.7619Q211.335 52.0732 212.153 52.0732Q212.974 52.0732 213.647 51.7578Q213.75 51.7097 213.849 51.6543Q214.251 51.428 214.56 51.1107Q214.827 50.8365 215.024 50.4941Q215.097 50.3673 215.158 50.2348Q215.452 49.5953 215.452 48.8213Q215.452 48.0349 215.151 47.3886Q215.093 47.2645 215.024 47.1455Q214.819 46.7897 214.539 46.5094Q214.238 46.2081 213.849 45.9941Q213.765 45.9479 213.679 45.9068Q212.993 45.5811 212.153 45.5811Q211.315 45.5811 210.628 45.9026Q210.537 45.9455 210.448 45.9941Q210.045 46.2142 209.736 46.5265Q209.464 46.8005 209.264 47.1455Q209.2 47.2575 209.145 47.374Q208.839 48.0259 208.839 48.8213Q208.839 49.6042 209.137 50.2493Q209.195 50.3743 209.264 50.4941Q209.456 50.8255 209.714 51.0931Q210.031 51.4217 210.448 51.6543Q210.552 51.7121 210.66 51.7619ZM262.393 45.889Q261.735 45.5811 260.932 45.5811Q260.239 45.5811 259.66 45.8389Q259.647 45.8447 259.634 45.8506Q259.367 45.9735 259.142 46.1501Q258.873 46.3607 258.665 46.6475L258.665 45.6396L257.56 45.6396L257.56 54.3291L258.712 54.3291L258.712 51.0391Q258.947 51.3385 259.243 51.5541Q259.445 51.7014 259.675 51.8096Q259.705 51.8231 259.735 51.836Q260.282 52.0732 260.932 52.0732Q261.735 52.0732 262.393 51.7653Q262.492 51.7191 262.588 51.666Q262.935 51.4717 263.21 51.2038Q263.516 50.9061 263.733 50.5176Q263.749 50.4892 263.764 50.4605Q264.146 49.7425 264.146 48.8213Q264.146 47.8745 263.745 47.1495Q263.739 47.1387 263.733 47.1279Q263.522 46.7532 263.227 46.4637Q262.945 46.1872 262.588 45.9883Q262.492 45.9352 262.393 45.889ZM266.957 51.7089Q267.681 52.0732 268.588 52.0732Q269.452 52.0732 270.129 51.7188Q270.495 51.5276 270.772 51.2479Q271.009 51.0089 271.18 50.7051L270.305 50.1514Q270.051 50.5349 269.697 50.7575Q269.629 50.8002 269.557 50.8369Q269.49 50.872 269.419 50.9017Q269.032 51.0654 268.576 51.0654Q268.041 51.0654 267.599 50.8631Q267.525 50.8294 267.454 50.79Q267.243 50.672 267.07 50.5125Q266.835 50.2956 266.672 50.002Q266.39 49.4922 266.39 48.8213Q266.39 48.1685 266.664 47.6638Q266.668 47.6566 266.672 47.6494Q266.837 47.3522 267.076 47.1346Q267.246 46.9791 267.454 46.8643Q267.525 46.8249 267.599 46.7912Q268.041 46.5889 268.576 46.5889Q269.032 46.5889 269.419 46.7526Q269.49 46.7823 269.557 46.8174Q269.628 46.853 269.695 46.8944Q270.05 47.1152 270.305 47.5L271.18 46.9346Q271.003 46.6196 270.755 46.3761Q270.484 46.1102 270.129 45.9297Q269.452 45.5811 268.588 45.5811Q267.66 45.5811 266.924 45.9568Q266.889 45.975 266.853 45.9941Q266.441 46.2179 266.124 46.5371Q265.857 46.8071 265.658 47.1455Q265.585 47.2714 265.524 47.4031Q265.227 48.0436 265.227 48.8213Q265.227 49.5867 265.516 50.2204Q265.58 50.3605 265.658 50.4941Q265.849 50.8186 266.103 51.082Q266.426 51.4178 266.853 51.6543Q266.905 51.6826 266.957 51.7089ZM273.804 51.7619Q274.479 52.0732 275.297 52.0732Q276.118 52.0732 276.791 51.7578Q276.894 51.7097 276.993 51.6543Q277.395 51.428 277.704 51.1107Q277.971 50.8365 278.168 50.4941Q278.241 50.3673 278.302 50.2348Q278.596 49.5953 278.596 48.8213Q278.596 48.0349 278.295 47.3886Q278.237 47.2645 278.168 47.1455Q277.963 46.7897 277.683 46.5094Q277.382 46.2081 276.993 45.9941Q276.909 45.9479 276.823 45.9068Q276.137 45.5811 275.297 45.5811Q274.459 45.5811 273.772 45.9026Q273.681 45.9455 273.592 45.9941Q273.189 46.2142 272.88 46.5265Q272.608 46.8005 272.408 47.1455Q272.344 47.2575 272.289 47.374Q271.983 48.0259 271.983 48.8213Q271.983 49.6042 272.281 50.2493Q272.339 50.3743 272.408 50.4941Q272.6 50.8255 272.858 51.0931Q273.175 51.4217 273.592 51.6543Q273.696 51.7121 273.804 51.7619ZM114.148 49.3105L115.469 49.3105L117.605 52L118.961 52L116.38 48.7012L118.791 45.6396L117.555 45.6396L115.492 48.3291L114.148 48.3291L114.148 45.6396L112.996 45.6396L112.996 52L114.148 52L114.148 49.3105ZM129.639 46.6475L131.968 46.6475L131.968 45.6396L126.159 45.6396L126.159 46.6475L128.488 46.6475L128.488 52L129.639 52L129.639 46.6475ZM139.036 52L139.036 45.6396L133.144 45.6396L133.144 52L134.296 52L134.296 46.6475L137.884 46.6475L137.884 52L139.036 52ZM146.729 52L146.729 45.6396L141.845 45.6396L141.737 47.9922Q141.675 49.0586 141.602 49.6357Q141.532 50.2129 141.292 50.6318Q141.17 50.8434 140.988 50.9482Q140.809 51.0508 140.571 51.0508Q140.439 51.0508 140.284 51.0156L140.211 51.9883Q140.609 52.0967 140.92 52.0967Q141.317 52.0967 141.613 51.9235Q141.828 51.7978 141.989 51.5811Q142.373 51.0654 142.54 50.207Q142.707 49.3486 142.768 48.0654L142.841 46.6475L145.575 46.6475L145.575 52L146.729 52ZM157.648 45.6396L156.496 45.6396L156.496 52L157.551 52L161.439 47.3682L161.439 52L162.593 52L162.593 45.6396L161.547 45.6396L157.648 50.2715L157.648 45.6396ZM181.695 53.5234L181.695 50.9922L180.687 50.9922L180.687 45.6396L179.536 45.6396L179.536 50.9922L176.056 50.9922L176.056 45.6396L174.904 45.6396L174.904 52L180.605 52L180.605 53.5234L181.695 53.5234ZM184.336 45.6396L183.184 45.6396L183.184 52L184.239 52L188.127 47.3682L188.127 52L189.281 52L189.281 45.6396L188.235 45.6396L184.336 50.2715L184.336 45.6396ZM222.401 49.2725Q222.093 48.8623 221.453 48.7012Q221.884 48.5269 222.145 48.2124Q222.174 48.1778 222.2 48.1416Q222.27 48.048 222.322 47.9455Q222.473 47.6467 222.473 47.2715Q222.473 46.8652 222.3 46.5552Q222.141 46.2707 221.837 46.0674Q221.201 45.6396 220.073 45.6396L217.12 45.6396L217.12 52L220.179 52Q221.427 52 222.057 51.5459Q222.313 51.36 222.465 51.1105Q222.687 50.7468 222.687 50.248Q222.687 49.6531 222.401 49.2725ZM229.19 48.3525Q228.555 47.8105 227.356 47.7988L225.64 47.7871L225.64 45.6396L224.488 45.6396L224.488 52L227.163 52.0117Q228.449 52.0234 229.138 51.4668Q229.349 51.2958 229.496 51.0807Q229.829 50.592 229.829 49.876Q229.829 49.1642 229.495 48.6852Q229.367 48.5018 229.19 48.3525ZM231.927 45.6396L230.775 45.6396L230.775 52L231.927 52L231.927 45.6396ZM236.308 49.5654L238.145 52L239.454 52L236.92 48.748L239.323 45.6396L238.063 45.6396L236.323 47.9307L234.571 45.6396L233.285 45.6396L235.672 48.748L233.164 52L234.451 52L236.308 49.5654ZM245.044 49.3105L246.365 49.3105L248.501 52L249.857 52L247.276 48.7012L249.658 45.6765L252.448 51.9883L252.246 52.4307Q252.018 52.9727 251.734 53.1924Q251.689 53.2276 251.641 53.2573Q251.386 53.415 251.033 53.415Q250.763 53.415 250.52 53.334Q250.181 53.2208 249.894 52.9492L249.402 53.8105Q249.689 54.1006 250.125 54.25Q250.304 54.3109 250.488 54.347Q250.756 54.3994 251.033 54.3994Q251.67 54.3994 252.154 54.1272Q252.253 54.0713 252.346 54.0039Q252.894 53.6084 253.301 52.6357L256.386 45.6396L255.258 45.6396L253.061 50.7285L250.84 45.6396L248.451 45.6396L246.388 48.3291L245.044 48.3291L245.044 45.6396L243.892 45.6396L243.892 52L245.044 52L245.044 49.3105ZM285.545 49.2725Q285.237 48.8623 284.597 48.7012Q285.028 48.5269 285.289 48.2124Q285.318 48.1778 285.344 48.1416Q285.414 48.048 285.466 47.9455Q285.617 47.6467 285.617 47.2715Q285.617 46.8652 285.444 46.5552Q285.285 46.2707 284.981 46.0674Q284.345 45.6396 283.217 45.6396L280.264 45.6396L280.264 52L283.323 52Q284.571 52 285.201 51.5459Q285.457 51.36 285.609 51.1105Q285.831 50.7468 285.831 50.248Q285.831 49.6531 285.545 49.2725ZM219.977 48.376L218.248 48.376L218.248 46.5273L219.977 46.5273Q220.896 46.5273 221.187 46.955Q221.321 47.1525 221.321 47.4414Q221.321 47.7116 221.2 47.906Q221.117 48.0384 220.979 48.1357Q220.636 48.376 219.977 48.376ZM283.121 48.376L281.392 48.376L281.392 46.5273L283.121 46.5273Q284.04 46.5273 284.331 46.955Q284.465 47.1525 284.465 47.4414Q284.465 47.7116 284.344 47.906Q284.261 48.0384 284.123 48.1357Q283.78 48.376 283.121 48.376ZM121.552 46.7867Q121.993 46.5508 122.561 46.5508Q123.109 46.5508 123.539 46.7766Q123.756 46.8911 123.944 47.0635Q124.148 47.2498 124.291 47.4752Q124.538 47.8666 124.6 48.376L120.519 48.376Q120.585 47.8173 120.866 47.4051Q120.996 47.2142 121.172 47.0547Q121.349 46.8956 121.552 46.7867ZM150.556 46.7867Q150.997 46.5508 151.565 46.5508Q152.113 46.5508 152.543 46.7766Q152.76 46.8911 152.948 47.0635Q153.152 47.2498 153.295 47.4752Q153.542 47.8666 153.604 48.376L149.523 48.376Q149.589 47.8173 149.87 47.4051Q150 47.2142 150.176 47.0547Q150.353 46.8956 150.556 46.7867ZM108.927 50.8799Q108.513 51.0654 108.016 51.0654Q107.585 51.0654 107.211 50.921Q107.062 50.8639 106.923 50.7842Q106.709 50.6605 106.536 50.4941Q106.311 50.2782 106.155 49.9902Q105.88 49.4805 105.88 48.8213Q105.88 48.1592 106.161 47.6553Q106.328 47.3555 106.568 47.1345Q106.732 46.984 106.929 46.8701Q107.053 46.7983 107.185 46.7448Q107.568 46.5889 108.016 46.5889Q108.531 46.5889 108.956 46.7837Q109.037 46.8205 109.114 46.8643Q109.291 46.9642 109.44 47.095Q109.703 47.3246 109.882 47.6494Q109.886 47.6566 109.89 47.6638Q110.163 48.1685 110.163 48.8213Q110.163 49.4614 109.898 49.9606Q109.89 49.9755 109.882 49.9902Q109.708 50.3046 109.457 50.5332Q109.301 50.6752 109.114 50.7842Q109.023 50.837 108.927 50.8799ZM205.359 50.8799Q204.945 51.0654 204.448 51.0654Q204.017 51.0654 203.643 50.921Q203.494 50.8639 203.355 50.7842Q203.141 50.6605 202.968 50.4941Q202.743 50.2782 202.587 49.9902Q202.312 49.4805 202.312 48.8213Q202.312 48.1592 202.593 47.6553Q202.76 47.3555 203 47.1345Q203.164 46.984 203.361 46.8701Q203.485 46.7983 203.617 46.7448Q204 46.5889 204.448 46.5889Q204.963 46.5889 205.388 46.7837Q205.469 46.8205 205.546 46.8643Q205.723 46.9642 205.872 47.095Q206.135 47.3246 206.314 47.6494Q206.318 47.6566 206.322 47.6638Q206.595 48.1685 206.595 48.8213Q206.595 49.4614 206.33 49.9606Q206.322 49.9755 206.314 49.9902Q206.14 50.3046 205.889 50.5332Q205.733 50.6752 205.546 50.7842Q205.455 50.837 205.359 50.8799ZM213.045 50.8874Q212.638 51.0654 212.153 51.0654Q211.656 51.0654 211.241 50.8799Q211.146 50.837 211.054 50.7842Q210.873 50.6782 210.72 50.541Q210.462 50.31 210.284 49.9902Q210.276 49.9755 210.268 49.9606Q210.002 49.4614 210.002 48.8213Q210.002 48.1685 210.276 47.6638Q210.28 47.6566 210.284 47.6494Q210.468 47.3193 210.736 47.0875Q210.883 46.9613 211.054 46.8643Q211.131 46.8205 211.212 46.7837Q211.638 46.5889 212.153 46.5889Q212.655 46.5889 213.074 46.7759Q213.163 46.8158 213.249 46.8643Q213.435 46.9696 213.59 47.1093Q213.84 47.3347 214.01 47.6494Q214.289 48.1592 214.289 48.8213Q214.289 49.4719 214.017 49.977Q214.014 49.9836 214.01 49.9902Q213.846 50.2944 213.607 50.5182Q213.445 50.6695 213.249 50.7842Q213.149 50.8417 213.045 50.8874ZM261.747 50.8799Q261.333 51.0654 260.836 51.0654Q260.405 51.0654 260.031 50.921Q259.882 50.8639 259.743 50.7842Q259.529 50.6605 259.356 50.4941Q259.131 50.2782 258.975 49.9902Q258.7 49.4805 258.7 48.8213Q258.7 48.1592 258.981 47.6553Q259.148 47.3555 259.388 47.1345Q259.552 46.984 259.749 46.8701Q259.873 46.7983 260.005 46.7448Q260.388 46.5889 260.836 46.5889Q261.351 46.5889 261.776 46.7837Q261.857 46.8205 261.934 46.8643Q262.111 46.9642 262.26 47.095Q262.523 47.3246 262.702 47.6494Q262.706 47.6566 262.71 47.6638Q262.983 48.1685 262.983 48.8213Q262.983 49.4614 262.718 49.9606Q262.71 49.9755 262.702 49.9902Q262.528 50.3046 262.277 50.5332Q262.121 50.6752 261.934 50.7842Q261.843 50.837 261.747 50.8799ZM276.189 50.8874Q275.782 51.0654 275.297 51.0654Q274.799 51.0654 274.385 50.8799Q274.29 50.837 274.198 50.7842Q274.017 50.6782 273.864 50.541Q273.606 50.31 273.428 49.9902Q273.42 49.9755 273.412 49.9606Q273.146 49.4614 273.146 48.8213Q273.146 48.1685 273.42 47.6638Q273.424 47.6566 273.428 47.6494Q273.612 47.3193 273.88 47.0875Q274.027 46.9613 274.198 46.8643Q274.275 46.8205 274.356 46.7837Q274.782 46.5889 275.297 46.5889Q275.799 46.5889 276.218 46.7759Q276.307 46.8158 276.393 46.8643Q276.579 46.9696 276.734 47.1093Q276.984 47.3347 277.154 47.6494Q277.433 48.1592 277.433 48.8213Q277.433 49.4719 277.161 49.977Q277.158 49.9836 277.154 49.9902Q276.99 50.2944 276.751 50.5182Q276.589 50.6695 276.393 50.7842Q276.293 50.8417 276.189 50.8874ZM192.398 50.0598Q192.051 49.5514 192.051 48.8066Q192.051 48.0981 192.379 47.609Q192.512 47.4104 192.699 47.248Q193.349 46.6826 194.656 46.6006L194.656 51.0654Q193.361 50.9805 192.705 50.4062Q192.527 50.2495 192.398 50.0598ZM198.036 50.0882Q197.424 50.9485 195.784 51.0771L195.784 46.6006Q197.079 46.6826 197.738 47.2422Q197.931 47.4046 198.068 47.6053Q198.4 48.0928 198.4 48.8066Q198.4 49.5767 198.036 50.0882ZM228.262 50.8252Q227.86 51.1475 227.081 51.1357L225.64 51.124L225.64 48.6279L227.081 48.6514Q227.872 48.6631 228.268 48.9531Q228.355 49.0166 228.423 49.0966Q228.663 49.3782 228.663 49.8643Q228.663 50.3516 228.427 50.6565Q228.355 50.7493 228.262 50.8252ZM100.816 50.8896Q100.335 51.1826 99.6761 51.1826Q99.0169 51.1826 98.6449 50.9072Q98.4759 50.7822 98.3837 50.6148Q98.2728 50.4137 98.2728 50.1514Q98.2728 49.8451 98.4146 49.6342Q98.7285 49.167 99.7376 49.167L101.513 49.167L101.513 50.0547Q101.385 50.3753 101.164 50.6087Q101.012 50.77 100.816 50.8896ZM221.175 50.8838Q220.815 51.1123 220.097 51.1123L218.248 51.1123L218.248 49.2051L220.167 49.2051Q220.876 49.2051 221.204 49.4453Q221.297 49.5121 221.364 49.599Q221.535 49.8211 221.535 50.1748Q221.535 50.4757 221.394 50.6777Q221.31 50.7984 221.175 50.8838ZM284.319 50.8838Q283.959 51.1123 283.241 51.1123L281.392 51.1123L281.392 49.2051L283.311 49.2051Q284.02 49.2051 284.348 49.4453Q284.441 49.5121 284.508 49.599Q284.679 49.8211 284.679 50.1748Q284.679 50.4757 284.538 50.6777Q284.454 50.7984 284.319 50.8838Z" fill="#FFFFFF" fill-opacity="1.000000" fill-rule="evenodd"></path> <g clip-path="url(#clip39_1)"> <rect id="rect" rx="29.999996" width="60.000000" height="59.999992" fill="#FFFFFF" fill-opacity="1.000000"></rect> <ellipse id="circle" cx="29.249298" cy="27.249237" rx="13.749241" ry="13.749239" fill="#A269FF" fill-opacity="0.219608"></ellipse> <ellipse id="circle" cx="29.000000" cy="27.000000" rx="10.500000" ry="10.499999" fill="#A269FF" fill-opacity="1.000000"></ellipse> <circle id="circle" cx="29.015137" cy="27.015198" r="8.015152" fill="#FFFFFF" fill-opacity="1.000000"></circle> <rect id="rect" x="25.512085" y="43.600647" rx="1.374924" width="2.749847" height="6.416309" fill="#3D0697" fill-opacity="1.000000"></rect> <path id="path" d="M15.208 15.2303C12.6201 18.2703 11.1851 21.9592 10.9029 25.7189C10.5543 30.2657 11.9048 34.5546 14.4162 37.9636C17.115 41.6393 20.9344 44.0121 25.0609 44.9609C29.5035 45.9899 33.9468 45.3004 37.6949 43.3306C41.2627 41.463 43.9575 38.5784 45.6153 35.2198C45.9784 34.4839 45.6002 33.6169 44.8374 33.3143C44.075 33.0118 43.218 33.3889 42.844 34.119C41.3597 37.0161 39.0452 39.2696 36.314 40.7007C32.9322 42.4794 29.1842 42.8655 25.7276 42.0662C22.0033 41.2112 18.9092 39.0615 16.8083 36.2025C14.5407 33.1269 13.5951 29.4799 13.865 25.9422C14.11 22.6631 15.3732 19.7008 17.3188 17.3391C17.8404 16.7058 17.8465 15.7695 17.2664 15.1895C16.6861 14.6091 15.74 14.6054 15.208 15.2303Z" fill="#5E02F4" fill-opacity="1.000000" fill-rule="evenodd"></path> <rect id="rect" x="20.039917" y="51.163116" rx="1.276924" width="2.553848" height="13.790775" transform="rotate(-90 20.039917 51.163116)" fill="#5E02F4" fill-opacity="1.000000"></rect> <rect id="rect" x="35.596924" y="13.715027" rx="1.374924" width="2.749847" height="4.945800" transform="rotate(179.974 35.596924 13.715027)" fill="#A269FF" fill-opacity="1.000000"></rect> <rect id="rect" x="42.979614" y="18.744812" rx="1.374924" width="2.749848" height="4.945801" transform="rotate(-133.275 42.979614 18.744812)" fill="#A269FF" fill-opacity="1.000000"></rect> <rect id="rect" x="43.844238" y="27.068970" rx="1.374924" width="2.749847" height="4.945801" transform="rotate(-81.1629 43.844238 27.068970)" fill="#A269FF" fill-opacity="1.000000"></rect> </g> </svg> 